<mxfile host="app.diagrams.net" agent="Mozilla/5.0 (Windows NT 10.0; Win64; x64) AppleWebKit/537.36 (KHTML, like Gecko) Chrome/129.0.0.0 Safari/537.36" version="24.7.17">
  <diagram name="Page-1" id="2YBvvXClWsGukQMizWep">
    <mxGraphModel dx="1434" dy="1806" grid="1" gridSize="10" guides="1" tooltips="1" connect="1" arrows="1" fold="1" page="1" pageScale="1" pageWidth="850" pageHeight="1100" math="0" shadow="0">
      <root>
        <mxCell id="0" />
        <mxCell id="1" parent="0" />
        <mxCell id="aM9ryv3xv72pqoxQDRHE-1" value=":Object" style="shape=umlLifeline;perimeter=lifelinePerimeter;whiteSpace=wrap;html=1;container=0;dropTarget=0;collapsible=0;recursiveResize=0;outlineConnect=0;portConstraint=eastwest;newEdgeStyle={&quot;edgeStyle&quot;:&quot;elbowEdgeStyle&quot;,&quot;elbow&quot;:&quot;vertical&quot;,&quot;curved&quot;:0,&quot;rounded&quot;:0};" parent="1" vertex="1">
          <mxGeometry x="40" y="40" width="100" height="300" as="geometry" />
        </mxCell>
        <mxCell id="aM9ryv3xv72pqoxQDRHE-2" value="" style="html=1;points=[];perimeter=orthogonalPerimeter;outlineConnect=0;targetShapes=umlLifeline;portConstraint=eastwest;newEdgeStyle={&quot;edgeStyle&quot;:&quot;elbowEdgeStyle&quot;,&quot;elbow&quot;:&quot;vertical&quot;,&quot;curved&quot;:0,&quot;rounded&quot;:0};" parent="aM9ryv3xv72pqoxQDRHE-1" vertex="1">
          <mxGeometry x="45" y="70" width="10" height="190" as="geometry" />
        </mxCell>
        <mxCell id="aM9ryv3xv72pqoxQDRHE-3" value="dispatch" style="html=1;verticalAlign=bottom;startArrow=oval;endArrow=block;startSize=8;edgeStyle=elbowEdgeStyle;elbow=vertical;curved=0;rounded=0;" parent="aM9ryv3xv72pqoxQDRHE-1" target="aM9ryv3xv72pqoxQDRHE-2" edge="1">
          <mxGeometry relative="1" as="geometry">
            <mxPoint x="-15" y="70" as="sourcePoint" />
          </mxGeometry>
        </mxCell>
        <mxCell id="aM9ryv3xv72pqoxQDRHE-4" value="" style="html=1;points=[];perimeter=orthogonalPerimeter;outlineConnect=0;targetShapes=umlLifeline;portConstraint=eastwest;newEdgeStyle={&quot;edgeStyle&quot;:&quot;elbowEdgeStyle&quot;,&quot;elbow&quot;:&quot;vertical&quot;,&quot;curved&quot;:0,&quot;rounded&quot;:0};" parent="aM9ryv3xv72pqoxQDRHE-1" vertex="1">
          <mxGeometry x="50" y="120" width="10" height="80" as="geometry" />
        </mxCell>
        <mxCell id="aM9ryv3xv72pqoxQDRHE-5" value=":Object" style="shape=umlLifeline;perimeter=lifelinePerimeter;whiteSpace=wrap;html=1;container=0;dropTarget=0;collapsible=0;recursiveResize=0;outlineConnect=0;portConstraint=eastwest;newEdgeStyle={&quot;edgeStyle&quot;:&quot;elbowEdgeStyle&quot;,&quot;elbow&quot;:&quot;vertical&quot;,&quot;curved&quot;:0,&quot;rounded&quot;:0};" parent="1" vertex="1">
          <mxGeometry x="220" y="40" width="100" height="300" as="geometry" />
        </mxCell>
        <mxCell id="aM9ryv3xv72pqoxQDRHE-6" value="" style="html=1;points=[];perimeter=orthogonalPerimeter;outlineConnect=0;targetShapes=umlLifeline;portConstraint=eastwest;newEdgeStyle={&quot;edgeStyle&quot;:&quot;elbowEdgeStyle&quot;,&quot;elbow&quot;:&quot;vertical&quot;,&quot;curved&quot;:0,&quot;rounded&quot;:0};" parent="aM9ryv3xv72pqoxQDRHE-5" vertex="1">
          <mxGeometry x="45" y="80" width="10" height="170" as="geometry" />
        </mxCell>
        <mxCell id="aM9ryv3xv72pqoxQDRHE-7" value="dispatch" style="html=1;verticalAlign=bottom;endArrow=block;edgeStyle=elbowEdgeStyle;elbow=vertical;curved=0;rounded=0;" parent="1" source="aM9ryv3xv72pqoxQDRHE-2" target="aM9ryv3xv72pqoxQDRHE-6" edge="1">
          <mxGeometry relative="1" as="geometry">
            <mxPoint x="195" y="130" as="sourcePoint" />
            <Array as="points">
              <mxPoint x="180" y="120" />
            </Array>
          </mxGeometry>
        </mxCell>
        <mxCell id="aM9ryv3xv72pqoxQDRHE-8" value="return" style="html=1;verticalAlign=bottom;endArrow=open;dashed=1;endSize=8;edgeStyle=elbowEdgeStyle;elbow=vertical;curved=0;rounded=0;" parent="1" source="aM9ryv3xv72pqoxQDRHE-6" target="aM9ryv3xv72pqoxQDRHE-2" edge="1">
          <mxGeometry relative="1" as="geometry">
            <mxPoint x="195" y="205" as="targetPoint" />
            <Array as="points">
              <mxPoint x="190" y="280" />
            </Array>
          </mxGeometry>
        </mxCell>
        <mxCell id="aM9ryv3xv72pqoxQDRHE-9" value="callback" style="html=1;verticalAlign=bottom;endArrow=block;edgeStyle=elbowEdgeStyle;elbow=vertical;curved=0;rounded=0;" parent="1" source="aM9ryv3xv72pqoxQDRHE-6" target="aM9ryv3xv72pqoxQDRHE-4" edge="1">
          <mxGeometry relative="1" as="geometry">
            <mxPoint x="175" y="160" as="sourcePoint" />
            <Array as="points">
              <mxPoint x="190" y="160" />
            </Array>
          </mxGeometry>
        </mxCell>
        <mxCell id="aM9ryv3xv72pqoxQDRHE-10" value="return" style="html=1;verticalAlign=bottom;endArrow=open;dashed=1;endSize=8;edgeStyle=elbowEdgeStyle;elbow=vertical;curved=0;rounded=0;" parent="1" source="aM9ryv3xv72pqoxQDRHE-4" target="aM9ryv3xv72pqoxQDRHE-6" edge="1">
          <mxGeometry relative="1" as="geometry">
            <mxPoint x="175" y="235" as="targetPoint" />
            <Array as="points">
              <mxPoint x="180" y="230" />
            </Array>
          </mxGeometry>
        </mxCell>
        <mxCell id="OqRu6cBzBZ2h4PWAciYX-1" value="" style="shape=image;verticalLabelPosition=bottom;labelBackgroundColor=default;verticalAlign=top;aspect=fixed;imageAspect=0;image=data:image/png,iVBORw0KGgoAAAANSUhEUgAAA+QAAALBCAYAAADRS2sgAAAAAXNSR0IArs4c6QAAAARnQU1BAACxjwv8YQUAAAAJcEhZcwAAEnQAABJ0Ad5mH3gAAP+lSURBVHhe7J0HYBzF1cefumTJsuTee+8VGxswNpjeQw0QQglpECCkQQJJ+JJAAglpQEIChN577wbTjbFx771Llmyr1/vm927XHEJuWLZuV+9HLtbu3G2dnZ3/vDfvJUQcYhiGYRiGYRiGYRjGASXR+9cwDMMwDMMwDMMwjAOICXLDMAzDMAzDMAzDaARMkBuGYRiGYRiGYRhGI2CC3DAMwzAMwzAMwzAaARPkhmEYhmEYhmEYhtEImCA3DMMwDMMwDMMwjEbABLlhGIZhGIZhGIZhNAImyA3DMAzDMAzDMAyjETBBbhiGYRiGYRiGYRiNgAlywzAMwzAMwzAMw2gETJAbhmEYhmEYhmEYRiNggtwwDMMwDMMwDMMwGgET5IZhGIZhGIZhGIbRCJggNwzDMAzDMAzDMIxGwAS5YRiGYRiGYRiGYTQCJsgNwzAMwzAMwzAMoxEwQW4YhmEYhmEYhmEYjYAJcsMwDMMwDMMwDMNoBEyQG4ZhGIZhGIZhGEYjYILcMAzDMAzDMAzDMBoBE+SGYRiGYRiGYRiG0QiYIDcMwzAMwzAMwzCMRiAh4vD+NgzDMIxAsn37dpk/f77+C506dZKBAwdKQkKCLoeByspKWbp0qaxdu9ZbE6VXr176gYKCAtmyZYt07txZMjIydF0QWLFihaSlpUlOTo6sW7dO71+zZs28UpHCwkJZtWqVDB48WJKTk721X581a9bo9lu1auWtMQzDMIzGwSzkhmEYRqApLi6WqVOnymeffSbLli2TxYsXy4svvihvv/221NTUeN8KPiUlJXqe7777rp4nn0WLFsnTTz8t8+bN0++UlZWpIK+qqtLlIMAgwltvvSVFRUX692uvvab/xoJgf+CBB6S8vNxbs2/k5eXJ66+/LhUVFd4awzAMw2gckn7j8P42DMMwjMCxfPlyFapnnnmmHHHEETJ69Gi1jD/++OMyduxYtYTynUceeUReeukltcD26dNHUlJSVJAhcO+77z79DuIeK3S3bt1k+vTpao3u0KGDVFdXq8hnu1hVEb5vvPGGPPTQQ/q97Oxsad26tYphvrdkyRJ59NFH9d927dpJ8+bN9bcffPCB3H333fLRRx9JbW2tbjspKUlWr14tf/3rX+Wdd96R9evXS9euXSU9Pd07wyiIUY593Lhxcsopp8iYMWP0XDk2BG2/fv30Oxs3bpT27dvr+SHWuQ5sl3Pp2LGjXg8E75133ilvvvmm7o8P28H6zDHibfDUU0/pMZSWlu64dmwnKytLj5vtffjhhzu+yzmw/QcffFBeeeUV3QfnwXHsDAZM3nvvPb2mnA8eDgwy9O/fX6+pz4YNG2TOnDly+OGH63fYH+fGIEzPnj31mHD4q+8+c31Xrlyp58XxM2AzatQovTf5+fk7vAsMwzAMozEwC7lhGIYRaBC6iD+EKCQmJqpQ/dGPfqRCGPdkhBji7KSTTlJL8/PPP6+CePbs2SoIJ0yYoMIMK+znn3+uZYg7Pgg9xCrrN23apGXTpk1TEXvcccfJiBEj5NVXX9X9IxYR5IjYY445Rq2+bB+hjABEqE6ZMkXGjx+vAhPLNtbf//73vzqYwG/8QQJE/+5AbB500EEqnBGgCMwFCxbItm3bdEAAkcw5c37s//3335etW7fKvffeqy7t7A9R/Nxzz+m5cdz8ze+PPfZYvZacGy7kbKdLly7yn//8R7/LvrAyc20QypzLH/7wB+nbt68cfPDBeu0Y3NgVWKqx9PObPYHj43riAcC153d33HGH3tOd3WfuH9eBa9q9e3e9XtQLRDnbYpuGYRiG0ViYIDcMwzACDdbsQw89VH73u9+piDz77LNV7PrWUYQoFtTDDjtMxfOpp54qM2fO1DnJiEEsrJRhTR8wYID+Zlcwn3nGjBkqrLHqTpo0SY8Bay3k5ubq8SD8hg8frsIVYY6lmnWI1UMOOUS+/e1vq6DERRsxjmimnGNhH1iF94TU1FS1TCOSfbB0n3zyyXLppZfqOWNV79279w4rOyL0rLPOUlHKeWPx9kGEjxw5UoYNGyZDhw6VCy64YMfAA8eJAGfQAKHrW7bZ/qBBg/Q4ODfOA/HLIMWupg0gyDnWWGv4rmBbDChwjbm2DChceeWVuo2d3WfOl0EbPBg4LwZeuGZ4EWzevFnLDcMwDKOxMEFuGIZhBBqsw7hwP/vss2ppRqxdccUVcu2116oLOi7Vf/nLX2Ty5MkqevkubtFYWRGEuJQj0NgOAnV3QcNwS8dCjvBnewhA3M39gHIIWraHCGRbCFeEMNZiRCrr+U5mZqZ+H3dqjhUhy+db3/qWfPzxx2qJ31PYJvvxYRkLOP8yUHH00UfL//73Pw0Mh3Bv2bKltGjRQr+LGG7btq3+Df5xA4MTBFvD3RsBf84556iI9aEcl3R+w7+IftaxzL+xx1QfXH8Cue3KrT0Wrhmu+Y899phe9xdeeEHvG0J9Z/fZv44cDx8frg/3fk8HPgzDMAxjf2CC3DAMwwg0uFdjUUb84VqNCzNu1lhSFy5cqJbRq666St2Zcdnmwxxk3K8RaIg5Xzhi/d0d/AZr8JNPPrlje3zOPfdc7xtfxRe5dbfvC9mbb775S9u67bbbVNzuCQwsYIlGXPogQhmcOP/883UQgDnVF198sYprjiP2nPnuzqzYeBEwWIDw/e1vf6tCOHY/+wL7ZBAjNgAdAxVck7rHw3c4bq49HgbM3b/pppvUJZ1zxD1+V/e5Phg0YfDGMAzDMBoTE+SGYRhGoMGajPU31nKLJRjLL+IO12Sswoh2wH181qxZKkgRa1hIma+NGzfzxBHNvoDGws4y/yL8Ea8IP+YgIwIRjnwIFIZr+s7AiosbNfOs2R4fLOMcEwHMcIHnGDgm1lGGVX13cDycC8IWd3EfzoVtIFoZKGA+NefJ97keWPmZc83+sFLX57bNd5mbj0v/Nddco1MA2GZDRSZHXHMtwR8cwAJO0DmmEviDF/zLOfrWd+aDcy5MC8AzoUePHnrNdnaf/e3UhevNdhikMAzDMIzGwqKsG4ZhGIEG12uEImIaYUygNgKltWnTRt2XEeYsM8cbt3HmlyPcyGmNsCYIGu7OfBDGiESssAhPXLURrligmaM8ZMgQFaaIdSKbY0Fmv1jiEcRYeIm6jus585kpZ1/Md0bY4urOMSAUOQ6OEWs7Acc4dv/42TfbQ8j7INA5Po6T7fI95kgT7Zx57AhWAs2xjMhHpHPOfJdj518ELwMDeA9gSebcKGOZvO24j3POzAvHrR3ROnfuXD0ujpvrzLVkLjYwKMG5ca4MNiCY2TcWbcq4Tpw316U+2D7Xjrn7uJD71nuuKe7m7JtzZoCBOfvc608++UQj3LN9rjX7pozjre8+s22EN9eGc/evKcKdKPPEHdjTOeyGYRiG0dCYIDcMwzACDRZVrKQIOd+1Gdd15k1j/aQc4etbSpkvjQhjPWKOwGRYkBGjfB/rOEHKcGdGqPE7grYRuR33b0Q82+D3CGd+w5xlgoXhfo6g5/v8zQcXb6y3bI/fIX59izlinP0iWhHQfB+rPUHR/DnePv7cdP7lHPmwjBhHBIO/f7bBwAH74jscN+eEyCeAG8HkuFacK8fEOXTu3FmvG8KW73OMnCvXAOHM+TJvm/Pke+yH68rf7Jfvs23Ok2Pk+5w758F+6oPfIbr9a8Pv+A3XhHvCMts98cQT9Zw4Z46P9dwX7t8JJ5ygx7Kr+8z5sV2Oj20A+2U73DsGEgzDMAyjMUiI+H5ihmEYhtHEIRI61vDLL7/cWxM+sBQTAI+514hVLO3Mt/bTmh1I6IJg5cai/c1vftNbu/9hgIE59pwzgyeGYRiG0VjYHHLDMAzDaEJgRcZKjAA+7bTT5O6779Z0ZrFz0A8UWM7xFMDTgCkABwpc1Zl+cKAHIAzDMAyjLmYhNwzDMAzDMAzDMIxGwCzkhmEYhmEYhmEYhtEImCA3DMMwDMMwDMMwjEbABLlhGIZhGIZhGIZhNAImyA3DMAzDMAzDMAyjETBBbhiGYRiGYRiGYRiNgAlywzAMwzAMwzAMw2gETJAbhmEYhmEYhmEYRiNggtwwDMMwDMMwDMMwGgET5IZhGIZhGIZhGIbRCJggNwzDMAzDMAzDMIxGwAS5YRiGYRiGYRiGYTQCJsgNwzAMwzAMwzAMoxFIiDi8vw84q1atko8++kiWLVsmxcXFkpWVJb169ZJx48ZJ165dJSEhwfumYRiGYRiGYRiGYYSLRhHkn332mfzjH/+QZ555RiorK6WmpkY4DAR4UlKSJCcny8knnyw/+clPZOjQod6vDMMwDMMwDMMwDCM8HFBBXlZWJg888IDccMMNUlBQIN27d5cTTzxRRowYIbm5ubJ161YV688995xaz+HGG2+USy+9VNLT03XZMAzDMAzDMAzDMMLAARPk27Ztk3/961/yz3/+U1q3bi0/+MEP5OKLL5bExK9OY6+oqJCHHnpIbrrpJhXp3//+9+XKK6+UnJwc7xuGYRiGYRiGYRiGEWwOiCBHYD/22GPy61//WoYNGya//OUv1SqOe/qumDlzpvzqV7+SOXPmqPv6RRddpPPMDcMwDMMwDMMwDCPoHBBBPnfuXDnnnHOkWbNm8te//lWDtu1JwLba2lr59NNP5cc//rGUlpbK7bffrr81DMMwDMMwDMMwjKBzQNKePfnkk7Jx40Y5++yz1TK+p9HTcWfHon7JJZdIfn6+vPrqq1JUVOSVGoZhGIZhGIZhGEZwOSCC/MEHH5SePXvKKaecstfB2dLS0mTChAkqzF9//XXZvHmzV2IYhmEYhmEYhmEYwWW/C/IFCxbImjVrZOTIkdKtWzdv7d6BmOf3s2bNksLCQm+tYRiGYRiGYRiGYQSX/S7I582bJ6mpqdK3b996I6rvCQR/69Spk1rXV65cqXnLDcMwDMMwDMMwDCPI7HdBTtoyhHh2dra35uuRkZGhwr64uFgOUKY2wzAMwzAMwzAMw9hv7HdBTpoyoqUTJX1fIHVaVVWVCvM9DQpnGIZhGIZhGIZhGPHKfhfkuKpXVlbKihUrvDV7D0J8w4YNUl1dLR06dPjaru+GYRiGYRiGYRiGES/sd2Xbr18/adu2rcyePVtF9deBlGnMRScoXLt27cxCbhiGYRiGYRiGYQSe/S7IMzMz5cQTT5RFixbJ1KlTvbV7x/z58+XDDz+Uww47TFq3bu2tNQzDMAzDMAzDMIzgckB8v7///e9rZPQHHnhA06DtDWvXrpX//ve/mo/8uOOOk9zcXK/EMAzDMAzDMAzDMIJLQuQAhCwvKSmRm2++WW644Qb59re/Lb///e91Lvju4He/+MUv5Pbbb5fLL79cf7+v0drDQ0QikRoprdog5dUbvXVGmEmUFGmW2kVSk1tKgvvPMAzDMAzDMIxgc0AEOaxZs0auv/56efTRR9WF/Ve/+pV0795dmjdv7n0jCodDarPCwkK59tpr5bHHHpMTTjhB/vjHP0qfPn28bzVtyqu2yPL8h2TJ/GlSWVYpke3mNdAkSKqWxObbpXlOSxnY72zpkHuIJCdmeoXBIiK1UhupktraCoaWvLVGmEmQRElKTJPEhBRdCjMRqdF3WU1tidZuntOaSLkOonIdkhMzpHpHWTP3LFS4z+7KEnQ71bXFMWWV7lNdT1mGW++eL78sKUuqa4piyqq1HFKSmrsyfhdxZelufU29ZUmujOP/oizb22a0TCK17hwrtSzVlVX5ZQlpbo27FntU1sKVbY8pE1dWof9+uSzVrUnYeVlComtb3PXWsi/2l+jKEnZaluLKknaUxZ47ZYkJye5+ltVTlqzlXFOuA/cw3qH95X5V6/nU7jj3Gnfu/nNao21ztIxz5LtfLYue+xdlqa6sypXV1F/m6g51KFqW6spKtSzRlUW0vu6sjPrq3n+7LUtzZSWuzJW64/yiLMl90ndaluTKqvwyt33//cQ1Sd5lWYYrK97D37lSV8+/WkZ7SD3fhzK9vtF244uy6PMRLeO5rnDr090nWX8XZLh3XOsv10nXF95R776oI1rmrlF99Y6yaBtKGXWE+kNZgle2+/rDfaH+7Kzsy/fMlblj1Doirszds3rrz9cu4/3RrE6ZV+++Uvbl+rN3ZV/UrV2XcZycu1vrylhXtwz4Hdfqi/Ynw/1dqsdOGfdN75+7tpSHlQMmyGHp0qVqKX/uueckJydHTj75ZDnyyCPV6p2c7Br86mrJz8+XadOmqRBHmE+ePFmF/IABA7ytNG0qa7bKp0v+T5a+lS8bnxohZcvbeCVGUyApq0Iy+22QdifNllGTj5N+nS7wSoJDVXWRbC1bINuKVsrWLRulpjrawTfCTXJKquS07ijZmd2kRbO+KobCBu3z9uKVUrq9VMo2pMvWlHfc2lrJqZwkxckzpTpxqyRGsiS7apxsTX1Ly1pUTpTS5DlSlVjgyjKkRdWhUpj6hpZlVx4iZcmLXFmee1mn6XYK016LllWNl/KkZVKZuMmVpUhu5RQpSHtFy5q77VckrXJlG1zvNUlaVR4nW9Je9MoOcuvXu/J1blmkVcVJUpD6gkQSaiSrapTuqyJpjSuJSOuKU2VL6nNe2Qh3/IVun6uiZeXfcNt8Rssyq4dJTUKRKyObSkTalJ8h+WlPeWVD3F7LpMwdqztQV3aWK3tCy5pVD3LfrnZli7Wsbfk5kpf2mFfW320rQUqTFnpl50peuiuTKsmo7uu6ZalSkjzffafWbfMcyU9323Rl6dW9XZe1mSub65W5/aW7Y6GspqckR7LdvZitZa3LT5ct6c9qWVpNd0mpbSnFKbO8stNc2fNeWRdJrW0nRSmfaVmrilPcfXjJ/VUpqTUdJD2hs0RaLZfWLftLq6yRrkPJgEH8UV1TJsXla6V4a4GUbUqRrfKJ1CaU6Pml1LZ15z5DkiLN3bUf4OrkfHdPi11ZZ1fW3pV96pX1d/dkkdQkbnfXpKOWF6V84soy3X3pr3WSep5a28GVdXNlH7l63Uy3Sf2odvWca8l92p76vlfW39W51a7u5etxNHP3d1vqe/o8RMvWubLNXll/V/ZutKymn1S4Ol7lnoGU2jaubJArm+rK0iXDlVUlbJbKpA1aRj3kmYuW9XVlW1zZOkmubSVZ1cNd2Zv6jGXU9HHnvdXtc62WNa8a6e71664s1Ssr0mNNdnWlefUY96y+6pX1dtey1J3jSq9stCt7zZWleGUVrmy5K8t1ZaP0GaeMOimuvpclLdWyrOqR3rEke2URV7ZEkmpz3O8oeytaVttdn23aB+o0z+7W1Ld1XYYr45hKkxe4+5LtfjdCKnJnSMs23aRN1mhJSw5mLKbyyjwpKnP1d7O7zgUJrv58qPWHe1vm6iT1jjqSUd3Hq1sZXtlSrXfROkL9meaVDdL7Fa13rb36847WEf6O1sk8rQdZ1UP1+ia6OtKseqArW6/1Ltndl+g9476kuW32d+1rtN5pWdUY2erVH/ZdlejXO3c/q8a6uhWtP82q++nx0/Ym17ZwZeNd2cuujPrTV59F2nTKsqsmuLb+Ja+sT0y9y3Zlh7qyF70yV+9cG1WevEyfXd4n0W1G6xZCvjx5qStz7yQte8WVJbm65epdJFHrlpZVubJU927RutVDtx2tW5l6LNRzytJru+l1LU2e55W5c0h9XbdFGdsqce86ynhHbU1x9dWRXtvFrWvhyma7f5tp2baUd/X40mo7SVpiW0lss8a1r0Mkt9lAJ9Djs33dVw6oIAcirb/00ksqymfNmiWbN2+Wzp07a37xsrIyjajOPPHBgwfLKaecoh+itBuuTkuNLNtyv3zy2Cey9M/jJVJrbstNlfROhdLje7Pk+DN+LZmpXby18U9l1XZZsvwFWTDjPSlckCTla9pIpCr4I/bG7klMr5T0LoXSckipDJk4XrrlnupEeY5XGg7mzX1KZr7xjhQvzZHts7pJereNaEopX95BUjtskcSMSolUJkvFmraS3nN9tGxFe0ltVyiJzSrcs+CeiZXtJaO3E8uurGJVO0lpvU0SM8slUu3K3HYy+lAWkYrVbSW5ZZEkZZWJU0dStrSTZPRdGy1zz1VyTrEkNXdlkQQpW+Tesf2iZZVrW+v6pOwS3Ufpgq7SrJ8T4ImubF1rt68ySW7hlc3vJs36r46WrW/ljr9Ct6tl87pLswFOnFO2saUkplZJcm5RtGxuD2k2cKWWVW3KlYTkGnes27WsZE4PyRzklW1299/9m9JqW7Ts856SOcSJesryWuixp7TZ6pX1kszBriypVqrzsyVSkyQpbQujZbPd79gmZVtcmWtTUtw15Xx1fwPdcVJW0FxqK1IktX20rHQu5+DOj7KtWVJbmubuU0G0bB7n7q6LK6vZlik1xRmS2nFLtIzrwjWjrCjD/S5dsoatlJw+1XLo5MukY58eXo2IH2pramX96rky8+PHZf1HNVI0p6u77tslIbVaara68ytJl9ROWyTirg/3JaXtVklIq/ri3DvlR8vcfaFOJqS7su3NpHp7pqR1ztN6XZWXI8lumzzrXBeuaVqXmDJXX6lDWubuRVq3zdGy/BZar3gGaorT3T1s4co26fOgv3P1kWeg1pVV5edIWveN0TL3O63L7hmgrDIvV9J7bNCyaleW6NZTXuvOrdLVw/Sersw9R9Qf9pWUXar3vHJDK0nvtd6VJeq+Of4kt08tW99a0t3zGHHPGHWL68WxUlbhnhd9Hl1ZFWUprizXlZWlurI20eeYMneuCa6ucP7RMve73u7598tcfee6Uab7c8fiVJaWQUprV1ZOmTtOdw6UVRc2lwjPh7sXkfIUqeB3fpm77vp8uGeHMp7P5iNWSVa/Ahky6lgZNPooSU6JWkGDQkVphcyd/7DMe2embPu8jbaTaV1d/aEeuPNLbuPaSXfftI7E1h9335NbResd9YD6m9bdK9vsylybRV2oLUnT5bQerm65OlK1ydW7HK/eUQ/cPqL1x90z9z3qjta7mHumZa6+sl7rXey9dmWVbt9JmV69o2ytqyNe/dEy937Qesf9XN0u2p5TR1x9TUjz6h1l7r2g7XndevelMld/KEuO1jue3XLK2CZ1hLrl2k7qXaQi2Stzx+KVRVyh1i33fGoZx6n1ztWt2kRXt+opo965a0fbQRnvqHTO3dXTatfGRCpTtF3WMveO0vrqqNmWJTWufqe2L4iWueuS7p5x2toa176wzeYjl0n7Aa1k3KTzpXXHrhLGbFsHXJD7YC2fM2eORl+fO3euPPvssyrCcWfv37+/DBkyxFzU64Br3fTl18sHl3eRksXtvLVGU6XdNz6VSVcMl36dg2Elx4Vr5ZrX5P0nXpV1T/dxL7gW2skxmhCu45nZe5N0PWe5jDnxEOmSc7K6vAUdXO1Wr50mb/5hkWz6yAmK7RleidGUSM4plUEX1Mr4b42UtrljvLXxwaa8mfLBPbNkyUslUr7O2t6mSFKzaul0aJUc/quO0rXDJHUNDgIV1Vtk8YwZ8uFdC2Tz+y2kpixYgwnGvsOAVlqrahn981IZe+yJkpXe1SsJD43WIvfu3VtOPfVU+clPfiKXXHKJuq2PHz9eg7eddtppJsbroaq2SKq3pbrOXvA7sMa+U74mVwqK9i5rQWNSXVMi8+c9J2sf7ycV63KtQ9gUqU2QkiXtZM2TXWXZZ/OlpHydVxBsCormyOz33nJiPMPEeBOmemszWfpKkcxbf5u3Jl6IyLyl98vyt7dK2Wpre5sqNaXJsmlOhcx970MpLFrsrY1/Nm2d7o75Pcn7uLmJ8SYKbVb55lRZ+OoGWbj8UW9tuGj0Vpm541lZWZKUlCSpqam6bNQPQQ0iNQm8Ww1DakoIVlLmLcU/ZVUbpaigUCo3tfDWGE2SSILWgS1LKqS8osBbGWwKixdL3qwkqa2w91dTp3RpO9m2koBTxd6axoegToXFC6VkeStvjdFUqSrIlLwZGVJaUuitiX9KqldK/rxEqS4J59xhY8/Z9klXyVtLHJPwYcOkhmEcEMoqN0nt9nDNGTa+HjrHs4zIsNHo2kEnoTpdKjfn6hxCo2mjlpxpR7i/4qcuEI06srGnPndG04Z5xrVre0liUSdvTXxD7KRIabZEipurh5XRtKnamimJKw/xlsKF9R4MwzhARPR/hgGELwlLdUir6C0JxW0t0KahpB3xjJRUEqk+PkhJbC4Jq0d4S0ZThrm4VW0/k4pW07018Q1pvpIKXftaahmFjCilw//u/RUuTJAbhmEYxj5QnPmBRFov086uYUhVmpDvPF4or8mXyPDnvSWjqZNQm+w+wZiLTTDY6k4fSm3OSm+N0aRJcP+rDmccLRPkhmEYhrEPJNZmiNTQwTULuSFSvXSgpCbFT6yMBEl2qjzLWzKaMnjxJJZ0lKSyYLisJ/BfdboOIhgGbnUpGw72FsKFCXLDMAzD2AfUZb3IXNaNKAnppRqENV5IScwUWTPcWzKaNK6JiiRW6icQJCRKIi7rJeaybkSJpG73/goX+5SHPC8vT/7whz/Itm3bvDVfj/z8fHnrrbekV69eMnz4cI24/nVJTEyU//73v95SuGBO2qczb5MPr+wuFZuae2uNpkrWoLUy9o/r5ZCBf/PWxDcbt70jbz74kCy95TBvjdFUSckpla7nLpTJF54iHVse6q0NLotXPSlv/nql5L3vRLmllGryDL3zCZl8yE3SIr2ft6ZxqazZKs89dJ3M+/U4b43RVGFaTZvj58pRvxomvVp/01sbvzCwtXD5Y/L6NRuk8NN23lqjyZLg2teHb5NTD/rAWxEe9kmQL1++XCZOnCgbNmzw1nx9ampqVEwnJOybhYG0aeXl5d5SuDBBbsRigtwIKmET5PPX3SFT/2+T5L/VUyLVFsm6qTP4xnfl6FOvkazU7t6axqWserO8+MqlMu9HZ3hrjKZKQmJE2h69Uo7+1Qjp0eF4b238whzyBZtukzd+sk22ftDLW2s0ZUb85wU56YiHvaXwsE9D+d26dZPPP/9cNm7cuE+fV155RTp27CiXX365rFy5st7v7Oln3bp13tEZhmEYxv4nubpNdI5uxFzWDZGqWQdLenL8uNgmSqpIYWdvyWjKMK2GqOUpRX28NfENRrqE0taSUJnprTGaOqnLT/D+Chf7JMhxLW/ZsqW0bt16nz45OTm6rYyMDGnVqlW939nTD783DMMwjANFekU/SSjqYHPIDSVt8rNSUrnWW2p8UpOyJWHlaG/JaMrgsl7ddqZUtPzUWxPfkPYsucC1ryVtvTVGU6ds2G3eX+HCJrsZhhFXNMtNkw6DWkqn4a2/+AxrJa16NJfktCTJapMh7QbkSkZOmveL3ZOUkii5XbLcNrL174Ykq22GO95cyWqd7q2JkpTq9tk1S9r0aSFt++VIO/epC+fafmCuZHc4cGk8UjKS9Vi+dH35DG2lx8F15pgyWqTqsXMODX3NwkZx5nsSabPE0p4ZUapT4yztWZ5ERj7jLRlNnYRIkvsEI2o5LutVnd+X2twV3hqjSZPg/lfz5b5WWLBelmEYcUXvwzrIGbcdKodfMUTGXtBPP4d8f5Cc8Pux0uuQDjLijJ5y5j8PkZ7j23u/2D2ZLdPl0B8MkqOuHSnN3N8NSa9Do8c7+ry+3pooiP9jrx8tx1w3Soaf3lOGnPzV+aS9J3aUs++cKKO/eeDcB1v3zJbTbp0gp/1l/I7ry2fM+X2ly8g20mdSJ3eNe0nb/rly8h/HycTLh0hW6wzv10Z9JNa6OlVDB9cs5IbT48sGSEpinKU9qzCXX4MgaV7as9KgpD1zVKdZ2jMjiqY9C2dwShPkhmHEHWXbKuWtP38uT131vn5e+b8Zun7AsV0ls3W6JCQlSO9JHVUsItZ7HPxF9NUeTqizjjKEJlbeDkNaun9z1Po76Liu+nus7v73DvpWP8npFO2wtunbQg75XnT9hO8OlI5Ddz0NZsUHG2XLyiIdIPC3AQjfnC5ZsvitdZK/dLtsXVui61t0zJSDLx6g2+85ob0kp0ab4cRkd0xuXxMuHahl478zQD0BiHOZmJwo3ca21UEFykaf22eHhwDn5p/HwZcM0IGAPYHj9q8vn2d++qHMe3GVO85iKVxdLNXlX07blNM5012nvnKY28+hPxws/Y6MzknFY2H4N3rKYZcN1mMY5v5uaqRV9pKE4rYi5rJuQHKV+7/48ZZITmwmsmaYt2Q0aZygiYhr2xPiJy3fLklIkqStrn0tbe2tMJo6kaQK769wYYLcMIy4p6aiRoo2lkpyeqK6T6c2S1EX9G0bSlQYjnfCuV3/HBW4E380WEX41vUlaplG2Ga2SpeqsmqpciKzpKBcOg9vLUf8bLh0Hd1Gqty2+x/dWUVm5xGt5fAfDZV+UzpLyZZy6TCwpQpktrcztm8olVUfb3biO1N6HdZR12XkpKqQryiuklWfbJaBx3VVCzQu6odfNdR9r4O6jrdyoj3FnQt0GtpaRa0e+7oSJ8DbOQE+WMV4j/HtZNKVQ6VN3xz6UzLstJ4qztv1z9X13Z1YL99e6f5tp4MIzdt9fRf4Acd0lfFO2LeIcaPn3MZ/Z6D0P6qLni/u+VyXwSd2kyEndZdR3+wj1e46Jqcn6fr6vAHCTHVSgUhqies8fu2kJUaISO49Xypr9i0dbENSG6l0D/F6b8loyhBlvTZrvVQ3i58YB7smIpH0AomkRAe0DaOqw4feX+HCBLlhGHFNQmKCznFGfOYt2eZEeKmK67nPr5LPn1why6ZtkNzOWeo6jlBFsb7/7/mubLl8/vQKFd/M88byi5hc+dFmGXVOb8l2ovXjexfLJ/cuknkvrpYuI1vLwGO7SschLaVoc6l89uhSee2mz2Ta7XOlaFOZdzT1s/rTPKksrlbhDAwWdB3VRtZ/vkWKN3u/TRDpe0Qn6er2s/C1tfLeHfPUIl3pRDsMdsI2rXmKfPrQEvn8qeUy64ll0qZ3tow8s5ceb1Jqkky/f7F8dNcCtbozaNDffdo5kV6wqlh/98oNn7pzWuTE+e5HkPtN6SIXPX6Ufi58dIpM+cUIyW5fv5DvOrqt3oNpt82VWU8ukw//u0CK8sr0ejMYwD3Sc/rXPHnmJx/I2s/yvV82DapSNkgkwwkwE+SGo7agjSQl7HmMi/1NTcS1B61WektGkyaSIAlVzSWxas88qRqbSKRWarM2SiStyFtjNHWSirp4f4ULE+SGYcQdWW3S5bx7J8vVH58mP/7wNDnpj+PUGj7/pTXqSl1bXStlhVHRWVniBK0Tu4jJFp2aqej2RfCi19dKdWWtpGV+ef5Z2z45TnSXqds2lt2ta4qlsqxGrcxYtPsc3kl+9M7JMvGyIVK2tVLX74q1M/Nl2XsbVJxiRe46qq2kZaXIyo83SckWXxwnSPsBuXo82925lBdVyuZFW92/7vidjms/IEc6j2gj5/zncD3vE/8wTlp2by7ZHTOlVfdsdSNfNytfKkurnQAvctcgIiXuGqydtUU9AS5740QZeXZvPfcqdy67Y7k73sd+ME0/j182TabdMU+KnciuD9zSW3bLktP/cahc/dFpcsnTx0jvwzqqEN/kzgHL/8VPHi0XPjzFrUuUQnc9mxLJ1a1FKiztmRGlatY4SU+Jp7RnKSJbgzFn2Ni/aNqzrb0ClvaslaU9M3aQusLSnhmGYRwQivPK5YEL3pI/j33KfZ6Um0c9IQ9dPFXylmz1vlE/vLxjbZS1tTuxWHq6KeKXR/g3IrU1EXn+mo/lTyOfkCVvrZPBJ3eX7zxzjFqi/d/UBwMEy524x728z+EdpePwVpK3bJtsWrjVbTq6D37OfHDw1/FPxDtijmWVE/D3nPW6nvefRj4uvx/wiLx586zoebkvez+L/lCPt1Yev3ya/GPyc7JmZr6M/XY/ufT5Y9XKvzvwMkCARz/lUr6tUs+/Xtxx4yVw1+mv6rHdctCTcuOQR/UeMdf/74c/K2/dMkuy2mXItx85Ur7x1wkq1psKGeUDJWFbR0t7Zihpk56Ps7RnLSRheTgDIRl7h6Y9azNLKlpG47LEO5r2bMsgSSje8yCuRrgpG3qH91e4MEFuGEYoKN5Srtbx5k4UNmsZdRftN7mzBk2razHesny7NG+TLt3HtdP0ZFihU5slq7Bu1StbMlulyYvXT5cHL3xbtq0v0QBw6c1TvV/XD9b4NZ/lS/eD26klfPX0PLVk+yC8NzqBnpiUoNZ89odLenpWigre/GXbpZnbb3aHaERzrM5terfQ+egFq4vUDZ556czTzukcTUVWWxXR7yDYn7ryfXn6xx+oNb/rmLZ6Xg1FSX65/tv38E4qtAlAh/WeYyLYG3/Pemq53DLmSVkydb2mSmNOf1OhKOtdibRdbGnPjCg1Ke6Rjp/ulaY9G/Wkt7RzaDNadMrUwJMMLvqQbrKVe8ZpW2PXf11Ir0ibwXa/DrR9tIFMYyLwJR+OGWhfOU7apt1tn+8Rx6MhoV1v7d4h/nERE4QUkpCenaplzdvue9YKrkGLju46dtv76xi4tGdd3pXalsu8NUaTxvWVEmriZzpQQ2KC3DCMULB1TYnMfmaFpLjOyfhLB8qAY7rI8DN6ytpZ+bL0nfUauR1x2+2gtvLpw0uktLBCo4aPPLO3DD6xu6yfUyDrZm3RNGWn/XWCDDi6i85Lx5KMyCSQWd/JnXY6zxrmv7hKmuWkqVv5xvkF3lqPiMhCRPuMPOk/pYtGRCeAGq7tMOe5lVJZUi0jTu+l+5589TA5/ndjpMPgljqfnRfR6G/2ljHn9dX540vf2SCbFhTKSTeNlRN+f5D+hgjzWLKXvL1O2g9sqcfvdwb3hdWfbpYN8wr0enJdh57cQ1Oika6NSPan//0QGeGuI8dAdHmObeP8Qu/X4Seh1nUQLO2Z4VG9vL+kJMXPHF2sjFK5+0CPZImYcs0IOeInw1w79kW7gXg+7W8TZMKlg7QN3VcmXTlMvnHrhD3OCBELAwIE7zzBtY3HXD9KJv5oiJxy88E6rYk4F2SfmPC9QXLcb8doVo1dQQDKM2871Fvad3g3EODy1L+M17Sdk388VL2FyILBIATt8TfvOlzGXtjP+8XXh2wjk348TNt/BkD3lGjas/aSVBYNQBrvaIuqac++3uCNETJcPyp541hvIVwk/cbh/d1orF+/Xh599FEZOnSoTJw4UVJSoh1U48tU1WyX9Runy9pXcqSmJJwjRMaek9p2u3SeUiRd2xzrrYlviitWyYo5c6Tgg27emvqhw4WVd/3sAo1SXpckV15SEJ07XbylTL9fml8h6z7PV6s0c8PpNNK53DC3QGY8vFRdxxG7vN3TmqXIvBdWSd7y7WqxwBKdt3ibTH9gsWx0Anf7RrfNpAS1FOEmvuAVJ6Jn5kvr3i3kqGtGagR0vl8feUu3qdv3qk82OeGdr1HdAas2qc+Ys77Z/TbddRrTspJVtG6YU6AinWNn3xwT+64qrZGZjy/TIHRbVxfLNrdfcqgT+I1r8/H/Fuq8cqzXyWnJOn+ec5zrhP3mRds0+vk41/HjOGKD0mHhxtV9w7xCd0xfPQ88Ctjums/y3PWv1mvC8W1ZxrlFA9ZxHKs+2iQzn1juzmer1FTVSgvXGc3u2EzWuPMgmF59984nKb1KWgzNlx4j+kvzjF3XhyBQnL9dlr1SJqXrnFixeeRNnjbjt0jfUQc5Ub7nQmn/kiAL31gpeR/tOjc6bSGDehHXhhEsk4FFQPwxbWf7+lIdnOtxcPtogMpRbdTCXOraY553LM4MMvY6pL10cWXNWqWrNxJWYTJLMBhKnI32A3N14HTRm+t0n4NP6O7K2qknUkVJlW5vZ6S79m/S1cO0HXv9xpmuHVwkmxcWypBTekg3t088pTi27A6ZOghLG8cxEfOCY+o4tKXG3yCLBAOxePgQh4TjIEsFbTbxSfibY+ZYeKKHnd5LeoxrL51GtFLrNLE6dkx5cjDwSTpKMmrMeny5vH7TTPfuWKPTptiPejS5/XYd08b9Di+BTM3qkena0pL8Mo0tQgBSfk8QzQ6Dc6XGrSt27bteVwaID+mg55DZOkPfc9wr3hdL3l6v7zv2Q4aN+tr1WJr3KJPeE9tLTosAtL3u4hesLpTlr1ZK2aZ9Hwwygk+nYzZJ3/5TvKXwYII8QJggN2IJqyBnTjOW6p0JOlzIEYi+GzVClWXmQUPByiInfDfJ8vc2avRzgrLB9o3R9GSsYwo2ncvY7zGHGgjwtuL9jbqe8nzXoURwZrfP0A4T0cz979aFjhbHgtD2xTgwMEDgN/ADx7F9XNxXumMiSjqdO1zcEe3RfW+M5i53x0oZItkvI4q574a/ZUWRLPeOd+WHmzSgGoMCHQa11Dnds5xoxsrvQ+eTY9lZp40Bg1XTN2vat3Wfb9HI9gS+4/r6x83+OCe2y/XleHS9+3BOuxLjEDZBnr99tiyflielazNMkBvS4dtTpWuXQyQ9OT5yJ9fUlsmihS9J3rsdvDX1syeCHI+ecRf11/attKBcPYxw067YXiUjzuylMTQYmGTgbogTiLTnuJNjyUYE5y3drtZ32mDamYMv7i9tekVTPeJ9Qxu7fvaWnQbSZF+kVSRt5MqPNmm7zlQl2kcGBzmuTkNaSYr7Hu1Sx2GtdR/Fm8pcO16jmSGwzPM7phYhbpdOXa9CfeRZvfTYafPGfKuvjDqnj74bGNwccHRXPcZ2/XKcuO8gha7NJuOHD1N0yIbB+X18z0KpcteOdrhgZbG267TLiOfuTtRntEjTgQ2mN/Wd1Em2LC9SN/bDLh+iU6PICML1ZuCCdpi/h57aQwdauZYcD20yFnm2SRs89tv9pW3fHH0HxE6VqktCUkQyBi+THkdkSMtmQ7y18UxE8rfNlGVTC6R8gwV2M0RaX/iEDOh0sbcUHsxl3TAMYw8oXF2iVg86YkFg6bsb5M0/ztIOnbF/qUpZJ5GMra63+4XFzGi61Ba2jqu0Z9UR1wa0bZg5uB0GORHbMk2WufaFNIwvXjddFr66Rlr3aaFW5ekPLNH1026fJ4VOWJIBApd34lwwYPfZw0s0EOQbf5ypnkgIXETwrCeXywu//EQ+vHuhE5g7t5CTleLTB5fo4MHx/3eQnH//Eep2jiglFSaDuXnLtuvgAYOjZJMgUOe7t82Vzx5dpoOMuHgzoLtlxXbd19znV6o3UH1w3MQaKdtWIfPc9t/40yx55+9zpGD1l98DHA/imIGB6oovYkmQTYM0lQzuqpdWbUTWODHOOUy/b7GkZqWo1ZtpQFyPd/85R8tI3Znbtbm6wDNVCq+oGY8skXfdvl/5vxk7vLSS05N16hD35MVffaLTs3aJpj3LClbas+brJZK23VtjNHWSijt7f4ULE+SGYRh7QNGmUrXcBAU6m7ibG/uf5OpWIhWZZh03lKrPx0p6SnxYxyGa9qxh5gyvdYK2urJG5y5/94XjdJ42qQ+xnBNg7NjfjJbL3z5ZLn7qaHX5JsAmopNpMnjOYBlHtDKNCLdvxPjIc3rLd549RgYd301WT98cTQW5Ewi8ueiNtXLfeW/Ko997Rz2meh/eSc75z0Qn0Md43/oCUkti5SbOBvvAJXxvAtMxbQmPoC4j28j5Dxwhk64aqu7idVNEIqZxo8fNXE9yJ7C9koJy9XrCHZ5/8UDI7ZalLuwMMPxo6sly8s0H60AG15RrS9BPgniWbq3QgQYCfULbvi2kbf+cqDfTTryeYtmR9qy4l7cmvmFAJKGspSRU7T4GgtE0SF1xnPdXuDBB3pRxfUeigJ5//2T51aJz5Pol39R/D79yqDaCDQWj5j96+yQZ/52B3pqGh4irp/1lvFw7/2w9Dz4EeuEFyfy1c/47Ub559yQNzLWndB3dRi58ZIoc8r1BkpaZImffOVEufOwo7WAQTOaix49S9zrDMJo2GeVDJGFbZ+3sGkbaxBelpHKdt9T4pCblSMKSQ7ylnbNDR9ZTjaOrnDidtkFuP/pFeeyH03Te9Cm3HCwXPHSEdPDcqx++eKr87bBn5G+HPiN/HPa4/O/sN2Tj3DoBLj1wAX/qqg/k7tNfk/wl2zT42TVzzpT+R3XxvlEP7kBwBS/eXKpTep77+Ufyh0GPyPyXV0u/IzvrIEAsBHejX9NtTFt565bPZdYTy9R1fU9hGhIWcVJLznl2hc5H/8FrJ8jB3xnwpetUUVLtxHiNZLVJ/4rgpx/CZ2ckuK9TjhWda8v1u3X805ru85N7F7nCBBXu9cl8jfcxPU/Pm+kGuyOa9uxzqcid6a2JbzTtWZ7rkxYFIwidsf8pG3Kn91e4MEHeRElIStBIpSffNE4qiqr1ZXNDn4c0lzDzqI742XB1v2KOEmKXlCcEmmIUmHXMweLD36wDRCuuYH4Z309167LaZEhiSqIG2kp3L/Dk1CSNOMrIum7D/V0fKelJX9peTpcsnTcWCy8xUkExWk/qqv+c/LKex2OXTVM3s5Pc+TGXDDRVitsG22J+m78tjpFlfz/8zbk3y03XYFy4oum5uO0QiIbfvf+v+fLkFe+rBZLzo5yRbP84UzOj2yYAV66ub67nQuAVBgX8a2bsGVyvrLYZeh39+8RyQ0I9oK4z4ML9px5w/xoaUtQQSMg/D/9D/fAjrjck0fQ4mWqF2Vm9o75SNznvBhyLazIUZU2VSNtFByztmabqc20v9zR28JQ2k7aINmtXAiAWvked53d129dYqEcEl9KUTXtRR6jTse04Hyx/bItt7g2x7x/a25bdsiSzVbqerz4/++F5/VrUJrtLFD8PUnnNZomMecxb2jlYsEs2l+s1zchJ0/tM/WAZ12gs4Yhh2smN8wrk75OeU9dqvsu7MlJTq/0K2jiqJXPGuc+8/+uD71HvcBt/+NJ35JmffKDrd5Uysc/ETvL9l4+XiVcM/VJ9Veu7E62xbWibPjnqEr/AifU/H/yUzlmnvD6DA8fOeoKGclwp7nzVOuvK6KMkuX7L1L/O1lSYuIu365f7pTvM4ADzx9sPaqntu3/tyJJBZPUz/nGI9qPqA3d7XOy5VrieA3WZ7RDsjVgd1O+kZHc8bru01dwTUJf7F1apOzzWe9rw3ZEQSXSfYEQt17RnXadKbcul3pqvD3212HaID9eVd//u0LbH1QN9LnYBddJ/39ZTzfYr1NvYvqx6V3htovY7XJmfEjaw8FzVhjO4nwV1CxANGdQtyzXmYy/sr2J16q2fawRoIPVTUop7GbmHl/RNWMvHnNdH5zgReIWAKUf/apQMPKaLDDq+q/Q7opPkLyuS6rIaDfRCmo/OI9tocBOCp1SXV+uIMm5VvAjL3YsH16wjfjpc+kzqpC5qBH7BBSs2siqNCL9njhiCe+jJ3WX0eX2lsqhK3bKIVgrkcB5xRi9p6166b986W9bNigbOIkgKQU8YBMCFjP2Tr5kor4y+k+4KlzOiWnN+k388THo4Ac8+x367nz70nYa1li6j2+iLjw5Il5GtteOX6YQ6UVxHnt1b004RiOWQ7w30oqC2l9Hn9tWRcrZ90Lf6yTHuenUc0krngo08q7c2mBpBvGTXga92R1iDutWFThHX/sifj4hG0h3bTq8jKWSI4BsbQXxfoF6c+ueDNagOliIi5uI62dBzxumg0TkbeGxXfa56T+yon/GXDNCX5qYFW7XuNhQMAI3/zgAnpJrJlpXuuYgJNudDdOPR7jnguWLeJ0Gd9iehC+q2bY6snFoipauckDgAVvK2fVqoa3DHwa1kxYcbNegg4FZ7yi3jJcN1yomivyf1iIHUCd8dKIf9cLC6xRJ8qj5ot469brRGesZleE/ryKDjuqm3UveD22sQK+p6/6M6y4ApXaTItZE8v4i8PYFO7mm3TpARZ0XbfKJ9pzZLUsvg8b8drW16PKTbazUwIgNGHxo3UdZrastl8YLXJe+1vt6a+iEQGfCebOk69MC7k+BmiMYFr6zWgW7qHsKPdzrvvXz3vp399HL3vk3Xdpl3OWKAvkK2a3cQyrR7vPeol/79Jkc3Fmy86DASDHBtcFJKgnx0zyINulYfBJekLSOwGuKIgXKE7rBv9NRo48xfb9s/V58RxCrv7Bwnuqhn1MU+kzpq+46lHwFMekjqfWJSoh6j5mLvGN0+74JFr6/VNJqj3PseEzXPGM/C50+RYeILF3GC0BGdHc86XOi5XgwGEFAuLStVo8ETJI8BC/owuMEjEOkfEUQUV/2eEzpIJ9ffqXLP7fBTe2qfAfFfWVztrlFb3SYD/Cf+YZw+47wvuA8EGt3mBD3vR64H8+jVdb4+XPOU3TlJ+ozvG4wo61Ireds/lxWvV0j52p0P1OwJ1LWjrh2pUwNoj2iLxrj+Gm0g97K+d6NPprtXp7v3Nv1igpvujO7j2spJN46T1u75IWbCnrZt+wrP4uATusnxNxyk6f/6HdFZ4zdQxwhU26p7tpzz74n6PBCwMch0npAkffsf5S2FBxPkAaJBBbl7SIef3ksjVC9+a71UeHO2eHHyYqAhSc1K1gigpN146sr3Vawf7Rqz7etL5KVff6rBQ7q6FzedeSIrtx+QIwteXStv3jxLt8fLBdH5+ZMr9GXCv2yDl9uGOVvklRtmaL5iXuC4fjPPS4OeOLJaZ2ijyXZf/vV0bSzpCCCO+Z5/vLyQh7sXMfPKFr62ZkfkbWBfvKDprLIPRrzZJ7mqB7gOIS+yLe5FzKgh0avf/uscTfVEo0bE2FmPL4uOrr+6RgOp0MhVltbI87/8WM+Z9CIEtmE9KbFeun66zHxsmesktota1Gkgj+8my97bIE9f/aEeI6lXmNtLKisT5HsGHaQpPxuhL5LXfv+ZWmSwzjAXsI97oS5+I+oa2nVMW43wS70hFQ/WHEariVDL/WI9g0XcGzpgdK6oT9xvftvRdcaIUsvcRuoY9YZOHJ1G6ifimc4Y1hvS6ZS7OoIFo6978TFIwG/buY4gFjwive8MyhEQH7tOJ4GN5jy7Uj90DOmsMThGlNxOw1tJv8md9ZiZWoK4oqPLCDf1iO9S9xiNp4PHC5lnhDK9Bq5DwLkkJiaodQd3Uo6XOk0UX8Q3KYQYiKCc+ZwcNxZQBsuY6sH2iNZOOfumc0FqHYQVlqC2rt6zH3K6x0Zy3x1hE+RF+Vtl2atlUrrWtcsHYB45gyw9nTCmHaQN8gU5ljM6mQxUUUY9o37gzsr9os5znwFhzX3m2WDAkLpAu4+lkTqN2KV+UfewvHOf+07uqG0u0bXZB4Ol5MTvPKKNWiMRBXU7tTwT7d2H9vHD/y7Qur7qkzx9frE41bh2sb17pkihxcAbVkXqWX8n9HiuEEksI5iILs0x8/zTLm9dU6J1lnrdcUhLWfHhJs06oKLIXQeeHZ5L3gv+u+VA0GbsVuk35iBJToyfqNAL31wheR/tXtBoRPDVxVpvWrt2lMFolhF9ZFZg/jRijwwOua6M6/35k8s1ojku6Ag+fodoXevepwRSQ0hSLxDk1BH6GcAAAO0KdYpt8U4kTSWRwncGdZ3jqHbtje+9h8cFIundf85VizL7oz1kYBzhW+t+wzFx3DwvCBQGBjSLhSPX1Z/VM/Kk0J07nnEI8TXuHUC7unpGvqtvhSp0qa/Uw0Wvr1Gh7j93Psxnz1+2Td87DAjwPNLH+uS+xbLq403qHUg7znXg+cG1nfq+bvYWrbt63K5f0sqJbuo8zwr1nEEyvkdd5rpyrljFuaZcc/o6RG3n2KjnDJCQTWNnNO9Wqc9HTk5Xb00c4+pTwRrSnlVI2aZ96/fqVAhX9V647hP56O6Fen25BxhXqJP0N+nXYWwi9Rztn9+XwHjU5/BOaiknqj+pS+kf6/eGuT6g+x4DLkzjoO/Ldvm7g2uX+JdnCOhDEKSPtom2l7rPM8fgENv32136wPQVgfrd78gu0X6Ka3OZ4sBgZixdR7XVvPQbXNv42A+maco93sn0jxnAot/RZUwbPX/qPe9s2tze9Jncsfj9Beo57S7nRT+irWvXK907gYE39u/3dyu2uz6Qe8cQ5JEMBJ1df4VBUr5P/Wf79LXoA7N9+hGSkNAgBpROU7ZI3wFHeEvhwQR5gGhIQY6lgQaGDg2pQ/z0JrHwMNHpp/NOWhDENw83HShELB0lrM7Z7TN1jhXboQFgRJiOfMuuzfWFhvjRKKHupcFvsYgjBtoNzNUGiZHEZi1T9YVOQwd0Jnnp8CJkXhmNBgKB0XGiR/uCnBcnlkYs9wwQ8EKrCwIGQc4cL0Q2L03ynvLyWuheqrxYedlhaed4aDjo5NGw9XQdWv4mmBcpWRD15LBmRD9WkGOpRyxSTp5RjktdPJ24meqEPp1gRtBpwGmQTJDvOUnuPjHSSweLTgsdHLwP6NjxwqLO9HD19KDz+uqLKtW9DKinWNbpyDAqrvff1RncDOnU80IiDQ5uj3RMfAsOlpH1c7aohwYWw5qqiA6wYH0BRtLHuP0wr5B6jTcFApUOPx4WeIYwcEBnaWfwYmSf1ClegD50LnlBsn9eiod+f7BuCyHNMbfp1cKdT4kOQow6t492ZKlf1FueXwYORp3dRyKe0B5xZm/tMJZsqdCBNAbheIYYgFjnOoTUQ54rni9SuvHCLXXPTxv3nck/Ge46n5lab3VAw3UC6DQiAqf8YoQ+53QuOX8GKBjA8IXenhA2Qb5l2zxZ/u6BS3u2J4Kcdo9UUww0IQK4T3T2EFCkeJr046FqYaPu9HPtM9ugvaXNo44TDCstM1nGnN9XrZ20sXS26CDj0ZTh6uahPxykAob2fKCrPxwX7XisVQhBTsdu8Zvr1IINyWmJOsjFQE+264iOPKePTkGhY0qEajyimA9Me87zx3EzMMzz0Mlti+cfd1CeNzp/nB/P75qZW/SZOOiCftrxpCM51v2dnp2mwuxA0eGit6Vr53hKe1Yui+a/Jnnv7n6OMfCO5HrxTuVDukh/sJv6snZW/o4y3vt+ykm+w3f9MtIrIhBpG1ZPz9Pt+mIcqHPUVSx2fJ+6vKvBTB+EKKLc3w8frMI+tJkMsrNP2mkGmvgO50TwM/98sMKzjg/vEbwr/OPgHElJiZWdQYjY64EXU10x7sN3GVDwv8s7q8iz9lP/2TfnDAx+YQDhugD9JfbN74gO76cvo+/AM+dvk2eM9p/3B+ft99/YFt/blRiPpj1bKj2OTA9O2rOts2XZ21ulfMO+BXZDkNOGEPXezz6y1Qll+qsMiC98ba0cfsUQbW94b3Zxbc2IM3rruzI5JUn7wPyuzN2P4af11N/RnpKejpR/uF5gtMEAlduluQ7c0x7R16a+ZbbK0DaZNpPtEFmfvgn1A+/Koaf2VC8LpubR50HE87wc8t1BKnwpo31n0H29q//+OUDbfi3UKo6hgGwDGIB47ugz0A/ivGlzOQ76HgygTrh0oPaTcNlnqir9YDQBcZMGn9hNt5Xs+rEMgrLM+4HBgZHuXPGkpd3FQ7QXhib33NIX51zxmKVu4/XXzV0LzgODBp43PI9+W/J1aX3R45b2zAgPvExoxBEeyal7Vg0QCXTGaIBwseKDEH/xuk+0/MQ/jJWT/jTOdYxa6YtOXxJfvHsVRDBRRje4F5+/jal/m62W67p5ken4n3XHYdoxo2GJiu0vb7DWNVa8fDg2OmZ7C6PruEJz7AR9WeUNKjQEuP3jGle0OfoyRsQRndbYOxjEwcLAPT76lyPlnP8eLt/46wTt6OGRwDUd4l4WiPN3/jZHrSR0Wg6+eIC+UKky1C1SyZBaB9dILOlYDftO6qhCgbmBDLToQE+dOkud5+VMcB2+R8cN4czLmJfM3OdWynu3z5WZTyxXYfJ1YZs8M2yBnLPiXo4f/HeBfHTPQk0ThKUSAYK7Lx01rslUd74v//ZT7bDhjskg0jv/dNfgH3O1Q8c0EkbUgXqNyGKgCOsogxe82OlwYlGJBUmJRQdvhHkvrdYBOKwAvLTJ9esHR4pamPh206YydY1EmhW6S/H17//+ANGKNZl6O+OhJWqFoQ4huPGcIC3eJ/cuVtFAx4/c9giPl2/4VD66e4FMf2CxTsthMIc2mMGwAtf+L3htzQ4XXjyi3rtjnqsnq9Ra3vPQXYs+On0dBrXSwVyECZ1djgWLDseSnp2inU46xzxXuPpiAWdgaM7zK6XUdUJVeDhRUlcUMSBAp5Dv8Lzy7OAR1f/oztrxPVDUFraKs7RnZSLtFntLRtMmQRKqMiWxqrm3HN9o2rPstRJJ/2LwuiEh4j19h8xWaeoVwvuOtHLv/2ueTktA2GKYWvz2OtdWlcqGOQWyyLVN0x9crO9eLO18F/GNWziGA/q462fnu/fwHNeGzdMBJAR2YnKCxh+izfzoroUy37V57Jd+BNZlgg1+/tQKedO9X1/53QwVrgwitOqVLTMfXyYf/GeB7pPBcgYtY2GQBgMTVmz6SOf853AZ/92BmlN/watrdhiyiHuEKGZgvqqiWvtFeIAy9Yn+Qu+J9A0SdN8EMaT9xZPg+Ws/1vaU49jurkObvi20b47XBufywX/ma3+MWAxAGX0PvGnxjGI7CP9BJ3TXwYF9IbGkk/dXuDBB3kRBzNAZwiqHtdyHgCaM4J15x6HqWhNLSX7ULZVRXkYY/Q8j5Dx8uEdiSX/+mo90xLu+UVpG1GicmAtOJ9DfBtZwGjQfGhXmVuW7Y3z8h9Nk3our1E0SgRsLLm+MEmMNotPoQ0d0+Bm95Nx7Juno3s5gtA9h9cl9i+Tpqz+QhW+s3THavK8gkuhodsRVx4GrU1pWOINR7E8QCtSnhy6eKk/9+APZ5kQgLrWn/32CnHTTWLXUMto7yL1gLnx0ilzy1NEaC4A6kenqBIM2jPRyX6mTvGCxzPGywJJXuKZI3as2LSyU0pg6GAujvXyHTyXW4bQkHfnGLQ0XRba9dOo6Ld8TsGAzEPTD107Y8Wk/KFcFMKPJrXu1ULdbBqR++OoJcsLvx6oVm5Fz3OwLVxbrs4iYxhLECDhuZMO/0UsufvwoufjJo/R6ZLoXX+zzzdQPLI3ERogKo9zoC7rOYBgdCiwwPK+MygOiiG1xnWgDeLkXrNzurmH9lqKmRHK1e8bjMO0Z7ru44lIvEb78izWHeoTlhIFT7jFtKBbwytIq9YSgTT/zjomuHh2t7Tp1pS4MEOHWeP69k+XSZ4/RqUhY6PEcqgv15szbD9V6/gNXn4//3Rjt8PlulTyT2v67Hgnu85HaWm37ea54T2ARx7Nkd9AZRuj3mdxZzv3fZN0fFn4sUnS2DxRVsw+StJToQFg8EE17duAGJIz4JVKTIEnbekqypT3bAW0g73KMU7R9DOzRdzzm+tFfen/6IOLxdMCgxbv2bCd+mUrgg2fd+nmFasHms3VdsbZf9GUQvsNO6yHffek4GXdhP90vbTN9YKzq7PfkP45TTwnaZ9prPsRt+N6Lx2mfgIHV2P4u0LYzAHD36a/qQCYDm8yPP/2fh6gXHdOOfJhOiQfs1tVR13Vy5TPA6QeAdbVE22WmeFC28uNN6pFynmvrz7ztMPUm4L4QEI9BXAZK+S6GAr8fj1cV26Kf9oNXjtf4PPS5mrdJ1/7TvpC2IhheoXuLCfImCo3ErKeW60N65M9G6MMDE68YopbF7RvK1N0sluXvb3APZaG6bmNd1CAR/5koFzx4hDZMKRlJarEgYjPz05mTgjCOhZHILa4TP9Q1SAga+Nb9R8j5901WEeLDNtgeIhZX8yEnd1eRXrdjiFBa8OpqtWAe+YsR2nABwU2OumYE8UB26QKHxd4PYIeAPufOiSrSGwLczxArE743UM9j3EX9VFQZew/1CtGJcHz5/z6VP418XN3CGbTpe2QnfaFiEfvX8S/p59YJ0ZQxTEfYGQQPQnj6wakQ57HulLvDr9v+IBGCZk9/z9yrt/48S4/1s0eXatAh3MhwNePFBsveXS/3nvuGfueOY16Qvxz8tI5QY5Cua4nnWHiBMlK/4xqMf1r+4j4MFPgwF465kwiyMd/q657bVNk0v/Arlsb64NnjJezvm/PeF4+AMJFRPjQu055xj/x7q3Xd1U/aIj6IYK8g+rdXkY/99Wi5Zs5Z0mloS3n9DzNlsQZwq79+YDXy69vfJz4rN49+Uj575KvRkHnfPHHF+9HvHvei/GPSc/LQd6bKxoVfDsDG1Ys+l+5wvGeJZ3uPB33cBjjf2U+vkPu8Z+dvhz0rfx77pFp2DhRph74qpZXrvaXGZ0/TnhnhR9OetZ4rlTmzvTXxTTTt2ZD9mvasuRPLvJOZbkCu+rPuPEynauJZ5E83iIXpMd9++Eg573+TtX2695uv68D8DmhTaXe91yN9C97RTKW78r1TNIjmZw8vkXecgK5xv8cLkFgL/zziObUy4635ywVna+582uqN8ws0jpPf1t409DF57hcfRTceA2IY6zfi+t5z35Q7T35ZRTJeQwQ49uFYEp36o13121naTe8V8BUuePBI+dmsM3QK09RbZ2tsiOi7JOrxSt8DYttt+gvbNpTsOObbprwgfz7oSbW0Y2HfF8oH3eP9FS5MkDdhcHF56dfTnZColm89cIQ2FMyHjbqQf6qWbKxpuIrzoPHAvvzb6RpMAhfv8x+YrKN7pP+iA7Tw1bXq8nLevUfoA88cLOYFMrq2ceFWjYyLJf2juxfpqJy/TzpRzL+ObdCwtM94aKm6QH73+WPVxRErKQMICOhYsPq9/Jvp6prJ6CHbJGr6rCeWy4MXv60uO6VOsOPGiLUUir2RS+ZbLXH7IoosuUVTMlI0gjBuRIyMbnYCkLlBzJVkBJMco2f/e6IGhMPCg3jCgujPn6Xh5dzYNvPP3vvXfElvkSY/eudktcQzOJC/omifG6SmRI9x7eWy10+UKdeM1GkJCGjqIi8fGn/m73PNGdDRIFGuDNcoLOR07ncG9YYXCiPNjNgy2ovlek+pLIsKcCzWPAcEciF4y56CmOVYP7xroXzsngki8x52+WB9HqlPzVqm6/nyHQLbcT7Mr2UQKrtTNA0P8IylNkuRcnc9cHvjfPgN1kJcwzi2HbgHmZFu1jF/raywXNbP3bOo1MwTZdCKwTueQ6YQMMpOh6Gpc6DTnpVtq5IyL4aAn7KHqRha5929ZUoQ9wqLD0H8aI9pszSQ5apinWpAvATqF1YR6j5prbBgENuDiNm3HvKMzlNM2ok1g3mvpLXCZZH65qeIrHcKlGt26aDyPf+jgznR5ngHvGdIHeXH36Ce4qnF33viuVRVWqPWq+btolYY9kM95VlimweMCOmy4ue5iKY9e9xbanhoA4gpoO2N1x4QrAoLmf+hbu5JW0GdxMuC9ou/ad/21aIWC9uizaZNrQveVtQ1/5h5n3AMPvyW46EMKyrb8b/HMfN88TxiweTvrwttOEaO/Uac1c9dEU179k6DpD2rD8QvbSTeXvxN+/n8Lz52wvETbUPr8w7iHchg9gvuOwhf2pjY9yxtDUHeaJOpD9mubtS49o7ng6Ct/zr+ZfnskWX6O26DPj+u70Cdef/O+fLHkU/oAD11C4883u+U0X/lu/RN/Xbfh7ncV7h+5sBjozFZGGTFg5QAxRi46Ov4YNXGiMVABPWM4yWwJu+Juu0s04cwGOB6f/eZr7v3R7R95rh5B2A4o1/PdcKw5dd7pmrSVydQHe0wZLhyjpuB/a8NP40cwLb8AGJB3QJEQwZ188ElZs5zK9XyxlwY5nn4lnHcaJhXixD2rXa4ujMnj+/6USr9B3jJ2+ui23Db4ndEXuVfRAsu59PvW6yDADzEug1vn8yZQcDWBSGv+3HfY+4v25r9zEoVX3Vh0IA5hxy//xuOW8ucUEFkM7+Ghgjmv7Rao7IzH5g5k7isR49luZZxXjScS95ap5ZXvsOx8zeWloWvrlELLa67zFf+/OkVul1GChH4uGJGLYqic3QYCSWyKsEvmOdLYJl9pakEdaOO0tnhxcBLi8acqRZ4YVBXSXfHi400NXrN3WfKz0foiwmLOgFaqB+4vvJ7UtZx3z+6a4EKWIL48aLsP6WLvkQJqsZoOXO6Ny/apr+hU8bUCkQvo9xMRVgydZ0O3HBcjHLjOYKHBq621AmECi873ORjU0TVF9SN+kVQOI6VeWq4kRNcCxdgRuAZMBp3YX8d/cZNnY4DnQVecKRQY9AHV2M8V9gXYv2Y60fpyxAXeIIQ+gGFeNbYNoG9CMY24+ElGhCOASM8YHjZ4o1CYCIG1eisEIyFZ4NnnQBzfIfOKCPvHAfPvh/YaU8IXdqz7bOjac9W5rqe0D50NvYQBmUQB8xt9AehqMcj3DOBlYco0IiCXod2VIFR6AT4wGO6an1kWgT1iDqoHTvX2WNOOZ09Biiz3feJystzN/yMnhpnABdMrCKIeH7DPHK8nYjFQD2gXhx8UX8ZdVZvyXPb5vnyqS+oWyxEVsdNneczb/FWfT/wHJFlAIXOXMeM3FR57475Oo2CoKA8HzzTnL8f2R2rFVk7ODfmi3PMiK7JVw+XYad112eNd9qBoNXgWhkwirRnzb01jYumPVv4muS92s9b07DQfhDzhWkMtCFEpj7+t2Nk7IX99B4RrIq5qbSfDAb5VrT6IHjUmf88VD2OaGcOvmiAa8OK9qp92RmIJtqswy6LpvjbUR/cI4sIHnxSNzn6ulEa4Z9AtKRH5d1AoCvaOerVKTePl0HHdVW3XVKmkj6WZ4QAl0yNwIrI3wxa4o30dTjDnT/Xkvcb7X+D4s61eedE6Tu+j+S0+PI85PiEtGezGiTtGfOxGXwkFgbCkX4E71Xq5bv/nKfvdQKyYVjhvhPQjbpMe8Y7DuHJBaQuECyTa0mf8vArh0nr3gQdLtMsRMRRyu3aXOsY0+fIAEFAYY1K7to2DF1M96G9RKDyTBD8jCBoxMSh70FdI07LHNfnZYoZ7Siivp/rp5BOkH4AQdZ8CBJMZH/qJsYGzo33NoOs9HXxjiNmDtOYqJdESWc6UsRVL35HoDbaaPqr9KV4vxAMkXcLMWcYsKV/y7Q4oqbT/tInop/DfmibSRXLIAIR/5dN26jn3WN81BBFOzD5qmE64JG3bNsOTfF16HxIgvTtf7S3FB5MkAeI/SHIjf0HL1SiW9MoIZzwPqCTgVtyQ3QMm4ogp/PGAAY57Vv1aqHRovlsmF0gr980U0eCSWPDi4NpFJRhYX73tnkaJwGrNy8oXkhsixcC0XQRm/xLuh1EDS8Ngp7RCdruOvmIbEQunhXb1pXq37x8M1tG05QsfXejBrxCrNMh5QVFp46R9nWfF8jB7uWKSMLKyECWD1YYOoYMzCB6fHh5Y9FH3CDoqSO83DgfXvy4tDEQhCsdgw5smzIGej7+30I9FzoSDCqwHqEy7fZ5KshTmiXrueEtwnYZZS9xHdxF7kXNAAKj3LXu/Ug6Ql6svHhXTd+s0wQ4P1yWcYNjYItlrhcfLJyIQ+a78bs9JZRpz145cGnPgPuJOyUdIgQsU222LC/SPMzUd+IDqFfOqmIV59QNBj8ZaKEe0NGnrlDH1s7aIpudYCVNJBZqOqPENMCKTScNb6BVGiW7VDNIYFmZ6eojnUACDLUbkKPbm/7AEh24jLV8U194NnmuNGhiHeiQUt8oZzABqw51GeHPfHDE9if3LdEghdRb4nDw7Ggb6i41MQ3oYFcUV+v8TyJrsz2eSdpg9skgBM/JgaLN6GLpd1AcpT1z92Ph28sk78PolK6GhPvL1KEWHbN0QBzL9mm3jNe68eafZmmgTe5LO1dPh53aQwdzECBkHCEVHzFWCBiJtw31i3uOAGBwaJ1ro7mvpCftMiIqSogUjchAWLEP2h88IBDQmpbSPQsMopYWVmq9i4XBI+bT8n6grlNPgPaYbBN4Dc19bpWmo+Q5YhDgoG/104Fb2jcyUXB85GNHXDHgyQAE04sQbrS11H8EF4PBPFsMbpLLvbOmBnT1uaJWBSD7RKQwCMtgEpZ33+uO4xt2ak89N3/QtiFp3rXaia7OkpPTxVsTx7hnvGDtlgZJe0Y/DHh38Y7kQ3yK126cqe/V4vwyFayIWWKmkBmIdpFBbAYMAc8I+gf0J6hPtH30P5Y7AYqxiL4B8Y54n5O1h/u8wL23SRvI/cVSTX2ifcOIRNo6AsUR4BjDAnUET0w8MgmWyb4ZEKKdbeNEP/2Z2U+vVA/QWKirRNzn+WO/nBuDDgtdXZ33UrTfwLHQftJnmv/yGq2HfI/rwTuA/hRtLM80bSrHxfuAqPIcE3W8aHN0/jyDDxi5eJfwvDFFFdd7+jcMXiDWGcggXz7tMBHmeeYI/klMn32h0xHbpe/ASd5SeEiIMAGgkfn000/ltNNOk3PPPVeuv/56yciwebb1UVLpHuqZt8mHV3aXik3xMfJu7BoCytHAMvJKhxWRg8twQ5A1aK2M/eN6OWTg37w18c3Gbe/Imw8+JEtvOcxbE2wI4oK1nRcSlmZegqfdOl5flERAJ5gU7rOfu+W6bmBBhMGGgcd0kWrXyWWeMAKQqPd0fN/52+xoDuI9JCWnVLqeu1AmX3iKdGx5qLc2uCxd8ZK8fv1SyfsoVyI18eFON+KMnmodpiNINgzjwDH0zidk8iE3SYv0/WOR3luqaork2Xt+L/P+0PBprmgHjvvNGA1WhYiddPUwjYj/0EVTNY6Kj37vt2PUuvjUVR/oHFy8hRA6WJMR0gSl8j2ccN1FZGDNZmodsW0YZMKDaeu6UhWzeNoxSEmMGcTx/JdXq9BhsHLaHXN1oDAWRAPBsfCAw+PHB5H9jb9PkDUz8uXNW2apUPEZ++3+7tNX5r24Wj21uo9rq0KEYTeCcyHICZzY78hObn+kTyuRcRf31+wbWBnxDsBiuM2JEzyTyBBAFG/y8JOpYLN7f9A/IGo184eZ/ocoOuWW8SpwXr/xswYZwPdhWk2b4+fKUb8aJr1af9NbG79EpFYWLnpWXr92rRTOjAbINeIDLON8EN8MQJAdhjrN+4Z1+4uhj9wmpx70gbcUHuKi51BVVSVlZWWSnLz3aasMI55hpPAD17F471/z1I2+ocS40fjQccSyg6vm6X8/RF0diRuAFZLBF+496VHCIMYBSyXpz8jCgEvlsdePVsvbHNcpbgh30iBTmbpKIpnu2Y6ztGdG41C7taUkJcRPRg1Ne9ZhobfUcCAcmdLClAK8abDItXail/YgVowDHkhMc2jZ9QtjAtMTPn1gscx4ZKl6JO0uNR1eHq/fNMsJ/0VOpJZK5+Gt1AUdV+LZz67Y8Z4tyivTNJBY3X2Yz4vwxg2+JP/LAhcPE46dY4wV44BFj7aPD14aiGPaPKb6Yb3HewuX4HoDXDrVTuYCPIsIhrXu83ydvsE1Iz8+nixv//lzTWtJDBws9AxOcJ757lrhwYI1tWFJkITqTEms/iIqeDyjac9arJZIxtdz/zf2H3iCMNXvhN8dJN9wfSCm8+FR1RBTMndFYsn+C/DXmDS6IC8uLpYHH3xQCgsLZf78+bJx40avxDAMI37BIoxr47M//0hHhJ9z/75+40x1WcPVkJdSrEt60CH9Ca6/D18yVV3psCSRrxqvj6aeXz+a9gwXfuxm8cGiN9bJ/Re8JTMe3j/BkIydUz1njKQlx1nas227zg//dUDkYvlGjGL5xl2W4H41O2kPcMf2g6nhnMl0AtxhibPBICYW5V3B4Cainv3xN7EyWvchmGemeiRd+vyxmn+ZqRqI8dggnUxV6jKqtZQVVqqFPRaOmQFWjqEu0WCw7vdpX6O77DQ620Tkc32IZ4PbMMfMdWMg4bz7Jsu5/5sk/Y/qKtkdm+lx4LeKWzTivHmbhvUY1bRnW3sELO1ZriRUmedsvMGUwCeueE9evG665jJ/4ZefyMf3Lao3JlRDkrYyfPPHodEF+QsvvCB33nmna/Bq9e833nhDKivrzwVsGIYRLzAPC8HNfFfmtPJvfUGrwgQv2tjzZS5o3XmaTZGM8iFxl/aM+YzMMw97nYxHUse9KWVV8WNcSE1qsV/SnuFqzdQdLOUEkyQeBXEAMnK/mrsZmGtKMKqGhH1XFFXqfPV7z3lD7jnzNfnn5OfkkUvfUQu0T2JyglrCNy0qVFEfS/FmJ7orazUSfF26jmmnmQPI1NJQMDjA9SLlJcfM57Ypz8u/T3hJByh4t6z5LE9jzjDo0ZDgsl7Tar5UtZjrrYlvDkTaM+Prg1cJ/QE+mxdv/YqHyf6gfMCD3l/holEF+fbt2+Xaa6+Vvn37yi233CKjR4+Wu+++W1auXOl9wzAMo2HA+kKHcHdWmL2FDiGWGDpzsR/2pelB9jO4WvLhOBoCrFwZOXXSpRm7pCjrHYm0XaydXcMQVw/iafJCeU2eREY/4S01HETmx1MIF2ssmRqAc9YWaZabKiPP7q2WZ6AtIXp6p+GtNVhbQ4ILOVblrHYZ6plEmiiym9RtDwmeRjtJJP+6Ud6Xf7BBCtYUaxyQ9gNyd/yWIFujzu6lAnn93IZzwyVgFhZzAmXhXeRPayLgF3tm/52HtRaCbe6PihRJiLjNxlMN3TnRtGfvSm3LZd4ao0nDA5IQTo+8RutxIca/973vSX5+vnznO9+Ryy+/XE4//XRZtGiRinKzkhuG0ZAwv+niJ4/WuYV04BqKlt2z5czbD5MfvHKCukvyOf++I+T8+4+QQSd0U7fD/clZ/z5MzrlzokZAbQiOu2GMfP/F4zQVlbFnJERSXM+R+9xw9coILtUr+8ZNyjPAyihVDZ+ZBSsvEaCxPqc5sQtkfCB6NMHYJl01VOdMjzizl0YrJyvFB/9ZoN9rKMgawPSgsW777GvAUV20PT7sR0M0IrYPLuLMAycPf11wgf/oroU6GHnkz4dr1Hi2RVvYwbWDH9+7WKP3NxRrZubJnOdX6SABqa5Ix/WNv06QY389WiNc837CfV0jruc3rPtvJJIgiaXtJLm84acw7A+0Ra1JcW2sDRAbjohI8qbR3kK4aJS0Z7in33XXXfLnP/9ZpkyZIr/+9a8lKytL2rVrp4L81Vdf1fRnnTp18n5hgKU9M2JpKmnP9pbWvbI1vyaRdgmIQyRfrBFEu6eTRceKlCX9jugsnYa2iuYLdx0xXK1wvyalDh2ltv1ypUWHZlKJ1WUXgdlIuUM+Zrb50EVva6TcxW+u1VQidA6JrotrNylSyFdLihvEM53D5LRE6TGhvVrTcX/Hss6+sThxPEQF7jq6jf6W9Hmte7VQoUywHzprpA8Z9o2eap1a/PY6TTnC/En/vAA3c7wCSD3S/aC2mj+X9EGaX9cdFx3ATkNbam5zgg11GeX2585p3kur99sc+PClPSuQZa+WH9C0Z0b80npEmfQfS9qzZt6aRiYSkYVTl0reBw0bpZq5zkQCJxgbbSz54WlDCWiJuzVtLlZn5niv/HCjxqAo3Ro1tpCKbwvurrMLXHtXq/nwidRMjmJc4UmzSBoqxClWdazsWMOXv79RkhgAyErVoHDL39uowVJpQ8ntTNuKQJ/56FJNaeXTzrXnuNTTNn8Fdx643rLPFu5YaaM57lp3LlP/NkeDtgEp+pj7rvnB3fmlu/cG6TALVhZrGSnKSPVE+73erS92bS/z5EmFhis/7TvLKz7YpOeUnp0iLV0bzzurcFWRpqnEpZ959gwglxRUyNznV+pvGpLmXWqlz2FdpUUOebXjHNecFqzNl+WvVu5z2jMjHHSaVCZ9B030lsJDo6Q9++STT+SSSy5RK/gjjzwiw4cP90pEnnrqKbnsssvUjf3pp5+W3NyGz5sZVCztmRGLpT37KgjwQ38w2InwDE2n02l4K2nZNUum/nWOiu5xF/WXabfNU3e9Q78/SHMrY8HGdfDjexZpSi+iiBPxl3Q0CNul766XGQ8t2amlApF83G9Ga/lTV73vrRUV/0f+fIRahUg9NebcvtLFiWsi9SKKt64r1vQ7R/5suGx3Hc0nf/Se5qrHqjT9gcWaOu2Q7w2U3oj9BVs1AFA0V3OpimfO77U/fKYBgRKdIH/3trnS85AO0mVka+0kcuy4cL77z7nqekn6HjrNBJ0bcEwXdYt84dpPpFmrNBlzXl+NjIyLKXl+pTYij132nttfw7qX+oQt7dmyFa/Ia9c5wfNxi7hJe2Y0HvGX9qxYnr3rRpl300BvTcNBuzrmW321vZn619n7JW92U4M2eMq1IzS9JFk7GpJApj1b+Ly8/ss1UjjT9IBhac8ajDVr1shf//pXWbFihVrGY8U4HHnkkXLSSSfJ+++/L/fdd5+31jAMY/dUllTLvBdXqVClc/juP+ZKQmKitOz25QGsoaf0UCsGQvuNP82Uj/+3SJcPcsKU+eCv/N+nmopm4etrVAhj6dlbsEwXby5Tt0lS8zCHcs6zK+Stv8yWGY8s0QBD5PDcsqJILd5YcLBUE0AI6zYW8faDWsrGuQUatKiqvFoWueMheNHaWflqOffneWNRwTLec3w7Tcfz1i2fyys3zJDWvVvIsFN7qGWJAEJv3jxLrwupSbLbNZOeh7bXYyNwEOmCyHmbv+zL6YqM3VORukIiWfkMcXtrjKZMZFtLSYyrtGelIp3meUsNC4N+S6eu1/YTV288b4x94+BLBkj+ku2ytE4e9YYiobpZsNKe5ayUSIaljDWiJJYGY7rF3nJABXl1dbVavV9//XU555xzVHjXJTs7W37xi19I586d5e9//7t89tlnXolhGMau2bq2WN0LczplyrcfniLHXD9a3QLrsvSd9dK8bYac9MdxMunHw9TNkI5lTtdMyVuyTaPzkoqHSOL4EOHWvbcwLxH3TVLzIK5JBUTAI/7NX7pNxXpu16yoq7rrxLYbkOP275adeM7ISVWBjZhf/v4m3V61E+S4e5I6h9Q9iHGCFwH7YFt0irHIV5VVy/o5W9x5laibJNFPuS64ln7rwSPUEo8Ix8W9RcdM2ba2REryy6VwdbG6nRp7R3J1rkhlfKU9MxqPqrmu3Ym7tGftvKWGJ3/pdh3sw+OnwrWbxr4x7ba58s4/52ib3NBEahMlaRtpz3p6a+IbTXtWnmNpz4wdpFras30HV/X7779fevbsKT/5yU8kMzPTK/ky3bp1k2uuuUZWr14tt912m7fWMAxj1/Sc0F4uevwoOfGmcU7Ylsrz13wkJfWkqyE3879OeEnmPb9KLeDn3jtJDr64v1rHqyu/iJTNjJ5IzdeLnJ3SLDk6N317pYpfxDLzLSH6d9SaynxHRHrXMW3d/lM1VVVSSpK63yO+GTzYHdGowokaPTgSc7jMgQTE/fdfOUEOv3KILHt3o85LJHIw8zNxXWfwwI88zNx0Y+/IqBgsCds6uWtogtxwHcbR70hZdXQgLR7QtGdLJ3hLDQ+RwpmDTToxaz/2HQZFGSTeHyQk1kpN7iKpym7Y4Hr7iy/SnnXw1hhNnYq+j3t/hYsDJsjXr1+v+cYJ2nbFFVeoKN8ZjIhdeuml6r5OgLfHHntMO8aGYRi7guA4KenJms/1qSvfjwZjq6fpQMCWba2U9/8zX+76xqsaYIfgb9XltZLTOVPTlSFWCRyU0oxAPt4P9xB+27JblrTolKlpgQpWFEmaE/vsgyA1WMQzW6VplOJVn2yWvKXbpOPgliqSEeh0cAmwhrW+qmL3KT6wxJcWRIO3pbdI0TYU63dWm2Z6Dn0nd5LivFLNzfvhf+erN4D+zu2HwEHNWqdJamayWt05f2PvKMqcJpE2SyztmREltVJdbeMFTXs26klvyWjqRBKr9RMENO1Zl2lS23K5t8Zo0jDmndTwniPxwAER5ARvw039xRdflPPOO08mT54sycm7dwG97rrrpLS0VP7zn/9YbnLDMHZLRUm1puAhtRlztE/7y3gVvuRzjc0/fvz/HSSXPnuMDDq+m0bmbd62mUYp/+zxZZLbJUumXDNCI6eP/XY/2byoUApWbvd+uXPIccs++WB1H3tBP9myfLt8/tRymfn4chXXY87vK90PaifDTuvp3isJ8sn9izWqbt7S7RodmKjpuJdjVUcgM1BQN2dufRDxd+VHm2Xb+lJNL4Rr+ok3jtW55fNeXCnlRVVqfSe6+oizerv991DxjTcAruy4xvObCZcOkG7u+Iy9I5r2jNepWcgNkZpVfeIv7Vm1ze028PqKpj1LKgvQPNzaZNfGHlCHXiNecd2hpM0jvYVwcUDSns2aNUt++ctfSseOHXV+eL9+exZ5tE2bNirmsZITbX3YsGGSkvLV+aBNBUt7ZsRiac++SumWcklMSZQOg3Kl+9h2Tkxv05Q4WISxiFeVVmukclLnEImd9Dbkp0X4fv7kcg1ORGA41pMmDBH9yb2LNR3PzkDoY/FOb5Hq9tlWA7Xhbk604Q/vWqjzspkLuH52gaYx6+a+g2X8g/8u0GMBBDUCeenb62TRm+u0nHVzn1+lx858d9IIcZwEaMtyy8wpX/beBsnpGLXCE4Buw5wCnT/PPrDSEzl+9rMrvXnpadJ5eCstX/T6WhXpW5YXyfxX1mCG0IEJ0qutm7lFtrntrfhgow4W7A/ClvZse/4WWW5pzwyP1kMqZcDB8ZP2DA/DRVOXSN4H8TOv3Wg8mncR6XNoN2mRG4DUwq45LVibJ8terZTyjV/klTeaLp0nVkufwfsvW09jsd/TnpWVlckFF1wg06ZN06jqF110kaSm7nn0UVzcL774YqmqqpJ//vOfMmbMGK+k6WFpz4xYLO2ZEVRCl/Zs+Wvy2vVO8HyULQRNMpo28Zb2rLqmRJ75zx9l3p/i43iMxiOIac8WLXhRXvvlaimcleOtNZoylvbsa3LPPfeou/oJJ5wgp5122l6JcSDA24UXXigbN26UJ554QgoLLQKwYRiGET9UpC2TSFaee6Pu1/FtIyBEtufGVdqzqkiJSJfZ3pLR1ImmPQtGrBBiMdTkLpdIsy3eGqOpw5SLMLJfBTm5xH/3u9+pq/pVV10lbdu29Ur2nPT0dJkyZYqMGzdOxf0HH3wgNTW7D3JkGIZhGAeCpJocS3tm7KBq7ihJS27pLTU+mvZs+973v4zwEU171j1gac9aSEK1pT0zoqSunuL9FS72myDfunWr/OpXv5INGzZoCrP+/ft7JXsPOckJBsc8ctKgEejNMAzDMOKBjHLSnnW0tGeGkjLiA6mozvOWGp/UpGxJWDreWzKaMpr2LGepVGUv9tbEN5r2LN+1r0UBCkJn7Fcqez7n/RUu9osgZ1r6HXfcITNmzND534jpxMSvvyt+e+KJJ+rn7bfflvvuu88rMQzDMIzGpTjzPYm0WWppzwwlIaNUaiPx48lXXpMvkZFPe0tGUyeSVCmRxEpvKb7RtGed35fa3BXeGqNJk+Dqb2qRtxAuGlyQ19bWymuvvSb/+9//pEuXLnLrrbd6JfsOwn7AgAHy+9//XueUG4ZhGEZjkxBJtrRnxg5qVvWWlKQsb6nxSaCrVxM/c9qNxkPTnpW1laTyAM3DrU1ybay1rYaDtGd5w72FcNHggnzNmjWaN3z79u3y29/+Vpo3b7ho4MOHD5dLLrlE3eF/9rOfSXFxsVdiGIZhGI1DamU3SSht5TqO3gqjSVO7xQmehPiZ86rHsn6At2Q0aZygSajIlsSqbG9FfJOQwJz3biJl8ROTwWhckrZ39f4KFw0qyIuKiuTxxx+Xjz/+WCOjH3300V5Jw3HWWWfJhAkTNOL6Sy+95K01DMMwjMZBLZARs5AbUVJGfiDlcTSHHFGDldEwEhIj0TnkzYMxh1yJJEXbWMNwVPR61vsrXDRYDSfyOUL87rvvlj59+si5554rWVkN77LVqlUruemmmyQ7O1v+/e9/y9KlS72S8KMvVUurY3gkJEXcSyrFWzIMo7EoT1sikeabXPtsJnLD6YeiHElMiJ+2uaq2WKTbTG/JaOoQsTxQac9aLpHaZvEzwGU0Lky5CCMNJsgLCgrkzjvvlIqKCnUr7927t6Yr2B+MGjVKLrvsMk2FRuT1pkJSYoYkZ1Zb4CBDSWldLJmp4XTdMYwgEU17luF6j2YhN5wAnjdS0pJbeUuNT6IkixS18ZaMpoymPdveXZJLuntr4psE/tO0Z+neGqOpk7r6SO+vcNFggpx84Qjlc845R0466SRJS0vzSvYPV1xxhc4jx2LeVEhJbC5pGZmSM36Za6XMUt7UaXv0UunQdpS3FP+kJDnRklLlLRlNmqRaSUqlqxUON9qMyr6SXN103kXGrkkd9Z7U1JZ5S41PSpITNJv7eUtGUyYhuUYirVZIdbPV3pr4JiEhSZKKekiCzSE3HIlpVVLVeaq3FC4aTJATvO2nP/2p3HDDDfvFVb0u7K9FixbeUtMAF7i+Hc+TXpcslNTWFtCuKdP2+DnSsU9naZcdnNyyWWldJSmr3FsymjJJzSqlWetkSUlu5q0JNrXZG6T5QfMlMd0GnJo6SZkVktxxrWSkxE/eZA2MNeg9Se9U4K0xmirUz2adyiQ5OTgW54RWq6XZkEWSlBGMVG3G/iOje76kpcdPBouGJCFC0nAjUKzb/prM33SLrHt8kJRvaCbV28yVp0mQVCspLcul5YhCaT8sXYb3vVKapwXD7Qyqa8rk089vl8/u2Sz5rw6WSHWDjQcaASIxpUZaH7lYxv48RQZ0+G5cCZevS0nlKpm16o/y0RX9pWRxS4nUmut6UyQxrVqy+22Tw/8sMqzXj7y18UBEPl9xq3z2yHJZ/d9xNrWiicJ0x+w+JTLmqjQZMXGKNEvt7JXENwVls2Tm5/fIjJ/3lbK1Laz+NlEY8O5yfIFM+ll/6dbmOG9teDBBHlC2lS+QvG2zpLgoT2ql1FtrhJpIoqQkNZes7LbSOXeK+zsYaUtiKS5fJR+8c4csebS5lKxsLrXlyWItUNOA6L68UFsM2yQDzquRwX2+JS2bD/ZKg8+mwuky/Y48WT7/Uylf10KqCjN5w+o5RyqTXV1PkaTsMu1M1palut4FZZUSqfLKmuPi7MpKU/hHEjNiy/AsibiyaC7pxGaUJbmy1KjXiduPbtNtO7FZxZ6VZboydwyUMYCA5SxS7crcMn8ToO6rZe5YMitjyhJ1O1rGcWLBcp1+ts+AG/uP1ER/x/kgCPge34+WJep2uEa40mqZOz7Ot/6yZL1OXymrcGXuGus1dGU1lKW5spRoWW1FsiRz7d3xallqtSurlogrq/lSmTvO1Jpomdse301u4d6vfpnbXoL7rZa5e5GcQ5m7Z247yS3KpdW4DTL86LEyatKJ+y2GztelvGKrfPraKzLr/jwpL6qUio3u/UGd4J65f2uK06LXk2tWmhatuzvK0rWuapm7Jn5d+qKM31XHlGHJjEhNUcZXy9im27aWcY/c9aS+cB13lG33fqdl7nlw17/eMnfdud9+WbUrS4opo55onfTKGDBhn1pG/aTMPQOxZfqsUgczqrSe77bM7Yvj2WUZz7ErT3LXkOeDc+eaRMvc81Hpnp0dZemurNaVuWfce644P54drjX/svxFmTvfpJr6y7gW7vmgDK+k5v23yMAzs2T02PMlu3WwXMDXrf9Epv55oeStWi8V+c2kaktW9DnmXsfWSdd4cg2/Urf8Okl99X9Xt27p73jGY+oIv9Myd8/cb75Uf+opo02pjalbX7rXderIV8tcHdHf+WU10Xqwq7Kv1C1XD5K9elC3bsXWEa9Mn+u6ZdQfdx5af/y65far7x2/jOtL3SpxZe4a6Lulbr0rSXNl7pApo81292LH71wbQwup98xvs/3f0f64fqG+h/idOz+8gttOzJexxx0rfYePk8Sk8GWNMEFuGMYBZXvJClm+5kUpWJ8nJXmug17tFTQBIrUR2VpYLtVVtdKmfTCi3DYUiSkRyWwrktMrSbrmnCCtm4/xSsJDcekGWZJ/txQsqZKSuV0lkug6FC3XiRS1lsjWDpLQZY7rALqORH5X19twnbJWa92PWkqksKMkdJ6nncrIlq6u81PjytZ4Ze53nRZqxy/ifue+IdJmlUhJrkQKOklCR1fmvq9lpF5ru8KV5Xhli3U/WlaTLNJuuUipK9viyjosEUl2HSyOpSZFEtotc2Utor/jeylOFG/pIlLlOk7tl4qUZbvlzpLA9lOdKKas0nXG2E5582hZa3dcaaW6DSnPcvtfpP9Gy9z5pJW4so5uWy3cOS34oqyVu0bpRXodOPaEzvNFKjJ1Hwm560Uytut14HokdHHXqaJZtCxno0izbXptpaiVK5vrjsmV5bttttgskrlVZGt7iWxvKwldZ2vgPf1d83yRrAKRbW2j96Xb5+4806NlrM/aEi3jvnSfFS3Ld2WZhSLZ7rfb20SXe34WvT5FnSSnf5m07pMlPTudKOkp8Sl2ysoLZPXmV2Rz3gLZ9nEP1w45YdJ6tUh1qkQ29paElu5aN3PXLK+7q4q17r64e+bqa2RDv+h94Pzzurktua40v6O+ruvvyjZEryd1KeLqN/XAEVk70Ctz15P6Qh3kd27bkbWDovePe1HQWY9ByxKrJbJ6SPR3lFEn3PWXVq4sySvjd9l50XtHMEWOk3quZZtc2WZX1k4SKrKiZdRzyqgTLTZJxN1b6rPWyWQnFlYPlQT3G2G73Fv3HOi5p7iyVa6sRZ4rc8fDc+yeu2iZez4oc8chHKurfxHqJ880zwf7a+7Om+vGc0z9pJ6nuudjjbsumduibYOr7+xT/+bZWTtAEpptjy674xB3HsJ9SS92qrS/+7ckek7u+KWwfUxZP/f7sug1LGsevW767Ljnan1fada5VDpMKJeO2VOkVc4gvT9BY3PeHFlX+qxsWVQtJbP6aB2gjuhz69owabMyWifXu/rKvabM1a2EKle3aDNdGyquTOsVv+UaUX8oo81d665vtrtn1AXalHL3jqaMttrVZa3j1BHXptB2fbnMPRvUkW3ufnH9uQ+u3mkZ7RD3wrVDek+py65uiXsG9JnSstauLDd6b13dkjWUud/p+6OVqyeuTWnp1S2eK60j3vuj2NUtv2ydqz/UB7bj6qpu169bPKvuXz029x6QbdQ7t2/aZa5Zqtsvzy7HyHlwXG5bkQ19nVB258L1pd5x/tR52uwNfVyZuwaUufeA0E5zjWizaVO4rrwzXHsuvBdauDJ37JFNPQUhHy1zbTb3yT2b2p5v7uHuY2L0neTuT2JxZ8kdtlXa9+osXdseJakpbj8hxAS5ETiKi4tl1apVMmhQMF8qhutf1WyXsqo8qapyjb00nawBVa4D/NmnC6S4qFSOOGqst7ZpkCCJkpraXFKTsiUt2XUSQkptpFJKK9dLpDpF/66qLZTkxOaSkthCyqpdx8hdibQk13mP1EhlbYEkJWZJamLOjrLUJNfxcq/lytotrixTUhNcWY3r/DiiZa6PUpvvleV6ZbWujKByCVJZkydJCc3cNnOlvMaJD6nR33H9K7yyFFdWUevKItX6O4LrVdRsjilzgiZS5ZUlu7JNrizDK3OdXHde0W2murKNkpiQ7vbXUuYs+EDatm8prXO6ue+nuf37Zbl6rrWRCt0G2yqvWR9TVujKyl1ZjiS7YyjTsjTdZlXtVqmJlHllma5sXUzZNldW6pVlubK1rizVKytyZSWurIUry3Zla75SlpyY7ZZbSGn1Gtc5pCxXampLpDpS7JXluLLVrixFf8e+qt1vo2UtXdlKLSOiempKlqQkNXPLTnTGMdTJ8ip3D6sT3flUuPpSoPc/Pamd3gfOMTWJ59PVQS1LdGXtpTLi7oO7NqmJrszp8coaJ1zcHxlJHVyZuw+1xa7M1ZcE6hllrk+e3FHvX7WWufqSQD2jLOLKOun943qmuLJELWOOe40r6xxTluvKUnR/1OWM5C7eNikjvVyqHmdEqr3fbXdl2909aqF1kHpHPc9I6iz5W9fI+o1LZUC/UVoHo2VVuk1+wz65t18tK9J98hzzjNRflqX1M1qXK79UluTqZoorjz4Driypk15nvht95rK931W4so6urKxO2VZ9PtJdGd/RtkGfxxYxZR1025R98VxRVubam/aSkpasz2xinNfP3VHt6mBZ5SannzOlKsK9LqpTt5xOdOdbHSnSMr/+VNQ4Ee5qCdeJ55v77def6O9q6ylz9cf9Tuudu/bVrs2gjnDducZc62jd6uSVUQ/8+rOrMq/+aFmpK4u+I75Ut75UluWe0Gby2Zz3pFevbpKT2cPVkXJX5t4frs5Rzve4/9E6Uq7boYxg0H7d0joiro64861b76JlVXq+X6137fX54homuuOnzfTL0ly7wbXj3RKtdznuWGiXqXexZbTZuTFlpC6L1Cnbrs9FWhIZIRJc2WZXlura1zau75AhyUlZ2h6FFRPkRuBYvXq1vPDCC/KDH/zAW2MYwaCqqkref/992b59u2ajMIwwcc8998ihhx6qaU8NI56gq7tkyRL55JNP5LzzzvPWGkYwqK2tlX/+859y7rnnNqnsUk0Ji6pkBI7q6mopKirylgwjOCQnJ8vw4cNl/PjgRMc3jD0F7yXaZ8OIRxgQLSkp8ZYMI1jQ762pqfGWjLBhgtwIHG3atJETTjjBWzKM4MDLdOHChTJz5kxvjWGEhylTpkiHDh28JcOIHwiy16lTJ5k0aZK3xjCCA/UXr7rs7OAF8zX2jAYV5Iw+vvLKK/LMM89IWRkRY6MwInn//ffL008/baPnxj5TWlqqosYwggZuk+Xl5V9qHw0jLCxdutS8l4y4hLaXqULLly/31hhGcKD+LliwQCoqiCRvhJFGsZAXFhbKvHnzZPbs2bJixYodLhiVlZWybNkyXc8H4QV0Xjdv3qzfpUL6642mCQM8dPwMI2gwyt28eXPJycnx1hhGeOAdjdu6YcQjDBYRENYwgggxEEyQh5cDLsi3bdsmL7/8sjz66KPyxBNPyMMPP6wiG9H92WefyWOPPSaPP/643HvvvfLSSy/pehrQhx56SNezrqCASJxGUyUjI0O6dOniLRlGcEhMTJSOHTtK9+7dvTWGER6o27TPhhGPNGvWzKZUGIGla9eukpqa6i0ZYeOAC/K1a9fKhg0b5Dvf+Y7ccMMNcsopp6gLJ6J7/vz5cuqpp8pvf/tbue6663QdlnLAKs7cn6uuuko6d+6s64ymSXp6unTrRi5UwwgWeAPh3TFnzhxvjWGEB97NmZlNK7++EQzwTqJuMmhkGEGD+ku/NyUlxVtjhI0DLsjbtiX3nMhtt90mf/7zn6Vdu3YyYsQIWbduncyYMUPTpvz617/WskWLFsmaNWv0+7h5EswAC5PRtMEl0h+oMYyggSi3SKlGGMHbbevWrd6SYcQPzMGlbtKvNIygQf39/PPP1YBphJMDrm7Jn3fOOefIWWedpZbyH//4xyrCEVm4IZ988sly5pln6udHP/qRRcQ0vgLBAwnOYhhBg7RnQ4cOlXHjxnlrDCM8MEfXArca8Qp9B4txYAQV+r02mB9eGlSQY71m/hgvZBo+H5aZO04gI+Y/4DJELl5c06+++moNBENAt9zcXOnRo4cMGTJEP4MHD7YE+MZXIO3Zscce6y0ZRnDwXdbnzp3rrTGM8DB58mRp3769t2QY8QMuv/Q9J06c6K0xjOBA/T3++OMt7VmIaVBBnpSUpHMc6HDOmjVLR8uJiE3nE9fzPn36qEvbX/7yF40WCERPp4IdfPDB+t1p06ZpFHYCt/3ud7+TDz/8UL9nGD7EE7Ao60YQwe2M+mtWGiOMrFy50uq2EZfQ9lI3Lcq6EUSovxZlPdw0uMs60YMvvPBCeeONN+R73/ueXHrppfLaa6/Jz372Mw34gijv27ev3HzzzVo2depUufjii7WMgG4EO7rsssvk8ssv19F2hDpBvLCK8q9hMHDjD+gYRpDwAwvZKLcRRsjxbILciFdw+WXQyDCCyOLFi02Qh5iECMMuhhEg1q9fL2+++aacf/753hrDCAa1tbWSl5enU3osW4QRNkhNOmbMGEvrZ8QddHWZHklAWLL7GEaQoO9w3333aZwtpvca4cNClhuBg1yivXr18pYMIzgwh5xRbqKlGkbYYMpaVlaWt2QY8QPeSWTrIZezYQQN6m/v3r0tD3mIMUFuBA5iE1geZyOoWNozI6wQI4YAroYRb2AhJ+3ZwoULvTWGERyov5b2LNyYIDcCB+6+luvWCCIEviR7BG69hhE2mKMbm2HFMOIJsvkwoG8YQYR+rw3mhxcT5EbgaN26tRx11FHekmEEB+aBEVRo0aJF3hrDCA+HH364tGvXzlsyjPgBl98OHTrIoYce6q0xjOBA/SXdL9MujHBigtwIHLjsWOoSI4jgdkYUaiyJhhE2SG9KWj/DiDdoe8nQsnbtWm+NYQQHPyghXh5GODFBbgQOBI1ZGI0gwig3QQlJfWYYYWPZsmXmEmzELQyEImoMI4gQ/8DSnoUXE+RG4EhLS5P27dt7S4YRHBITE6VHjx4yYMAAb41hhIc2bdpIenq6t2QY8QV1kylvhhFE6PempKR4S0bYMEFuBA6si3379vWWDCM4EJCFUe6ZM2d6awwjPJCWx+Y4GvEI3knZ2dnSs2dPb41hBAfqb//+/dUgZYQTE+RG4LC0Z0aQsbRnRliZP3++ZcAw4hJLe2YEGT/tWVlZmbfGCBsmyI3AQVqdwsJCb8kwggNpzwYOHCijRo3y1hhGeCAHuaU9M+IVAmJZQE0jqNDvtcH88GKC3AgcrVq1kiOPPNJbMozgQNozovwS/MowwgYppdq2bestGUb8gMsvc3DHjx/vrTGM4ED9Jd2vTQkKLybIjcBBlElLXWIEEdzOsNCYW68RRjZs2GAulUZcQttL3dy4caO3xjCCA/WXtJLmgRRe9rsgr64tlqLKFbJu+6uyeutze/1Zt+1l2Vo2X6pqiyQitd5WjaYMac9sHpgRRBjlJtJvRkaGt8YwwsPSpUst7ZkRtzClYvny5d6SYQSLBQsWSHl5ubdkhI2ECMMu+4myqg2yOP8uJ6yf8tZ8PVKSmkuH5pOlR+43pXlaL9epNcN+Uwbr+GuvvSYXXXSRt8YwggEu68wDq66ulnbt2nlrDSMcPPTQQ3LwwQdraj/DiCfo6jJViAwXZ5xxhrfWMIIBfYe77rpLvvGNb0jLli29tUaY2G/KtrJmmyzMu32fxThU1RTJmm3Py/KCB9x2LZhXUycrK0sDYxlG0CAgC5GoZ8yY4a0xjPDQr18/TS1lGPEG3kk5OTnSp08fb41hBAfq7+DBg9XDzggn+02QF5bOks3FH3hL+04kUiubit+VoorlEnH/GU0XXNYt7ZkRVBDlWMgNI2ww2IRbsGHEG1jIid2xaNEib41hBAfqL2nPzGU9vOw3Qb69YqnURiq8pYYBq3tJ5SpXMy3sf1OG1CUFBQXekmEEB9Ke9e/fX4YPH+6tMYzwgOChfTaMeISAsBZQ0wgqW7ZsscH8ELPfBHmNE+P7w5K9v7ZrBAfSnk2aNMlbMozgwDwwIlGvXr3aW2MY4WHChAmW9syIS3D5JW7HuHHjvDWGERyov0cccYRO2TTCiUVHMwIHo9yWusQIIrid4dJrHh5GGMnLyzOXSiMuoe2lbubn53trDCM4UH8ZzDcLeXgxQW4EDuaQk/7BMIJISkqKpKamekuGER4WL16sefYNIx5hMJTUfIYRRIjRYQOe4cUEuRE4EDOW9sEIIsnJyTJgwAAZNWqUt8YwwgNRrG2wyYhX0tLStI4aRhBhuiZ9CCOcmCA3Akfz5s1l2LBh3pJhBAfczRjlnj59urfGMMLDoEGDTPAYcYmf9oygmoYRNKi/BIO1tGfhxQS5ETiKiopk9uzZ3pJhBAtEuc0DM8IIU4ksirURj1jaMyPIWNqz8GOC3AgcpNUh/YNhBA3SnvXt21eGDh3qrTGM8ECwQkt7ZsQrBIQtLCz0lgwjWBCQ0Abzw4sJciNwMH/8sMMO85YMIziQ9oxI1OvXr/fWGEZ4OPjgg6VNmzbekmHED7j8kpLvoIMO8tYYRnCg/h5++OGW9izEmCA3AkdVVZVZyI1A4rtNWuodI4xgIccKaRjxBm0v3htmITeCCPXXLOThxgS5ETiYQz5v3jxvyTCCBW7rFinVCCPMz7W0Z0a8wmDokiVLvCXDCBZz5861OeQhxgS5ETjI42yRfI0gghAfPHiwjB071ltjGOEhOztb22fDiEdIyUeWFsMIIvR7GdA3wokJciNw0OkbOXKkt2QYwQF3M0a5P/74Y2+NYYQHghXm5uZ6S4YRPzAHl/gzDIgaRtCg/o4ePVoyMjK8NUbYMEFuBI7i4mKZM2eOt2QYwcLSnhlhhbRn27Zt85YMI36wtGdGkLG0Z+HHBLkROAgaRKRqwwgauJv17t3brDRGKCHYpgV1M+IVxAyBBw0jiNDvtcH88GKC3AgcuEQecsgh3pJhBAfSnhHl1waUjDBCSqnWrVt7S4YRP+DyS0o+3H4NI2hQf0n3m5mZ6a0xwoYJciNwMEKI65lhBA3czrDQbN682VtjGOGBCOukpTSMeIO2l7ppWQCMIEL9ZTC/pqbGW2OEDRPkRuAg7RmBsQwjiDDSzccwwsbChQttDrkRtzCQv3jxYm/JMIIFsZNsDnl4MUFuBA5SR1nqEiOIUHeHDx8uEyZM8NYYRnjIysqyHPtG3EJKPnP5NYIK/V5LexZeTJAbgaNFixaWx9kIJEy3mD17tnz44YfeGsMID6SjJLWUYcQbeCW1atVKhg0b5q0xjOBA/T344IOlWbNm3hojbJggNwIHac8QNYYRRCztmRFW5s+fby7rRlxiac+MIOOnPSsrK/PWGGHDBLkROEirY0GxjCCCu1nPnj1lwIAB3hrDCA/5+fmW9syIW5h/S2o+wwgimzZtssH8EGOC3AgcOTk56rpjGEGDUW6CElqWACOMkFIKt2DDiEdIyTdixAhvyTCCAy7rxJ6xGAjhxQS5EThI+4DbumEEDfKQY0XcuHGjt8YwwkNJSYlZcIy4hb5DaWmpt2QYwYHBfPq99CGMcGKC3AgcNEqkfzCMIMKLlY9hhI0FCxbYHHIjbiGPs80hN4IKc8gt7Vl4MUFuBI7ExESLNGkEElJC4dY7ceJEb41hhIeMjAxLy2PELbS/1FHDCCK4q+O6boQTE+RG4MjNzbU8zkYgwZ131qxZ8v7773trDCM8HHTQQTpP1zDiDYRMmzZtNDWfYQQN6u8hhxxic8hDjAlyI3AQFMvSnhlBxdKeGWHF0p4Z8QrThCztmRFUqL/msh5uTJAbgYO0OqR/MIygwXSL7t27S79+/bw1hhEe8vLyrMNoxC3kcCaopmEEEYLBVlVVeUtG2Ej6jcP7u0HJL50uhWVzJBJpWEtQ26zxkpMxSBISvjpPDavTM888I3fffbe8/vrrOz4IuK5du0pKSor3zfohQuyTTz4pnTt33ut5Ruz3rrvu0v0RcKxt27bqWo2byZIlS+Tjjz+WHj16aIfc2DcYKWQuGNfTMIIEdZeXKpF+O3bs6K01jHBAZ5H3p7lVGvEIEarT09O1jhpG0KB9pd+bmprqrTHCRKjUIY0t4peASZdeeql+vvnNb2rk13feeWe3I0uU43KHgN8bnnjiCbXY+vvs37+/PPTQQ+oaRQecyJ7Lly/Xv419h/u8t/fIMOIB6i5WxPXr13trDCM8VFZWamopw4hHrO9gBBX0A95HpiPCSyjNtYx+9unTRz/Dhw+X008/XT788ENZu3atlk+fPl1OOukkOfTQQ+W4446TV155RQoKCuQXv/iFvPbaa/LLX/5Sv8tvEPR8j899992nv4+FFFxvv/22jB07dsc+J02apNbxFStW6JyPK6+8UkX7v//9b32gmP987rnn6jZ/+MMf6pxoBgPYzm233SbnnHOOXHPNNfrdm2++ecf+2c6qVat0v5TxHdZ///vflz/84Q/y6quvaoeIFw7nQNlZZ52l2w1TJ4nrZWnPjKDCC9VeqkYYsTnkRjxjc8iNIIN2sClB4SX0/tO4jHfo0EFatWqlHQUE7YMPPih///vfZerUqSqIP/jgA51bdNNNN8lRRx0lv//971VoI9wRtu+++67cfvvtavVevHixt+UouI706tVLnnvuObV6MT+JUVi2e+yxx+qAwF//+lcdFMB6jkh/9tln5ac//ala7Y8//ngV0xwbLwt+jwi/8cYbdX/Z2dny1ltvydNPP61ugPyGY73zzjulU6dO8sYbb8iFF14oK1eu1PW4wnIeU6ZMkWnTpsnvfvc79RDguMMiAnD7N5cdI4gw1WLMmDE6aGcYYYN22aZlGfGK9R2MIEPdtbRn4aVJvDnpBCNmEdndunWTW2+9VVq2bKkjpViT65tbjtv5j370I/2+P+pf35xPHhCENg/Jr371K7nkkkvkuuuuUzHPnPRYsF5j2UXA9+7dW18Ohx9+uFrT/VFb9ocIh4suuki3t3nzZhXynAPznxDuLJ922mmSlpam2yJIFNtbunSpWvv5LumVOG4GCHCZZ/9hgOt12GGHeUuNC3WKAY9YqxADH9yjLVu2qGcC13/16tU6WPJ14PfUAbbXUIMq27dv1/oR+1m2bNlup3XEKzxrTBuJ9+MnzsXMmTPlvffe89YYRng4+OCDNbWUYcQb9NGI7UNqPsMIGtRfBvItPkd4aRKCHEFDRxjhjQDH4v3444/Lo48+qhZnxEldEFoEYnvsscf0ey+99JKKrPrIyspSEY5L+rXXXqsdkkceeURFeayrOMeAuwkimkEC4G9fgNdlzZo18vzzz8vDDz+sFnIGBhAcvtBnv8B5NW/eXLeJGMfdHos9geZeeOEFPRdeRElJXw2EF0Q4n3hwWefefvTRR3LLLbfIyy+/vONeU99mzJixw5uBe0bAP3+6wd5CnWUqBdtrqKkH1CW8MJ566imtJ3zwyGCaRkPt40DBIAUDTtyDnT2j8QTtQFAHPgxjV9QdnDSMeMEfKF+4cKG3xjCCA/UXw4m5rIeXUEVZ9wUSFuP27dt7a6Pzht5//311H0fMIjywUp9xxhlqCSfq8ZAhQ9TajSDBpRT3c1zFEcvnnXeezsf+5JNPZNy4cer+7oOLOZHVSWWEuMaNfMKECdrhRlAPHjxYLXfr1q2TESNGqBUSwda3b18V0litcZln3jvHhvgaMGCAimeE+IYNG3R7HCvijtEx9sVxYo1gGcsrAjAnJ0c/7Ov6669X93ss8IcccogeV1hcCQmKxWAJ59WY0PHk3lHfPvvsMxk9erRG5+eeMZ9/7ty5Wn+YTkAd4f4R7Z97S91iusGnn36q9aRnz546oEIAwDfffFPLEc1dunTRejJv3jytk3hGsE+gjtd1X6IOId75PXWCus29r+umx7Y4jquvvlqOOOIIrSetW7fW42ZAiQEc6imdFwajeK74PtM/gP0wJYJ9cZ48Ey1atNDvMcDFNjhfln03QY6JwRRiNjCFgrrLMXJteC7wDuEZ4jus4/tcH54NBp8YbGJfXBemm/A8cm4cJ8fBAJgfQbfu+cYbXCuzJBphg2eW55i2xDDiDd7NvNN4VxtGkECQY3RAx5iVPJyE3kKOWEX40EFAwCDOmzVrpnO36bwjKhAtsVDxCRyGyDj66KNV5CIiaMzrgthAdGDJxvIFCBFEY12rNCIB8YYFm48/4oUIq5uGg8EFRBOiE+GNyzOuroyO0ZnnXBAlCH8EOEKN3/gpEXzR5osbBB3CJQxw/vHwQuW6IyAZpEGI+9MOqFfUGeqP/y+Csl27dnoPENwIUsQk6/Bm8OMYMNDCdhHi1K177rlH6zD3EeHOuVN/CRJYtz4ikrF0U2/oFCP4qN8I1z2xejMQxEARwpbj5Hw4Vs4NIf7iiy+qgKbOURcRx9Rbzpd0gTwz/Na/DpwP50Vdp95ybAhszhlvAeIg8JxwrNRPyjgHPAFw0WfwAs8PgikixnlOOAauHdNHuCb33nuvPndMY+DDVJTYZy4eYRDORrmNMDJs2DB9Dg0jHuH9gPHFMIIGxhemW9D/M8JJKC3kuJnTcUcAIEYRAAhwRDkWS75DRx5xgWhG2CBEEEFYXolKjuUckfvAAw/oduhoIObpbBBJ3QcxgpDBDf4///mPBmxDBNHoM8+Zhwdxg2BB+COusYSyf1zhEdoXXHCB7puUbb6FnN8h4tgm7ur8luOnI88IGceLkCNAHceJcBk4cKDOJceC/r///U/d8jkXfsdv2GZdi2oQQaAiWhncaCwQm9xnrql/bbEkjx8/Xu8bVmLqGt4WDJ4QbZ9Ae9wbOgXUJz7cLwQsgzOIbSzt1Bu2wz1G8LKeuoEoJjsA3h2IVrYVG9cAAc+9xhMDzwys7ohzBCB1I9ZDguvHh4ENX8BSN6h/PBccG2KakdgTTzxRBg0apMfIQADbYv9+cDL/2eG8ENWcN3WYa8T5+BYzBsbIaoC3Cc8qdZrlUaNG6bY5R8Q/9Xny5Mm6nucQd3TmzzPAwN9cG64RyzybpDnk+nOePF9cr3iF88ZCw0AE994wwgTPJ8+6P53KMOIJBo15l/BOMowgQR8JYwSGCgxBRvhIcDd5v4TeXph3uywveFBqasu8NQ3DoHZXS/fcMyUx4auB2AAREBu8DJFB5cVq7ItR/zu+Ky0WNr6DUKaMZYQB/yJQgA4/lkG+U587bOx+2Q+/94PFIcgRkeyP9XTK+T7rEUOIHn7D77kd/rFSjhWQdeyXD+sYBAC2wTHxL67GCCNG0NgPlkb2w3b4fn3HHFQQbAxw/OQnP/HWHHgQs1iPEbSITwZrSJuHCziCGe8FXNqZNkA9IJL+2Wefrd8FLL5/+9vf1CJO3fjOd76jAo1lUu0xiOTD/eV8qYMIcuokmQBOPvlkTbdXF+rMb3/7WxXD3Pvzzz9fo/xTf3ywmjP49L3vfW9HPQWs3gzkkEoP8T106NAdAfSw0JMBgGCDDBJdfPHF+nKI5R//+IcOIpx66ql6jgwo8XuENRkLSN1HPWXfuKmTiYBBLpY5Jr5HRgOunf+8UucJnEjdZtCDQQAGHDgepmbccMMNev0ZSGDgLZ5dwXlemT7DgA330jDCBGk7jzzySBtsMuIO+lHEOKD95X1rGEGCftCf/vQn7XfZdLdwEjqXdQQvFjL/g7UOse137sH/DlZlyhDEvlihzA+Qhpjxt4NoQRDtTNjG7pd9xoocBDIWA37PcbBt9sF3We8fG9uOPVZ+x7b4HsdIGftBcJFWDfHEdxCHiDossQh8fs92/WMJmhhHaCGwGFCoD86P824sGKhhHjMB0X7wgx+oNZeI94xeMrUhdkCoLgyU3H333Sq6sToTdI9c8bH4939vQbiTzu8b3/iGWpGZb0S++70B93Lq0YGoM5xnfedKh55BAQY8+ODlQW7+IECnj5gBCO/6xjp59hlE4RwNI2w0ZrtsGLujsfsOhrEvWN0NN3Z3Awhi/oorrlBrJIIQYYjVkPnjYQBrKbnbcXFmLnFdgYtrNIHIGgsGP3C3ZqoBUyIQjHz+8pe/qNWXY94ZuMwhysgVf+aZZ6q1Gxc6OgqcF0IYd2bEHOeNuNuVwI+FOdYMyGClOuWUU1T8s+09hf0S0wCXdAZ/cD1lOofvzYFnAi8Ef1487vAcJ+ITIc+5cG7+95lewbr6hGl9cA3YJ3AN2Qa/ZT9ctyDAIBLTXBh0YV48x815+DCYgyUfl3/DCBtMR4n17jGMeIH3C4PNDFYbRtCg/jLt0aYDhRcT5AEFl8D7779fP7gv4+obJpiL+N///lctvohegoD50wfwEJg9e7b+faBBICLG+RBLINYTgmUGRRBiCFrELC5yCDJELC7kuHHzG/5mmgFWbIQuLszMEWdeODmqKWOghRgB9aXlqw+8JxDMuL1zzbAu40XB7xGCsXAeiH0GPfguH2IS4IJOh4VtMY8cYYwVn5gMiEjc3wlGxzx1XMw5fuImkLmAAQHqIeePaznHwfnuKRw7548oJ2o62+aDtRyviV2BNwvil/NlIKIxYSCC68qAGZkSCIDHtfHhXjCIYRhhg/YO7ybDiDd451E3Le2ZEUSov8QisoCw4SVUQd2McIA7OIHOEC5YeFlGkCPEEbo0SETzbqy0ZwhcjoN5zPzr409z4F/mkTMPGjGOSGeeNOdA8DNEJ2Idyy9lxxxzjIpRBD0j+IhYxDKWZuadY3FidJQAhHz4GwjaxrQEH0Q0wp/fkmoPcY07PVZ39hs7eMBxYRFHKHKN+XAsBFnj++wDiz1THhgwIL2fH2gNKzyimQGSpUuXqgDmd35kdyz6CGgCznGN2C7bYZsMJDF1g5cLI72cG8flL3NODEzQccLqzr/Mw/fn3nO9maPujxJzrSlj+9QLjoVz5T40BlxXAjxyvbh/DCxRl7kfnKM/7QUvF+6lYYQJS3tmxDO8cxk0srRnRtCg/4Chw9KehZdQBHWjs4vFEQFkBB+E65w5c3ZYxH0QM4gtBB7ik3nYxp7BY17fZ1dlsZ9dfW9XZXx2Vb6rMj7gu3zXV1Z3XewHdvXbnZXtSbn/qVvOb/AcYKCiLgxWMOBA/WVQhsENwwgTBLPES4aBRcOIJ2if8WyjbWZqhWEECeovnpMTJkzQAX0jfIRCkGONQsTt6VxbI74hdRbzyOsKciysWJFpkHD5Jcr43sL8b7btiyf+3ZOP/12ou253n7q/3dv9+r/zl/kXdrWd2N/5cP1863p9fzdUWd3l2L+/Thn4wUz8stjyun83VFnd5di/d1bGdSewH14FdaGcjqCfl96irBthwwS5Ea/wLkSQE+elsbzrDOPrQv01QR5uQiHIY0WKEXyYO/3888+ryy8gZHBjJh/2yJEj1aWbecukGNtbEPls2xdSu/ogAv2/IXbZLwf/79iy2M+uyvjEbsdfji2P/fhlsKf7BP/f+thZmf1m79czzeKPf/yjzqOPhZRtCHDqMUHdmO9ugtwIG3fccYdObbG0Z0a8QR+R+eMffPCBpo4yjCCBzvHTzlras3ASujzkRvAh/zUBxhDPuKmfccYZcvjhh+vfEA95yA2jPhDkN954o065YFCE+e3kZCfFHXPvaW7x5OHfxprnbhj7CzI8kAEjbEFGjeBDm2t5yI2ggiC3POThxqKsG3EHgbpweSSgGZGqCRjmi3EgYBCBvgwjHiFIHUL88ssvl5/+9KcydOhQFeOAYGdKBmnyDCNsMHBq7upGPIJXEx5KNn/cCCLUXwIAm7t6eDFBbsQduDti/SaXdn05F3H3bay0Z4axK3hpjhkzRn784x/rXK/YgSQf4h9Y2jMjjGCBtOCqRjyChZysHWS9MIygQf0l7Zk/ldMIHybIjbgD62Jseq+6kN5q3bp13pJhxA9YwnHZjU1HFwtu7KSDI8q6YYQN0jlah9GIVwjqSmA3wwgipIK1wfzwYoLcCBy47OAGbBhBBFHOxzDCxsCBA3c6GGUYjU1ubq7FNzACCQYqcpCT8tcIJ9YrNAIHYoZ5uoYRNAjMsn79elm5cqW3xjDCA/E/bLDJiFcQNdRRwwgi1N2deY4awcfenEbgYA45UawNI4ggyvkYRtiwOeRGPGNzyI2gwhxyYifZlKDwYoLcCByIGVJHGUbQwLNj/PjxcvTRR3trDCM8ML/RBpuMeIW6aXNwjaDip0w1wokJciNwkIORVGiGETToDE6fPl3eeustb41hhIcjjzxSU0sZRryBq2+nTp00NZ9hBA3q74knnijZ2dneGiNsmCA3AkdxcbG5rBuBBVFuVhojjMyfP1/dgg0j3rC0Z0aQof7OmjVLswwZ4cQEuRE4mEOzZs0ab8kwggMBr9q3by9dunTx1hhGeCBgoc1xNOKVkpISTc1nGEGEfq9N1wwvJsiNwEHas8GDB3tLhhEsUlNTJS0tzVsyjPDQr18/c6k04pacnBzp27evt2QYwQGX9SFDhkh6erq3xggbJsiNwIGV0RolI4gQVGjt2rWyfPlyb41hhAfa5aSkJG/JMOIL6qYNhhpBhRzkllYyvNidNQKHpT0zggyi3CJRG2HE0p4Z8YzNITeCCnPIP//8c5tDHmJMkBuBAzFTUVHhLRlGcEhOTpZx48bJlClTvDWGER6Y32iDTUa8UlNTY3NwjcBCv9fa1/BigtwIHKQ9O+GEE7wlwwgO1dXVMmPGDHnnnXe8NYYRHhhosrRnRjzipz2bNGmSt8YwggP196STTrIYHSHGBLkROEh7Nnv2bG/JMIIFKc/MSmOEEdKemcu6EY9Y2jMjyJjLevgxQW4EDtLqrF692lsyjOBAQJa2bduqpcYwwsa6deuktLTUWzKM+IK0Z6TmM4wgsmrVKhvMDzEmyI3AkZWVJQMGDPCWDCNYECk1MzPTWzKM8NCnTx9NS2kY8UiLFi2kV69e3pJhBAdc1gcNGmQZhkKMCXIjcBAYC1FuGEGDgCxr1qyRpUuXemsMIzzQLqekpHhLhhFf0HewwVAjqNC+Wtqz8GJ31ggclvbMCDKIcouUaoQR5pAzT9cw4hGbQ24EFZtDHn5MkBuBg9Ql1igZQQQLzdixY+WII47w1hhGeLC0PEY8Q9/BUqYaQYV+r7Wv4SUUgpyRIyIXk1LICD8ExTrxxBO9pa9Cg2UdQyMeoY367LPPZNq0ad4awwgPRx11lHTs2NFbMoz4gTm4nTt3tsFQI5BQf0855RRLexZiAi3IEeKkwFq4cKHcf//98umnn5oobwLsLO0Z976goEDzPP/973+XFStWeCWGET9Y2jMjrJjLuhGv0F8sLCzU/qJhBA3q76xZs8w7NMQEVpD784gff/xx+cc//iEvv/yyCjUj/JBWh/QPPrihbd68WT788EO555575NZbb9XBGcOINwjI0rp1a+nQoYO3xjDCw9q1ay3tmRG3kPaM1HyGEURWrlxpg/khJnCCvLS4XGbOnCWPPPKI3HXXXfLSSy9JXl6eV2o0BYiS2rdvXx0xzM/Pl3fffVc9JP73v//JRx99pBZIw4hHcDsjLRTpdwwjbJBSytKeGfEK7r49evTwlgwjWPTv31/S0tK8JSNsJDhRE/H+blAW5t0uywselJraMm/NvlFZniibV6dLwZJhsnlNkqxfv8Er+YLvfve7On+NUVAqLVao9evX64hSt27d1JVu27ZtkpqaKp06ddKRUsq6du2q6/mQsqVLly460k8Zc46wvPNbAjLxXX7HHGW2gTUAN6ikpCTp3r27/o4yjgPXEsrohPfs2VPTHVHGcbFt3KuBTgy/4/vt27dX1+stW7ao4CSvK7+jrF27dmoN9ssQpatXr9Yy5lWzjjLmTlPG78rKyqRNmzZ6DIhXyvr166e/owxrHcfOoIZfxu84r1atWuk58zv2S2PA7yhr2bKlXkd+Rxl5wbFaU5abm6u5EinjXNgm58d9ycnJkWbNmqlFmzKOk+tJGSIFse2Xce4bNmzQ608nj5cpZVxTPnz/448/1lFDlmPhfM8//3y97uyTY0Gos8zfeFhwHJzjpk2b9H7woub6bd++Xcu4Nhs3bvxK/eHcuN5+WWz9od5xDynjXlPG9vgt14t775dRzzg3jp16R32ijPtJveNaUke4B3yXa0GZX7co496xD78stm5xDThutsm9jq1blFFfKWM/1C3uP/cauE5sk7K6dYv66pfVrVuUsU3uJ9cPi7Bf1rt3b/0dZXXrVuy9rlu3YsuoW1xjfufXH8q4n9xncnz79Y7fcSyUUVe4p34Zx8J9p4x6RToRv45wDvzNfYutd3794Tpwr/kN2+W7fv3hulNGPfbrHWVca+oAx03KM3530kkn6bU2jLDw/vvv63NHm2EY8QZtPlPZxo0b560xjGBAH+ytt97SoLCW9jecJP3G4f3doOSXTpfCsjmuEjXMnO7KcifClzaTBZ9WydaCEm/tlxk9erSKBAQe4oROL51fOsV08um4IwwRJ7FldPLpcPtClGXKWEenmk40ZQgChIRfxjbogCNS6dgjTvwyOvEILcro2NNBoYwXAg8TnXbK6KQjlJYsWaJldOT5PmVsG4Hl/w5BwTH4ZQgz/3cIEY4dUUwZ4o4yBAkCknP2yxB7fhniBnFIGUIjtgyRiAhB8FKGKKSM64iYQtj4v4stQyQiwHjx+dtctmyZDo74ORTZJteVsuXLl2sZUM7vKOPc+R5lNEZslzLuBfvifLGIc6/rgkjkfnCcfDhO7jX3gTpAHUHscf5skzK+z74o57y53hwbZdx3v/4gsLhP/I57TRnXi+PiWLi/flls3aKMesE5cc/8usX95FyoT/yOMv7m2nHclPFdvyy2bvki1S+LrVvUSY6NMo6PMuoW2+Q7nK9f5tctytg2Ap0yzpkyjoHjpv5QX/2yunUrtoxryzn7ZdxPv4y6xXWkjPOMvdeUxdYtyvibe8a95L6xzLXjGeB3lFF3qHexZf7vqA/gl7FNrpFfxoftUMY5cJ/5UO/YLr+jHnBd/DL2Vbducfzca46RQQXKuP/+4A779O8vg1iGESZeffVVfbZodwwjnqAtp90mddTw4cO9tYYRDKi/zz33nAwaNEj7ZEb4CIyFnKOsrkqUFhXnyNyPEuW9aR94JV+AhXz8+PE7Oti+aOQU6eTTSaYTTZkvNv0y1lP+dcuADrhfxr7590CWAecLiCHKfNEA9ZUhcjmvr1vGsbD/hihD+PDxyzg/9u2X8VuWEXXPPPOMXH755TJ37lx58cUXvxKohe9ff/31agndk23urqxuPeCaHsgylrlOlPE9/t1dGeyu/rA/9rO7MmAZ9rTMv9dft4xj4Zj2dxn3em/qCN/jszdl/v1kmQEwyhhYMYwwQTyXKVOmqDeVYcQTtMMEHXzvvfe0r2gYQYL+w4033ijf+c53zAMppARGkPsMane1dM89U1YsXy1PPfWUphDyO9I0socffvgOkWCEEyy5WCF9CyMW2unTp+voISPgviD6wx/+oO7HhhEvMDjyySefqPfCMccc4601jHCwePFi9TCxwSYjHsEzDC8o6xcYQQONs2DBAq27GLKM8BHYKOtUyiuvvFJ+/vOfy5gxY9SlF6uTEX4Q5ETY98Fd/7DDDlOL+EUXXaTzdXEpN4x4BFGOu75hhA06jIgew4g3EDRMEbS0Z0YQof6S9gwDlBFOAp2HHDdQ5gL94Ac/kEsuuUTnMWMZNcIN85lxW68LVpmjjjpKrr32WjnzzDNtno0Rd+A2TzwLczkzwggxEgjaaBjxCIP5eNEZRhCh32uD+eElFOoVayiRB/35wka4QWhzr3cGQc5wBya4kGHEE7RP1E+CvBlG2MA7ySIAG/EKWTPIPGIYQYQMFuauHl5MvRqBg+BZJmiMIEJ8A0a5zW3SCCNEV7cOoxGP4J1E3WRA1DCCBvXXzxxkhBMT5DGQXozI3XU/pNbaXew7oidPmzZNg8wZ+5e6c8gNI0gQLZWPYYQN5pAzT9cw4g1/DvmiRYu8NYYRHKi/pOyzOeThxQR5DH7e5h//+McaLI7PN7/5TXn44Yc1R/GuoINNnmEieBr7FwY/bJ6iEUQY3R41apQGITSMsEF8D7xADCMeoe9ggsYIKvR7bTA/vCT9xuH93aDkl06XwrI5EolE8ww3FG2zxktOxiBJSGj4iOoI6nXr1mkeVdyaCBJGCpdly5ZJeXm55lbFOvvvf/9bfvjDH8qdd96pLiR9+/aVJ598Um6++Wa1EDCn/dVXX5UtW7ZIjx499AF69NFHZfbs2dKxY0d54YUX5Pnnn5drrrlGOzCrVq2Sp59+WrdHqi7WDR06VIPWGV8Fl3Wuo7mtG0GDDuHMmTO1TdlVHATDCCIMaBO7w9zWjXjDd1mnfprbuhFECAaLJjG39XBiFvLdQIqiiooKFYH8+9prr0mLFi3k/fffV9E9d+5cdSM57bTT1KJ+2WWXaaTvXQWXozPOg/X6669rhHhEPoMBt9xyy45c2mzXqB88GRjcCAszZsyQSZMmySmnnCKnnnqqfk444QR57LHHdhtRk4Gixx9/XN544w1vjRHvcE8tUqoRRubPn28u60ZcYmnPjCDjpz2jz2eEExPkdUAYf/zxx/Lhhx/q580331TBjMWaxhwhiCBnrvjixYulXbt2Ks73BvJmYzn3R7mIGn7QQQepxZeRW6wM5pK9c/AgWL58ubcUDk488UQV4HhK8MEL47333lOPC8CyiieFXy83b96sDfSmTZs0SBjphvLy8vQ7TJugDM+MDRs26AcBSN3mu5988ol+n2WuI3WabfJbc4fav2ClycnJMe8OI5TQhti7y4hX6MutWbPGWzKMYIExD8OgEU5MkNcB6zTB2d5++211IX/iiSfkrLPOkk6dOunIFC7t06dPl3feeUc/BQUFMnDgQO/XxoGAAQwGNMIMUyE4R2IXMCeTgINMc3jrrbfklVdeUdHOABFie8mSJSqsqZus//TTT1VYI+Kpx9TT7du3yzPPPCPPPvusTJ06VRt2rOrU8XfffVdefPFFue+++1SkG/sPPGe4t5aSzwgjXbt21SlbhhGPkJKvc+fO3pJhBIuePXuqt64RTkyQ12H06NHyk5/8RN3PmSdOXlXf4siDQIfjvPPOk1/84hc7PkcccYT3a+NAwDww5tGEGV9sc56M6hPpHy8N6ht1k7qIBX348OE6ReLwww/XGAdYYHfGtm3btD5fddVVcuihh6poxyPjW9/6lq4j2A0WLmP/weAKgye49hpG2GAqVnp6urdkGPED70a8E6mjhhE0qL8M5FtsqfBignwnJCUlqQAiIvL999+vVkhc1RE0CCHc8rBAvvTSSyqWYuG3fBdrO9/BOmlpuhoO5pCH7XpipUZoX3311fr505/+JCNHjpTBgwerkMal/JFHHpGf/exnct1116mVe2/d9mnIEeB+fANEPdYCPA7oqGDZImaCsX9BlFskaiOMMMWG9sow4g2MKoWFhTaH3Agk1F/iVdkc8vBignwXIFiIuD5ixAiNoE5HY+LEibJ+/Xq54IILNCUac3GJso4IR+wQYItgbePGjdN8l3zvL3/5iwwYMMDbqrGvMMiB1ThMDBs2TL773e/KJZdcsmMUFKs3IhnxxgAP9Y0ggHyuv/569dQwggVxI2hPJkyY4K0xjPDgD1QbRjxC3SQGjWEEEfq9NpgfXhIiDLvsBxbm3S7LCx6UmtqGzfk4qN3V0j33TElMaHi3DVx4+dRNKeBbtHxXEf72g18hxPkA6yjDAsmHxp/Li6uJb5XkX74Xu85/wPzt8Dt/G8ZXoVFiICQsc/eJss48byL0MwhEcDYGcbCOI8IJ4HbvvffKMccco14bsTBaytxyBoMOOeQQDQbXr18/HUiiXhEDgXp05JFH6hxxPD74HvWSMr5DjASCvt16663qym45svcfPNvEoMDLg6kGhhEmGIRmQJGUoYYRb2BU4f1qKSeNoEGfjaluvXr1smlBIcUUXwwIl/ry+yGUEUqIaD58h2U+vogGfo9oZx3f42++46/z1/NvrNj2y3zYvonxnYMVJsxzcAn6deaZZ6pgJigb1nE8LAi8RjA2PDT+8Y9/aHA3v05yTXA3xwUdd37mn+PSXnc6hdG48FIlSqq5nRlhhMwjTNEyjHiDthdBzvRDwwga1F/SIVuU9fBiqs8IHIhPhGlYaN68uQrp2EEY3Jq///3v6/QHOrhYrUmxd9NNN8mvf/1rjcCOFZzBHv7Gyk50db7HgM7//d//yQsvvCCnn366Cny+xz5IueWLeNYT4MYfJOrSpYuKf2P/wbXGeohHg2GEDbJChG06kREe8EzCu84wggjZdkyQhxdzWTcCB9ZfXLzPPvtsb41hBAOmq5BaDm+Gbt26eWsNIxw89dRTmqmEbCSGEU/Q1SWLCB5kJ554orfWMIIBfYeHH35Yjj/+eDWsGOHDLORG4GD+jOUSNYIIc/bx7sD1zDDCRqdOnTRrg2HEG3gnUTeJcWAYQYP6ixcj3o5GODFBbgSOMKY9M5oOiHI/kKNhhAlie2zdutVbMoz4AQs5dZPAg4YRNKi/lvYs3JggNwIHkaotcJARRJjfT4q7gw8+2FtjGOGB+eO0z4YRjzBVyGIcGEGFfq8N5ocXE+RG4CAY2XHHHectGUZw4GVKJGpGug0jbJBe0VyCjXgEl1+mVBx++OHeGsMIDtRfYh9YSsnwYoLcCBylpaWWusQIJLidlZWVaR02jLBBfASmFBlGvEHbi4WRTACGETSov0y3sCjr4cUEuRE4SHtmgtwIIoxyk+bO0ssZYWTFihXmEmzELQwWmSA3ggredSbIw4sJciNwWJR1I6iQax63yZ49e3prDCM84K6ekZHhLRlGfEGU9fbt23tLhhEsLMp6uDFBbgQOOnzdu3f3lgwjODCHHO+O2bNne2sMIzyQfzwzM9NbMoz4Ae+krKwsG8w3Agn1t0ePHpKamuqtMcKGCXIjcOASaWnPjKBiac+MsELas23btnlLhhE/MAe3sLDQ0p4ZgcTSnoUfE+RG4CB1iXX6jCCSlJQkQ4YMkbFjx3prDCM8MEeX9tkw4hHqpgUdNIIK/V4bzA8vJsiNwNG6dWs55phjvCXDCA61tbWyfPlytSQaRtiYNGmSzdE14hJcfjt27CiHHXaYt8YwggP1l3S/BIU1wokJciNwkDYKUWMYQQO3M7IEmJXGCCOrV6/W+m0Y8QZtL9Pd1qxZ460xjOBA/SWtZGVlpbfGCBsmyI3AQYeP9A+GETQY5SbSL8GFDCNsWB5yI54hDzmp+QwjiFge8nBjgtwIHGlpaZpexzCCBmnPyBDQr18/b41hhId27dppWkrDiEfI0NK2bVtvyTCCBVMuLO1ZeDFBbgQO0ur07t3bWzKM4EBAFka5Z82a5a0xjPBAWh7z/jDiEbyTmH/brVs3b41hBAfqb58+fdQgZYQTE+RG4MAl0tKeGUHF0p4ZYWXBggWWAcOIS5iDu3XrVkt7ZgQS6u/s2bM1hpIRTkyQG4GD1CW8WA0jaJD2bNCgQTJ69GhvjWGEB8S4pT0z4hUCYjGP3DCCCHn0bTA/vCREGHbZDyzMu12WFzwoNbUNO5ozqN3V0j33TElMsHkUDQ0vq7/97W/y3nvveWuidO7cWX7xi1/IwoULZe3atXLeeeft8TyWDz/8UJYsWSLf+ta3vDX7Di/UpUuXysiRI701X5+CggKZOnWqDBgwQPr3769uQV8XPwom53zSSSdJixYtvJL44t1335U///nP3tIXkA7me9/7nk4J2BcIOvL2229LeXm5jBo1Sh566CE544wzpGfPnt43Gg6iOj/wwANy6aWXajo8H6Lp3nDDDV+xhlB3uTd74/bFC/Dll1+WRx99VNq0aSMDBw7U1E6DBw+Wd955RyZMmLDHUyiqq6vl888/1+Pjd88++6w88cQTUlpa6n1DdLucD66Vzz33nL6EL7jgAq90z+F5vuOOO+SEE06QXr16eWtFgxrde++98uMf/1iys7O9tbvnrbfe0gjF559/vs6Frw/u/X/+8x85/vjj1X15T+E+vfrqq1r/GGx78803dZ798OHDd7ovI/7AgtOlSxfJzc311hhG/MD7fsOGDTooahhBgv7lZ599pv0PYiEY4cN6OsYOeOCJYH7TTTepUPA/t912m3aypkyZIhdeeOEOMc73Y8dz/OXYdbjX1HVhrO97PntShtBDiO3ue3sCYgsX+F2lkvC3V3eb9a1nO5xv3VHM+n4P9W0jltiynX3PX19fWX1wT8hnGXuP+Vx99dVfEuN1t7mzffjr/TLELnniTznlFP2bTtDOrGaxv/V/77Oz9eCvZ7tbtmz5yvUm3zf34p///OeO87vnnntk5syZOlhAub/d2O37241dxwAQQvRnP/uZ3HLLLXLJJZeoyGXflMXWnfp+HwvrqW/UEf/v73//+/LMM8/oMT755JMq1BHpdBwZPIgV47vbfix8BzFf99qznJ+fr9cglp1t11/PoAHn63/HX+9//HXss+7zFPud+kDI8zu+w71kPzznO/udv35Pynb2PaPhWbdu3ZcGlwwjXqANoH+zfv16b41hBAfq78qVK3falzKCj1nIjR3QKb7xxhvlrLPOUotxXRAMWNe+8Y1vqGUQKzXWb6x5BPLBuo7AwBr37W9/WxuOm2++WTZu3KjbHDFihFoa/bRlOTk58qtf/Uq/j0B45JFH5I033lArNdu77rrr1Kr61FNPqWU+Ly9PLTATJ07UbdI4IfjYNsKFffPd1157TQUBFl+Og/3sDLb50ksvqSVu6NChX7KQc5yvv/66njdWOzqaiDGEJvv+3//+J/Pnz1cRi2WPgBu//e1v1ZMAwXbiiSeqsGL/HBMDGUcffbScc845up/nn39enn76aRUeWAG5rmeeeaZ88MEHOhcTK+r7778vrVq1Ugsz15y58wi273znO7pdlv/1r3/p9SB694UXXqgW1l1ZFbFEcvzf/e53vTVfhvPlHLDmfvTRR7o/vAe4togmrjXX1b9neARwr3HHxiqNZfTFF19U4X/IIYfo8V100UVfiizOtufNmyf/+Mc/VFDTDGG1wGrLMveE6+/PmeJ8GUTgd1hqH3vsMT2Wgw46SO8hHhxEePZB0F1//fU6yMBgkg/HxfWeNGmS/OUvf1ELMXUaq2/Xrl3l7rvvVgs258IxU2c5R64Jo9KIZ75PpF48NF555RU54ogj9N5//PHHWt+59li3f/CDH6jlPPZecPwzZszQuko9fvDBB7WOH3rooTvq3qpVq9Rrg3Vsk+t82WWXae59rM9Yk1u2bKnXZMyYMXqs9eE/z2effbbePx+evb///e/yu9/9TjZv3iwPP/ywBjuaPn26RnFlu9wrrj/nx30ncjYeH1zLK664QuvbnXfeqfcHAc15coxcXwYVuB5XXXWVete88MILO+4n94t6x/H7cD25fxwLzw3PF54BiLtNmzbpgM43v/lNfc6pZ3h48FxxXagb5557rpZxLNQNBhqwJHTq1Ek9c3hOaT+4VhdffLF6ORj7B55nBm5j65thxAO8Y3hf4wG4s3efYcQrvNd4n/N+tkwB4cQs5MaX4KGnY4vI4kMnnY5v3XEbrHcIPwQMooWO2M9//nPtKCMe6Uz37dtXG4/TTjtN/0VwIEROP/10FVSHH364WgYRKYh7hCcCBdfgYcOGqXgHhCki7Sc/+Ym6WiMoEOIIBfaJmzj7Q2jitow7LqIAgca6rzOiyPliFUXY//73v1fh/Mtf/lJFNGKW6zJkyBA9VjwKsLwizC+//HIV1ghj3DYRE4gZfk9jijDg+BnI4LzxPqDsRz/6kUybNk2vKyDIjzrqKD1H3L7ZD9v873//q+WcL8INscigBueLKOG4EKi7g3Pz77H/Yd++5Zj9I7pvv/12vfYcL3//+9//1nvF7xHUCDEsz9zP8ePHq/jak+uNYOaacd4cO+fF7zh+4BojeKkPCEeEISLw008/1U4VYpt9co0RZXsCQpz74burc50YiMGtGwFB3aUus13uC8KZc8TNnTr9xz/+UV2x68L14rsMmOCe//jjj+v3EY48O7EgzhmA2pnLJNefgQbqRuy0EJ4bBqsmT56sx4mA5f5zTvsC++O6IqDvu+8+HWy5//779f5wTrQFf/3rX+VPf/qT1mPf8s19Ovjgg/VYuHdcA64VgvfII4+Un/70p3qeXJPU1FQdlKGeU18Q27EWdAZwqMO0B4h68rSzf9oX6hsDfbQT1DkEOtfn2muv1e395je/0X+puwwMcE/ZPyKctoCBB7ZN3aV9oa2o25YZDQfX3H++DCPeoA2jHTCMIEKf1tKehRcT5MaXoIOOUEJM8EGo0cmt24nFWsY8WhoHOtxY+Zj3iQDGKoYluL65yDQoWA/5DR1xhAb7pHOPiMFahpUN4eRDBx3xi0UY6xaWTMQaAp+XK+V0yOlsI1KwZiIUsGqzjs793sK2EWlYrBFHCHFEKuebnJysx8KxIiaxRP7whz+s93yxqvpz3fkNlkEGGLDGY/XD6o6Amzt37pfmBSFmuI7AnCHECctYMrn2CDGsp/yLRZ3jwHKKWK5vAKUuuPz799j/IPL5HeeOUOVaY0HmWMaOHaudGY4fEcw9Q/gce+yxOsDA9dmbQHtsB8HPthGaeCKwTR+s/ZRh/aWecW24jxwjOegZIaYO4YWws/mqiD4Gdbi+fBCaiDqsvwhj7iX7Aa4HIMjZJ9vknDm3WPFYH5RzLzgeLMEIRDwMeG6w+saCaKQe8Yz58Fv/GBlg4Vpw7WPnxCNEOXaEPMeHgGYApr46tzdwr3kesR5zPahnDHDwPDEogqcMzxjHwv2m/gFWbAQ0lmjuH/WwrqWe+kB95JnkunB+3EMGd3ZXV7jn3CfqHPea/XJc3C8s/og+tsmAAdfdh7pB+0CbwHfxQuBassx5YKWPrWdGw0K93Ju4BIZxoKCt493Je8Uwggb1l76gDXiGFxPkxpdAbDJnFcszHyyYdMpj3W7rQqcZKyKCExdnrNiIasT2nkAHmU46lkoEFJ32unOCY+EYEQuxIAgQxohnLK18EFW4rX9d0YIIwp2XD3+zTQQrAgCrNVZ8hBfWP1yJsdztKcxjw5LPh/PluHcmorn2CJK6godBC66df74IKqzUDHrQeO8K3ND9e+x/iPxddx/A+SJoYusA9weLKBZMBmIYZNjVPasL4orBG6yvDCRw/LsTSlwjxC/n6R8Lx0X9qw+uZ2x9oB6cfPLJ9QYb43g4d/9lx/Vj27Fib2dw3txDfz98/IEYhGVd+D7H5eMv8ztgUIB6GztAw/FxTA39Mmab7Mc/T7bPtfXni3PN/DrBNBL/bzwVmJ+PVwfHVt+9415RFnsPuKa4+H/dXNXUeQbbGFzB24Rt72rwaWeDNcb+gcGmujFDDCMeoJ3gHV030KdhBAHqL9Pp9tUrzohfTJAbDQIWckQ588mxdtMxQ3TuqrPsQ6caN2SEFpY35oTuTBwC26zb6UNUMPqNRYw52lifsaQxh3lngm1XIJKwruOujSWQ7WGNRbAgYhC9zGnGxRaRx4ACAnVPYNtYxBlAwOrIPFe2tbeWJSx/WAGx4nN8/jHGWlb3F7wU6NhwPTh/9s1931Nwk8Z66nsKYO3dXVRuBmLYH0KPawgMBOwsiBTf5Xr414YPFma2UxeEJ9v0X3bUMayp3KPd4XtM4MURuy+8ROreC+o0A1y+1wQwiOLXWT7UCbYXC8eH6N2blzHPE3WqrjUaoc32Ka97nmyf64Bg5jsMqvnX2g9WiLBGiGNZZ3qGP0e97vPK9Wcb1Au+w7lxnrjdI8z3Fs4fTwY8BXiu2Rb39+s838b+gbq2O48Sw2gsqJs2YGQEFQakYwfzjXBhgtzYZ+jQM7+aoFMEhcJlFIsunfrdWWoBUYCoQmDiToa4ZS7yzjp2CCBETCwIH/aN+y/bYptY65nj/nVGFPk9Yo/OPq6z/9/emYDpVVQJuyBCIISQhCyELUAStrCEJEAIhCXssqMioqIgDG4zjsuMjqOz6Cgz6jgqDu6iIG64DiogyL5DIGFJQoAQsrAkkAgSImjg563vFn5+f3enO+l036q87/P009+9dZe6VefWrVN16hy2WSuLgsKsH+ayzOajcLBWnrx21tFGUoIoI5Q4FA1Mlbvq/ZUyoMwx2wVM6C+88MI4c7i2QTGjfBiYQJHGLBlLgc6SrBl4fkyJccbFeuOOYBYXZZZZDhR6rsF6765YJrRHMl1HfsgXZv8onQwYoFh2BIotDtiwCkmDUAxWYFnRWqfUNWb31FVXoJx5N6ZPnx7LnmtgidKRvwBmupltZ/11WgLCu8BzIbMMYpFXzNMZIOK6mKCzNILyYNkC+cTsHgsRZJ7OLM9A3aOQcyyz5bxrre8r7wZO4JDPVEfkn5l13qGuQl55t3n/eScZACDknR3s+sBAiQ6HpI7QF8FiqSsDxyJ1AfnFYebqWpdJ/VEhlzWG2Ttmtpkhp0OGAyXWpKIg48SJMFM4eWpvJjOZgOO4i/NRonGexfpdZvNaoWOOgtAMShMemun4cy4m2SgiOJCjIcPJE9ttzXhyH7yucg5KLh64MSVHWWRGjnXSzPAx48nMHgoMSigO1zAtZob4pJNOikoOyiVKDI7g0rrkVlAoeE7WEXNN7kd5obx0RVFjvewZZ5wRnVaRbxydscaIcsf7Ot6wUZzagjLmnOY/ZjBRrDsDgwmY7LN2HWWUOsejOVYCzev/2wPlko475c69eW7qjcGY9gZQqEdmuHlG5AnLBZ6VvKwpzCTjkAyTMK6LlQam1eRtVYNKpFMWvAPMGCNHn/70p6P8UEfNILvIdFcHEfgI4+SP5QHIDt7+mWVv9lbeFsgn8svz8CzIGp1SrCqS2T//eTe4Lv+Rdd5JlF6Uctb6s6QB2eZd513jmjhU4xz8D/DMWJQwOMG7gQNGFH/KEAWe+3H/b33rW7GdaDbHBwbxkAFkqHXdfQIFnLpHPpgZx+cEZYDizzssvQ/t8uoMtoisbWh7kc322heROoP8MhDvDHm5GPZMsoNZYRxEoSR0Fjr7mFOuK04xmO1EuSIeOEqU1APMvZlRxtICBbu3wQcCVgaEeEtOBEVWF8OeSV2hq2vYM8kVBrYNe1Y2zpBLdjB715V10iinzEji4IkZvHUBTK5ZU68y3nvQAaQesFbAFJw/fiO/zGyzFtrRbikJ5Br5FqkjDMbr6FFyhX5vWz5wpAz6/Bt2h2uBp56/Iyxbce8rndLu7XAO6z85DNx4bFhvvbYdfkn5MFKI+WpnZ/QwycV0GNPWVZkflwImzjjak94DhZy15CzZwJQfc3y2b7/99rhcIa2x7s1BImbseZ9YWtJqRi7SVZAnlkSsjtM+kbUJ337aOtrbtqJfiNQd2lf6vevKxNK6hjPkkh2si2amUaTOMBDEGuf3v//94eMf/3j8++hHPxp9DmDWy3KC3laCGag6/vjjnTWSbsGwZ1JXGCBl2ZphzyRHkF/DnpWNCrlkB96cCUcmkhtYdiRnaSKlwdKg9qJjiPQ2OHVtDQMpkgv0e13mVi4q5JIdrFPEE7ZIbmAyiSdq1o+LlAae9AlfKVI3MFknfOS+++5b7RHJB+R36tSphj0rGBVyyQ7W0Ri6RHIEszNMerXwkBLBiWFboSVFehvaXsx9bXslR5BfBvOdIS8XFXLJDkJGEb5EJEfwkqpTFskNrDvoFHYE8eCJsy9SRxgMfeihh6otkbzAOaxryMtFhVyyA2VGJ1SSIyjjxMLfe++9qz0ieYBV0sMPPxxnGNtTzAm16GCT1BVC8iGjIjnCck3DnpWLCrlkx4ABA8Jee+1VbYnkA+ZmjHIT+kwkJ5DdH/7wh+Fb3/pWlN8nnniiSvkLu+++u4OlUktYg4tCw4CoSG4gv0Rt2Wijjao9Uhoq5JIdmKzfc8891ZZIXqDYuA5McgRzyTvuuCOcf/754cILLwxXX311XNeYYCmRXqyljmDVQRSA2bNnV3tE8gH5nT59uibrBaNCLtlBWB2cB4nkBmHPxowZE2cSRXLl+eefD3feeWe4+OKLwwUXXBCuuOKKqIgvXbrUsGdSW3A4iFIukiP0ex3ML5f1Xl6Vl5bVZPaS88PcpReHlS+tqPZ0D2OHfzBsN+iUsP56f1mnRgihG264Qe+Z6wgrVqyI5pLbb799tUckHxjhxkFWv379qj0i9WflypVh1qxZUeluZv3114+heLbddtswcODAcOqpp8bwUiJ1Y8mSJbG/iOmvSE6gqt10001Rdu07lEkRCjkj8zS0dBikfKjv++67LxxwwAHVHpE8oI269957w3PPPaf8SlYwO/Pzn/88zJ8/v9rzF4g9ToxcBpqQ6y233LJKEakHdHUfe+yx8MADD0RZFckJ2tZLL700HHLIIdGPkpRHEQq5rFvMnTs3XHLJJeHDH/5wtUckD4ihf+utt8bQUMccc0y1V6T+LFy4MHz1q1+NCg0wM07H8MADDwxHHHFEnBU/77zzwuGHHx523nnneIxIXaCri4+DG2+8MZxzzjnVXpE8QCE/99xzw9lnnx2GDRtW7ZWScA25ZAdhHxwhlBxBdvfYY4+w3377VXtE8qJv375xRvzII48MH/vYx8Jb3/rWV03UN910U8PySG0hJB/LK0RyhJB9+KGRMlEhl+ygUTKOs+QIDlkwWWeWXCQ3MEVnNvwDH/hAOPPMM8PIkSOrlAbjxo2LoaVE6gZhozbffPM4ICqSG8jvPvvs4/rxglEhl+xg/a1hzyRXDHsmOcLs9/HHHx/e9KY3hdGjR1d7/xpMgp955plqS6Q+YLKO/xnDnkmOIL8zZsyITo2lTFTIJTsIXYITP5HcwNxs1KhRYezYsdUekTzAMmnrrbeOZr/tQaQT2meROkKEi9YoASK5sHjxYgfzC0aFXLJj0KBBYf/996+2RPIBxyzMIBqiUUqEpUSYBYvUDUx+8X0wYcKEao9IPiC/U6ZMCZtsskm1R0pDhVyygxFCvFSL5AZmZyjjTz75ZLVHpBxYTuQMjtQR2l6iXCCjIrmB/DKYz6C+lIkKuWTHH/7wh+gYS0RE6sOsWbNcQy61hTXkKWyfSG7gO8k15OWiQi7ZQVgdQ5dIjiC748ePj6ZnIqWBB2DDnkldQTb1Ui25Qr/XsGflokIu2TFw4MAwadKkakskHzDnxVPqzTffXO0RKYeJEye6hlxqCWtwhwwZEvbaa69qj0g+IL/4TnJAqVxUyCU7NFmXnEEpd52tlAgm65gFi9SNFPZMk3XJEeR3+vTpMVKAlIkKuWQHYXV0iiU5grnZ9ttvH3beeedqj0g5EI7SsGdSV1BmnnrqqWpLJC/o9+KYUMpEhVyyQ5N1yRVGuZcvX26UACkSQkoNHjy42hKpF5isjxs3rtoSyQdM1idPnmzYs4JRIZfsIOzD888/X22J5AOyyyzi448/Xu0RKQc8AK9cubLaEqkXyKYmv5IjaTDfsGflokIu2eEacskZPqz8iZTGzJkzDXsmtWXZsmWuIZdsIeyZA0rlokIu2bH++uuHjTbaqNoSyQfC7uy9997h4IMPrvaIlAPtsmF5pK4gm3379q22RPKC9hXTdSkTFXLJjkGDBoUDDjig2hLJB7yr33333eGmm26q9oiUw7777hvX6YrUDRSZYcOGxdB8IrmB/B500EGuIS8YFXLJDk3WJWdQyvWUKiVC2DNN1qWOsEzIsGeSK8jvjBkzNFkvGBVyyQ7C6jzxxBPVlkg+sNxi5MiRYccdd6z2iJTD4sWL7TBKbcHpIE41RXIEZ7AO5peLCrlkx2abbRbX4YrkCAqLUQKkRAgpZdgzqSubb7552GOPPaotkXzAZJ0lQf369av2SGmokEt2YLrz4osvVlsi+UDIEmYRFy1aVO0RKQdmbwzLI3UF2XSGUXIk9XuN0FIuKuSSHa4hl5zhg+pHVUqENeSs0xWpI64hl5xxDXnZqJBLdmC6s8EGG1RbIvlA2LN99tknTJ06tdojUg7IN34SROoIfQdkVCRH6Pciw1ImRXw5V65cGZYtWxaee+45Z57WAVijaBxnyRE8rN91113hhhtuqPaIlMP+++8fQ0uJ1A0UmeHDh8d1uCK5gfwykG/Ys3LJWiFnPRAeM2+99dbw3e9+N9xzzz1ROZeyYeCFuhbJEcOeSanMnDlTk3WpJUzWaLIuuYL8arJeNtkq5EuXLo2zTBdddFH4zne+E2666SY9F68j0CAR/kEkNzDn3WabbcLo0aOrPSLl8OSTT9phlNpC2DOcaorkyGOPPeZgfsFkp5A/+8zycO2114avfvWr4fvf/3645ZZbHJFfxxgwYEAYP358tSWSF8yQGyVASoSQUoMGDaq2ROoFy9122223akskHzBZnzhxomHPCma9l9fSouvZS84Pc5deHFa+tKLas2a8sKJPWDinX1h0zw5h2eI+4ZlnnqlS/sJBBx0UjjzyyDB//vyw4YYbhq222ip65H7qqafi2qH+/fuHhx9+ODpG2HrrraPpMybvrHlDySOtT58+cQZr+fLlcSQ1pc2dO/fV2S1m4pkJGDJkSBg4cGB45JFH4v1JY3bgiSeeiGnEy3700Uejaf22224bXnjhhTizSyxMziMNE/uRI0fGDjqjX3ww+CONjjtpjIgRJomODufyfBxPGucvXLgwXo80fnMf0rjvggULXk3jGuSPvADXIY/klXszekwaLz7357mHDh0a88wzk0YZzJs3L2y66aaxbHhWyoo0yo6yoJxJo/woY8qa+qAMUxrlTt2Q1rdv31j2rI2hnqivZ599NtYfjc+DDz4Y/2+xxRbh6aefjnml/llHPmfOnFfTsJpgcGbLLbeM+cM0beONN45p7MfPAL95ZtI22mijMGLEiHgtzm1OI0+kkUfuSb4ox+Y0no288jzUDWk8J/enTHhGyo/6JA25Iy2N0lPupPEMOJrheamfJFuk8eyUK2nUK+VNXfL30EMPxbqiDJEH6olzOJfy5NUmDRmh7lMa9YBscE3+k8azkVfqFrnjPM5PskUaMsF9kHPum+SH5+c3+eM88suxKQ0Z5LlI4zm5B7JFGvemPMgLZYf8UHeUN/WM3JFGmSf5IS3JHeVJHfO8KY3yo25IQ6YoQ/5Tv5Q7dUr9cZ8kP2xTl8hCsxxwbdKQAdK4PnU9e/bsV2ULuUK+SKOM8TTdKls8K2XIUguekfzQMeS67Cf9/vvv//9ki/oiDVNgyoc0ygTZaistyRbyQRp5SXKXZIs8km/OI43zaGOS/PAcnEddcR7yQF3w3JzHs9MOkNYsP6RR1sA1IckPacgrx3Me8oNcUM4cS/1xH+qaayNPyAhplBf54zzyhGxRd6TxG7kjjbJL8kMa1+CZ+U1dJflhm3xRVvym/pP8sM3zUMbkmX3km/riHpQDckca90ltE2nIJPVGuaf2IMkW9UWbRhplnOSH85LcIQfUKWWf0pAPZKtZRpAt0pA7/jiH/Nx3332xDEhLcoccsE1UiiRbqU0jjfJGJlO7leSOPPK+NqdRJshWc1qrbFGuRxxxRLyPSJ3ge8Y7yvs8ZcqUaq9IHvDtvOKKK8IBBxwQvz1SHtnMkL+0cr3w/LOvCY8veiZ2NtqCjhKdLDobdEboQNAJYptOSGta6ph0lMb5KY2/1vPYbiuto/NSGvdKaXSEWtPoGPFMzWkc29Z5lAnn0UFjm/P4ayuN85rT2G5O46/5PDqEbHNOcxq/20pjX3vncZ/m88g/x6bzVpXGffmo0mlNaemapLFNObeXxjXpPDanUa7pvM6kJRnpKC3VdXNe2kpr77wkB/zmjzJsTkvnpbRmGWm9ZquMsD+dx186r720js5LaZRXSuOe/KbOOptGHpvT+N0sB63nNaexzW+u1V5aOq9ZDprTmu/XXC8pLZ3XnNaRjKS0ts7jNwMbzeehVPI71VlK439Haa11zbXaOo+y55lbz+Ov+Tzym87jj/Oa05rv13zN5rR0Xkdp/LWVxjnkpzmNe3UmLV0z1XV7ssV5KY1na5YD0pIccF6r/KQ0zkv5bistndcqk83nJRlpTktl3yo/zXXWmtbWec0y0p78cD5ymM6j/LhWOi+lpbpOac3ntaYxCEG6SB1BzpFRkRxhEJTvgJRJNjPkiWHhHeG+WzYMV//u2jijwqhR4pxzzomzpoa1KBtmWH/605+GD37wg9UekTyguUVB4j+zoCIlcf7554dDDz007LTTTtUekXpAm8tA/s033xzOOuusaq9IHqDrfPaznw1nnnlmtJiS8shuDfnQ4QPDGWe8PZx77rnRNA7BxKRO1h0wtTzssMOqLZF8YBBx2rRp0Q+GSGmwbIwlDyJ1g2UyLKUgNJ9IbiC/LMnVXL1csvWyzprlt73tbeF973tfHJFnm/VsUj6YR7ImUiRHWA+tp1QpEfwSaLIudYQZcpaHaLIuOYL8Tp8+PS6BkjLJViEHTNMxjTvttNOiGceoUaOiQyApG9bQ4HhJJDdon3Cktf3221d7RMoB/x52GKWu4EMB54MiOUK/18H8cilCe8Xr7NixY6PnVxXy8sH78rhx46otkfxgtFukNPgO41VfpI4Q/WCXXXaptkTyAZN1wv3qe6Zc1F4lO2iYHHiRHMExy+OPPx5DcomUBiEPaZ9F6oh9B8kZ29aysWWS7FhX1pATWujzn/98OO644/7q7yMf+UiMh7wqiBmM12PCEUl9QClvjg4hUgqsIWedrkgdcQ255ApWdYY9KxsVcskOGia8VZdOckJDRIFLL700/v385z8Pu+++e/jhD3/46loijkPBW7lyZfyfzKFR6DmfskrHpDRI2yktXaN1O+2TNQe/F5MnT47eUkVKw7ZC6kz6ponkyLrQ712X6fNvr1D97laeev6OsGzFva98nLtXgIb1nxwGbjw2rLden2qPrGug1BDurvTwOnQcbrjhhrguc9iwYXEf5nb9+/cPV199dZgwYULo27dvmDFjRvjc5z4XvvnNb4Zbb701+lJgnRGK/E033RSd2BAaEGV+yJAhYfDgwXH2/BOf+EQYPXp0eOSRR8KvfvWr8KMf/Sj84he/iGHlvvCFL4S77rorfPGLX4whurbccstY3pr7rRl8UO+4444we/bsMGbMmGqvSBnQNhFaCr8uInUCc18i8dB34DsokhubbbZZ7IvRB5bysHct2fHcc89F0511EWafli1bFju8dC7wuonC/O53vzv89Kc/jREHfve730Vl/kMf+lCM1f+3f/u3ryr07bFw4cIYRvArX/lKPHbp0qVhypQpUUk/+OCDw5133qn35G7CsGdSKoY9k7rCtxOLMQZDRXID+WXyRZP1clEhl+xAMUSBXFe48soro4k6fz/4wQ/C9ddfH/bff//obX7WrFlh3rx54fbbb4/pdDYefvjhGH6oK6CE44E2OQ1hBmHHHXeMSj8jspi/a+q35mBhwAziyJEjqz0i5YDDQgfupK4Q9qyr30aRurBgwYLYF5MyUSGX7Nh0003jOup1DWatL7vssmimzuw1Ho2fffbZmJbWbWKafuihh65yRlx6D8zNNDmTEiGkFGaVInWEkHw77bRTtSWSD0yW7LnnnoY9KxgVcskOZhlRPNcVDj/88HDqqaeGM844I5x88snRa3rynM5676222iq87nWvi8fwd+KJJ8b9Uj9wKsQyA9bti5QG7bJ+JqSuMIiN1ZdIjtC+GvqsXPxySnasK2HPWmFk9JBDDomN8sUXXxyWL18eZ6ReeOGFMG3atHgMpvw4eMNpWzObbLJJXHuOSSlKIWvCH3300SpVepLkwV6kNFxDLnWGb6BhzyRHXENePirkkh0oM+vqOhpM7nC+Nn/+/PCtb30rbLHFFuG1r31tVMInTZoU/v7v/z7OqCdv6jTexC3HER7rzj/zmc/E/3SaJ06cWF1VeooU9gxneyKlgbNCB5ukriCbOtSUXKHfa/taLuu9nBafdjOzl5wf5i69OKx8qXsdvIwd/sGw3aBTwvrraXa0rsIMObO7u+22W7VHJA/oDOKAj7X/Rx99dLVXpAxwMokTSNeRSx3ByzrWYzgsFckJVLX77rsvhks1rGSZOEMu2bEuhz2T/DHsmZQKCrkm61JHUGgMeya5gvxOnz5dk/WCUSGX7CCsDuEfRHIDh1fDhw8PW2+9dbVHpBxwWEhoKZE6gt8V/KiI5AhLFQ17Vi4q5JId/fv3D2PHjq22RPKCsHWGLpESIaTUgAEDqi2ResFSCkx+RXID7+os09RcvVxUyCU7CF3Sr1+/akskH3DIgif8hx9+uNojUg4MNNE+i9QRnGqq0Eiu0O81rGS5WLOSHawhXxfDnkkZoJTrKVVKxDXkUmdYQ27YM8kR1pDjO8k15OWiQi7ZsXLlShslyRJmaAhPd9hhh1V7RMrhhRdecLBJagt9B9fgSq7Q77V9LRcVcsmOYcOGhWOPPbbaEsmHP//5z2HatGnh+uuvr/aIlMPhhx8eRowYUW2J1AfW4G611VZh6tSp1R6RfEB+TzjhBH10FIwKuWQHccg1WZdcIeSZszRSIpqsS10x7JnkjGHPykeFXLKDsGePPvpotSWSDzhkGTp0aNhyyy2rPSLlgMNCw55JXSHs2WOPPVZtieQF/V4H88tFhVyyg7BnO++8c7UlkhebbLJJ2HTTTastkXIYPXq0si21BXPfHXbYodoSyQdM1nfZZRejBBSMCrlkB46xXEcjOYJDlvnz54cHH3yw2iNSDijjG2ywQbUlUi823HBDB4wkW4ijb9izcrFmJTtcQy45Y9gzKRXXkEudWbZsmWHPJEtYQz5jxgzXkBeMCrlkB6FLWEcukhtYd+yzzz56+pUiobNI+yxSRwyZKjlDv9fB/HJRIZfsIOzZ8ccfX22J5ANhz+6+++5w4403VntEyuHII4/UYaHUEtbgbr311uHQQw+t9ojkA/J74oknRrN1KRMVcsmO5557Ltxzzz3VlkheGPZMSmXmzJkxtJRI3UhhzzRZlxxJJutah5aLCrlkB2F15s2bV22J5AOj3JtvvnkYPnx4tUekHBYsWGDYM6ktDOYTmk8kRx555BEH8wtGhVyyg7BRY8aMqbZE8gEPqZicDR48uNojUg7bb799DEspUkfwsL7ddttVWyJ5seOOO4a+fftWW1IaKuSSHYTVUaGRHMGpENYdmk1KiQwaNCiGlhKpG1gnocwMHDiw2iOSD8m6rk+fPtUeKQ0VcskOw55Jzhj2TErFsGdSV1xDLjlj2LPyUSGX7GCW0XWKkiOEPZs4cWI46KCDqj0i5YDDIcOeSV0hyoVOsSRX6Pc6mF8uKuSSHYQ9O+GEE6otkXygQ8go9y233FLtESmHo446yrBnUktS2LPDDjus2iOSD8jvySefbNizglEhl+ww7JnkjGHPpFQIe6bJutQRTdYlZ5Df6dOna+FRMCrkkh2Y7RD+QSQ3GOXGIeHQoUOrPSLlMH/+/LB8+fJqS6ReMJhPaD6RHJk7d66D+QWjQi7Z0a9fvzBq1KhqSyQfCHuGQs6yC5HSGDlyZAxLKVJHCMm37bbbVlsieTF69GjDnhWMCrlkB2F1VGgkR3B4hXXH7Nmzqz0i5YDlx0YbbVRtidQHrJOQTUJHieQG8ku/F8ewUiYq5JIdriGXnEEp1xO1lIhryKWuuIZccgb5pd9r2LNyUSGX7MBTtesUJUcY3R4/fnyYMmVKtUekHPDvQfssUkeQTUOmSq4wGeVgfrmokEt2YLZz/PHHV1si+UCH8L777gu33357tUekHI488kjDnkktMeyZ5Azye9JJJxn2rGBUyCU7GCW8//77qy2RvMBL6gsvvFBtiZQDvhE0WZc6gskvsjlnzpxqj0g+aLJePirkkh2YnD388MPVlkg+MMo9cOBAHQtJkTz66KMuJ5La8oc//CGG5hPJEfq9DuaXiwp5TVm2bFm49tprw5/+9Ke4zegYnZ077rjj1Q4P+5YsWRJHzR577LH4n9njZl566aXw0EMPxRe5o7V9eH7uzKwzI8yY3LY2CuSN+3O/tc3GG28ctttuu/gbJy3ke3UbKcqQDzR/rM3hg33TTTfVdp3Zk08+GZ+XUVLyPH369B4p887y9NNPh2nTpnVpFJdyv+2228L//d//RRl68MEHw69//etwww03xHeAa/I+3HXXXd3W2eeaM2bMiGXHtSnTnpjZI+wZSy622mqruL1ixYpw6623hmeffTZutwdlRB5//vOfh+uvvz7cfffdUVZzg/dt0aJFsT2i7KkHZHh1R/2Rlc60Wz0Nz8m7eu+998Y67iy00TwPZZQj22yzTQxLKVJHCMmX2l6R3Nh+++1jlCEpExXymoJC+KMf/SgqC0BHDWX8xz/+cViwYEHcR4cWE8Hf/e53sYN75ZVXxg5uM3QMMZHlj9/tgRJ19dVXV1vts3jx4ni/VsUI5Yb7d6T0dxeELmGdYur0ku/VVdQoQ5RA/igjtulAd1RWvQmDKzwvAy+UNQMRdcorsoli3Tow1BHI+M9+9rNXFW/WV8+aNSv+/uEPfxivSb2gtHXXs3LNK664Ipbh448/HssU2V7boFjzriYlEkWcd5qBtY6gPHnvGIRBPikLyiQ3eH7aLOqY/LO9JjLMYEZn2q2ehuehnq+66qouvQuUBc+Ta1i8LbbYIg6YitQNrJMYLBo+fHi1RyQfkF8GkzbYYINqj5RGn397hep3t/LU83eEZSvufaVj0r0K2rD+k8PAjce+Ipx9qj1lwktHZ3PEiBHxJWQ2jA4eo2N4at5hhx2iAslMGQoqxxDOY968eVG5YRaNcwcPHhzXTNGJR4nlXBSmb33rW+Hmm28Offr0iefSAWSWndmqn/70p/Fe3KO1c7V06dI4K7Xnnnv+VRr3Jm3fffcNCxcuDBdddFG8DrPpu+22W+jbt2/sfKO4c+9f/epXUeHaaaed4n4GG+ikk3fyykxLireIlQDp3/jGN8Jll10Wfz/xxBNhjz32iNdidhXIL/dJoOCRDxQeBgtQYkaOHPnqdek0k29mHbk3psRDhgyJv7kWZcIMF4rbT37yk3g+z/ylL30pztxSR5Qps55YCHz605+O95k7d26bZdcK17v44ovD97///VfrGlNmlC7qhkES8s+MPWnkDUUSBXL33XePgxGUNWnkmXKhbi+99NI4E0AZAuVwySWXvHofrAt41la47v/8z//E2Wmej0EORmS5xy233BLzc+GFF8bfKa/AfurmN7/5TVQoUDKRg9aZsqeeeip85StfCb/4xS+irJE/ZOBzn/tcVFApr6R4co1x48ZF2Z0wYUKUe5T0bbfdNsomAyiUNXXLc48ZMyb0798/ytJ1110Xvv3tb4fLL788ytKoUaNiHSV4ni984Qux7pEFnKRwnzQzz3k77rhjLCPqCKXqO9/5TtzPvXbeeecoZ+SB9w8FinxQXgMGDAhf/OIX4zMkJ0LN90YJJf+U1TXXXBPlmLKYPHlyGDRoUJwZ/e53vxvfHQZfKH/klHK78cYb4/W5Ju0BdcAzUB/ICIMXnN88S0naeeedF8skvVetH3TqjPYilRmyxDMiQ81QPtQ196S+CXE1evToeC8GNnhPeB9/+9vfxnLh3eAa5I136YILLojPxLPzvtA2kRfKA5nkN+X21a9+NVpH0DbxjMgGZUVbAeSB+qJjjUxQR/vss89flR2yQblzXdol2o0777wzXofzqFvqh7Klzfz6178e3x2uwTmU7/e+971X32MscSgb5BBLDY4jr7QLlCvWFbwbvHvUI/lGzmj/yOMvf/nLuD127Nj4XMgpbW1qC8kL96UcKTvieXPv3KDuUcqpW5E6wbueLAnpO4jkBPLL92XXXXfVCqlQnCGvKSjZKCQod4CyxL699tordoTphNJ5oyOIMkJHkY4tncG3v/3tseP3gx/8ICpjKHF0BukE0jmmk/i2t70tHH744bGzyB8vO//p2J566qlxhp5OfDKZ7ywoWNwDJf/MM8+MCgAdcTr9dMpRKvDEy/35OHIPlBTuTcf72GOPjQpYUhpIS7PvRx11VHw2lCGeFWXqoIMOih/XSZMm/VUjRfmggKKknXXWWfE4FCeUiUQaceT8Aw88MA4c0Lmmo4xyxT1QTKkHvLrT0acDfcIJJ8R6IL8omXTov/nNb8Zy47k23XTTqMR1ZPZO/lC2qUPyd8ABB7yqhKGM8puOO2WIIoLCh1LQDDLB83AtFC/K9+ijjw6HHnpoLHPSuRZKCIrRGWecEfbff/+Y19ZZO45FyaLs3/GOd4SDDz44KkUMSHANFHrqhLyihLFNflAeuD6y9Na3vjWWWVvPzf1QDFEyKCOeGyUJuaU8UTzf8IY3hKlTp8a65DlQClGqkE3ygIxQP8wmM4jCOeQVJRVlivuiWCLvXIu8Ujc8RzMMbHB9yhVFmOdCMWaA4bTTTov3RTnl+ah/7ot3U/KNXFAXlDnXRqZ22WWXcOKJJ0Zl/n//93+jrDAgwXkMmjRD/qknBrQoL0hWLSiOXIPrkXcGClBeyd8RRxwR5ZN3h3wiJ+SFfFPX5Jln5n7IAoN1DOrw7Keffno4+eSTYxuAUko7kOD9ToM/5JtnZB8DRVyjGfKH/FOXyBKKLe8YlgUoq8gi9+IP2aVOaJ+QITrBlG2ST94pOhYovijXtA+8T7Qdb37zm8MxxxwTZYtr8oy0ebQF/NFuoNAjQwnKkME83mfKDhniHUIWyG8azKAeURh59wG5Qg5pA2hbuD5lRtvCwBh5A+7Hs6Cc85sypw3AYzNtE8o5dcN7Q9lRN0BeKSeuTbl+7Wtfi8/K83AO4e94XvKHrOUOz91cLyJ1gncwvZsiucH3svn7LWWhQl5T6DBOnDgxzkrxEtJxRHlhto/fKFB8WPijw8fxScGgc45CQIeaYxN0TJlFQ7FFYd9vv/1ix5qOcbof55HGDCHKJopHV6AzRp5QGrgGHeB3vvOdryrd5I37cA/SmFFJz8bAAnlBYUqzivyn4/vhD384drJJ5z8DD3T602wM63LTzDcweHHOOeeEN77xjTEfPBfHtQ4woKiyn+twzWa4HmWK8rT33ntHBZABC2anyRP3oIzokKMwsY/nopNNp5uOe3ugUDF4QV2QP56J56djzrkpz9yfe7IPOWgPyizljXol7yhKKGEosIccckhU9FAYGCRB8WmG56eMk6JKrGxmYpNyzT7yQ76oP/KDEoSihdUBz869X/e617U5estzMZCSZA/lBWUJZYv8MIhB+TKryuwg90YhTYpTK6l8+E/d8IxcjzJH2UN5JY3nYYAlKb1AvXFPZkmRG2SMmfckX5QV10N5RuF673vfG8uDfDOggWLKIAFlTJ1xPwYyGGxolg8Gg6jjZlCYKTPqi+NQgnlmQFFHppEf8s7gFDOxKIYomsgp/7luc7nw/NQJckpd8D5xX5RkFHHKgvzwDMhD88AOyj73e9/73vfqe0kbQnnxjK2QTh0iSxwHXJN973nPe2L5kUZ50HFIf+xHhqhXnpf2Ic1SA/LEIAsDUyjHlOO73/3ueL/2ZKAZrkc7w+AOZUfeUJ5pA3kOZJJ6onyaLVdorygv2lDyyGACMkPeKDMGBXgHqAPKn/1AWXI9/sgjf9Qn8sH9Ur1TFrQNXBuZ53pcCxlA3sknz0s9sUSpub3OEQbmsA4QqRu0I7SfDPqK5Abyy/eNgWUpExXyGoNiQucOxYrZGTqDdORRAtiHUg4oFYBi0azItnZkuQYdVDqvQDodcpQA4D/70l9bHfJVgVKL6SUmtswaMoOIYoMizEz3pz71qdgxpZN69tlnR+U93a+tPAP5IO/M+KPw/ed//mdUilYF92Qm6u///u/j7DXm2gwMdIWUp5Q/FLm0DdwDpenf//3fX30uZm2ZcUzl2hYo8igGKKKAcke9MDAB3Cudn/LQUX00H5/yx7MiJ5jE8vzkDcUJM9vmwQvg2sgGs5Qcyx8zp4m28sNgDcoKz5Cuh8yiMLbCbDJKT1KGGAhB4eZaqwPnpXPTf5QZyp365jl53r/7u7+L+1N9tUfr9SgP/ihDlFNm91GeP/OZz8RjEhybypvfKHxpu617IscogWmUm3caRQ+whsHk+rjjjot5f/3rXx8Vt7au0wz1kvKejuWZuR5KKtdCNv/5n/85ymrr9XhOFEjMtvngs/SiPWhrqDtAyeU3Cj7vAQN+WAhQ9lyj2VIi5a89kD0GVFDWU9nRNq3qvGa4Bub2DMS95S1vibPbze9MW9dCBlGmGYxCGWd2nPYKUJQpR+qMcxlMSEtiKPOUT67Bu5v2Jcg/dZsGqNKAH4M9tF+cwzGcw++23pvcYKCxo4FDkd6CtoD3GSsukdxAfunPMngtZdL53o70OHT0mBGnY0lnl1lMOobM3NDxZHYRBZ1OXWdAaaLztyYmL9y/rWvQSJAPFEpmSTDbfNe73hXNRpl9Q6mhs/3Rj340rjVlZpy/L3/5y68qpW1BI4RS8k//9E9RuTz//POjktXc8W0LFITPf/7z0QwbJR7TWmaOu9LB7wzkg+f+2Mc+9uoz8ccaZWbq2oO6QNlrLkcUta4OGHQEeUOBYFYcy4jm/GE23AyyxEAHa8g/8YlPxNk6Zis7grLkj2dIig+/23oG8kGdpOPSs6ft7gCFiMEqyj7JGObI//qv//qq0tsVyC/m+CiyjEoj0x/5yEeq1NWDPFIWSamlDJKJL+8B5ssMoKR6YhCKNqCrcB/aD0yk07X4+9CHPvRXZcG9GXjhGalL1sp//OMfr1L/fzi+tQ45j3L+h3/4h/gbU3Wu15alRHsgq7QdlPnqgILLYAlm6wxCXHTRRXFGflXtBO8hAyDkmQFEzuM6tLfM9PIMWFjwnAwo8XydhXJqfh+SvNNecN/msiSNv9whWgdlJ9IbrMocncGijizXROoMFrMq5OWiQl5z6IxjXsyHhA42MJtCpwczYMwk0+zkquB8THMxHaeTyIwSyj7rHDurGKXZUGY8U0eTmTAcHZFXOpk0GswAM1OGz0COpxFhhglzTWacAPNdZs076ohyD5R5TEExYWUWiXujcHQE5cUMLjNfmIXyjMnUuDtBiWCGLYXk4vrch7WvHXUOMJ0jf6lzQH7pzFK+Xen0dwTKCDPW/KfcKUsUHgZzWk2pmbVjwIRBDJRajkdJ7whMvzmHukYGqEcGT5iFaAWzaWZAseogH1wfmWDGfFVKU2dhtpnrUY7INvAM+ExYHWWHa1AvKGrMuFK3XGtNYACNuuddJE/MKKZyZnYdWU/b3JsZ/64uG4H0rnM+dU6ZI2vMmjcrvbyvvI+8q6xz5l3FSqI9aC94bymLtKQFBZ965Xxmp1MbwP/Ogixhcs+9OY+yx4SfsiANeUVe+OO+rZ0SngHlmQEHZrZpIyi/VcF1qFNmxTEbx7oChTnJJtY++LngnWxd0rIqeA7aHfJLXTO7QVnRDiIDvA+8KxzHe0OddXZwta7QHnRlIEakO8F/Bv2b9gaFkE2XVEiu8E1PVpRSHirkNYcOHJ05/qeZZDqGKOV09OjYdRY6tqecckrsgOLJmNljnI/Rme2soorSQ8cZpY5rMAPHrBoNBes+6VzSqcb0ljRm+FCm6dhyHh1fHEORxmwWHe6O7o2yhpksnVfyizMxFF6UCj66fGDJPzOZzWtj6Uzz4cVTMg66yC/3psya4fqUJ2XCTGEaZOgsDAywBhcFAnNdnovZaBSfjhQSOuWs/cWxE+dceOGFsaFlFr+7OuU8G/dBGcY5GPXFH0paq0KD4s6zkw9Ml/EmzjNR1u09B8ob67ipP2YWuTaKWFtlyMARAxdYKnAcSxmw9OiK/K4KZrEpP5RGZIVyxbs1lhWteUKO2c/6/2bT6maoD94zlCXKBO/wyBwKaXvnrAqux7vAemnKgcG2pHDjLI91xcgseec/SunqDCbwrmPyzoAX9+F6eGjlmZvfN+qQQQLuQ5nxTvIe8YxtDSih5DIbzjWRKXxCsHaePxRXyunHP/5xfM9431qvgWKLdQADVjiYSwMn5IO126xH59r8YeXAu80AEek8A+8/g0etA3K0jbzzyC8O16gzrs3zdgSyzbruJC+0h7RjKMfcg3YN2aGMkrl6Z+F86pa1/DwPsobSj6UTss91aSdJQ4nA3wXPkDO0Nyrk0lvw/eFdxjKPNiAtPwG+h7Q9DBqJ5Abyy6B97oO20j6GPas5dG5QWjB/Tgo5nVqUTUwyeUHZRnmgo8d+ftOB5TcdSjqTdJRQPPmNcs/LzW86higCdEC5FvtIYyaa9dJsN3d++c11UX44jvO472tf+9p4fRoLlA4UgpR3TNj5EHJNjuUYnoWOdlJAuU7KI9dN8BvliT+ei2N4bmZYMbvmOqSRH67NMcA1uTfn87w4X+JZOZ/jE+kZ6AhzHOdwDGXBNr95Hp6b/5Qnz0b5ko4ZK3lGIUHR4dooXDi14rrtwfUoX+7Ltegk4Okdxbi5LnkO/vhNXnhOjuW+/CafpJE30ikP5IHzUe7YZkCD/+SbPOPUhvRmqJ9U11wXp1U8A/fhj3s254fzU1mSZ+B5MXOnfjie50rwGwuKpJAlR2M8f3o+zuE31+T6SV4oW66djuE39cR9yS/PxTbpqT64Ds+BjDFowHYzyCbX4V7UaTofpYtj2ea+XC+VHWWNkzeO4xzuQxlQbkkeUp2SryQfnNsMs70o9rzTDFJRDsgMz8vzJZN2fiMT3J/rcx/uTRrX5Td5IF9sU7Y8M3ng3hzPNdjPc1LmDIw0K5akcQ3OYz/nIh+cx3Wby4315yjalCfPSLuB8kq+yQvHpnwT1YAyov7441rcg/txPH/ILOdRhulZeA7eI9JwMofMUE+UT3ov2M9AAMeThpxzDdK4Pucm53rkhXIgjWNS+5Agz9yT8qWckReuz/MBA1fMYrOP/AP/yQ/3SWXL9Xl26p3r8ewchwwhp8gA7xTX4RzuxTnpfWPQEnkgLckRZZQbDGjQ3vAMIj0NA8kMQmIlhfURA4u847QBfOuxWEFRx4pGJCf4LjKojqNQBz3LZL1XKrl7bXgrZi85P8xdenFY+dJfRii7g7HDPxi2G3RKWH89R4nWVZh9ZqYMc3SRnKC5RSFnZjY5Y8wF4v2jcGHWjfJZOsxgYzmDxQXrzLs6Q74ugvNDBmAZMBHpafAxg7VcggG4NBhJ9AysjVjqx9IakZzge3TuuedGZ8i59R2kc2SjkC+YvUmYc+eAsMFL24SNXtNYFyvrJigzzDDyoRXJCZpbzCj5uOY2A8rsOGvFGaFvtn4oFdahMzvODDx15Tdn1bDEAOuCVksEkZ4Ai5O2/HywH7lk2RRLxbDgEckJ+g5Yd2CB2Gp1J2WQjUL+4h/XD39c3ieMGnRG2Gqzo8P665XfIZS2wfEVTtSYiRHJCXwfsGaZASXj4Upp4EeADiPm+CI9DSE9mQFvBmUcs3WWG7GMBR8UhIEUyQkG8fGNQBhTlmpJeWiyLtmhybrkCtYdhNFCISccnUhJaLIuvUmzyTpLTLCiwxcKSgz+JIh0oMm65Igm6+Wjl3XJjuTESyQ3cNqFwy4coomUBjPjySGeSG/AbHhywPm+970vvPWtb321v4Bs4nRRJEeQY+RbykSFXLIDD5N4LxbJDZwK4SQMT8AipYEitC44/JN6gu8CIr6cddZZ4U1vetOrIRMBHxBEN2BAVCQ3kF8G8vXPUS4q5JIdxELGuYVIjqCUr05scZG6Qzx1HLuJ9AY4a3v9618fl0y0RkVgdebvf//78MADD1R7RPIB+WUg/49//GO1R0pDhVyyA8dYdvokR3AwRAgePP2KlAZe6WmfRXoDZsQ78kD94osvxgF9kRxhQMnB/HJRIZfsGDJkiF5SJUtwzEI4LWdppERwVOgaXakjmPyOGDEiTJkypdojkg/I79FHHx2XXUiZqJBLdmCyg1IjkhuYneFhnZlEkdJYsGBBeP7556stkfpA27t8+fKwcOHCao9IPiC/RBjCykPKRIVcsgOFxhlGyRFGuXFKqOMrKZGHH35Yk2CpLQyEPvLII9WWSF7Q733hhReqLSkNFXLJDpy1EF5HJDcIe7b99tuHXXbZpdojUg7Ex+1oDa9Ib0LYs6FDh1ZbInnBkgvDnpWLCrlkB7OLO+64Y7Ulkg84ZJk9e3a4++67qz0i5TBq1CjXOEotSWHPGBAVyQ3kd6eddvr/ogdIOaiQS3ZgEnnvvfdWWyJ5YdgzKZWZM2dGT8AidSOFPWNAVCQ3UtizFStWVHukNFTIJTsIq7Ns2bJqSyQfCHu26667hgkTJlR7RMqBcJSGPZO6gkMsHWpKrtDvdTC/XFTIJTs233zzcNhhh1VbIvlA2DM8UeP8SqQ0DjzwQMOeSS3B5BffM/vvv3+1RyQfkN8jjjjCJUEFo0Iu2YGXSUOXSI5gdsaSC816pUQee+wxw55JLaHtxdz38ccfr/aI5APyy2C+FkjlokIu2UHYM9eBSY4wyo0Xarz9ipTGQw89ZNgzqS0sqSCWs0iOzJo1K/zxj3+stqQ0ilHIGT1ifRD/pWw23HBDQ5dIlhD2bMyYMWH33Xev9oiUA8uJ9AIsdYXB0MGDB1dbInlBWMnXvOY11ZaURvYKOQo4jg5uv/328Mgjj8Q1mlI2/fv3j46xRHIDhyx4or7rrruqPSLlQFieAQMGVFsi9QHrpM022ywOiIrkBvI7duzYOKgkZZK1Qo7p8k033RS+973vhQsuuCCuK3aGvHyod8OeSa6glP/5z3+utkTKgcEmzIJF6gZ9Q3x3PPDAA9UekXxAfgl7psl6uWSpkK/888pw4403hq985Svh4osvjr+ffvpplfF1BJYmLF26tNoSyQfCnu28885hr732qvaIlAMKD+2zSB3BIawONSVX6Pc6mF8uWSnkL61cL8yY9nD41KfPDd/5znfCnXfeGZ566inN1NcxWKd4yCGHVFsi+UBbhZffRx99tNojUg6ElGKdo0jdwOSXkHyTJk2q9ojkA/JLuF+WbEqZrPfyWppWnr3k/DB36cVh5Usrqj1rxuL5G4XpVw8OTy/sF/78p4b5RivnnHNOXEdOjF+UtoMPPjhcddVV0YTuxBNPjOZ0c+bMCYMGDYqCfeWVV8bR0mOPPTZ6h8VzN+vfjjrqqJjG2vSjjz46zJ8/P57br1+/cNxxx4Xf/va3caTqyCOPDIsWLYppOBo7+eSTw+WXXx7TuP7ixYvD/fffH2fF3vCGN8Q0ZvJRJrnvPffcE/N92mmnxbQlS5bEOK7Lly+PpimYtp5++unhN7/5TUyjs8MIL2mEPnj7298e07jPfvvtFzv7d999d5yhOPPMM2PaE088EfbZZ5+Yh2nTpsW0s846K/zqV7+KaRMmTIhOeEjj2meffXZMQ2lgFm+TTTaJAx+YyVC+pPHMe+yxRxg4cGC44447YiiRd77zneHSSy+NabvttlsYMmRIXNdPCByuedlll8UlBcwObrnlluG2226Lz0k+qSPKeMcddwzbbLNNTMMsnee75pprovIyevTosP3224dbbrkllh3byABp7Odc0p599tlYnvxGFrbddtu47oalDaS98Y1vjHnG0+rWW28dn4M0ZOT1r399mD59epSFESNGxLIhDTk46aSTYl0iP3Q4991332iZQdoJJ5wQzeCQH56berrhhhuiHCBb3AsZQe4OOuigeB4DSa997Wvjc993331xbduhhx4arr/++piGbFEHmOZTB8jkddddF+UA2eI/aawnOuaYY+J5Tz755F/JFs4/yBtp1DX3plx5RpyLve51r4vX5D4HHHBArGPSkCPKiTTCGCFbyCKyhdxRvqRR15QDHwrWRCNbb3nLW8K1114b63rixIlhgw02iGnIFmnkhWceP3589DSO3HFf5JzzSNtzzz3je4jcIVtve9vb4v3mzZsXnaFRjqQhW8gIadQ1fgWoG+oX2SKN+1H+yB11ShplwP2oW9oK1hQid6ThIfrNb35zlN0HH3wwjBo1KsoXacjIqaeeGp8HOdhuu+3iuRxL2imnnBLfTWQBueOepFEflDUywB9lgVNCygYZoW3ieqSRx3HjxsXzaCuOP/74mEdkj2ejTElDRqh3ygs5QO7oaPLuIBu0W9Qd+cGJETJJGm0FsUz5T13zDk+ZMiVeE/lBBskTdU2806lTp8Y0ZATZ4h3i+WkLDz/88JjGfZAtypw02hPklTRkBNnimUlDJsk35UkIl8mTJ0fZQg4AeSWN50qyRRrH0L6Sxju/9957x2ulNo32FZlADlpli3ohDTmgbOnQkIZskcZvyhjZojzYRrZ4B8gzckAbQhlzHZ7zTW96UzyOettll11iR580ZIs0zkMOaJe22mqrmIZsIT/UCd5yacOQE66T5Ie2ADnYYYcdotyRluSH9gU5GDlyZJQ70lLbRJuFHCDHyB33R34oT94b7kk+eA7SkvxQP8gBckdbSFqSH+SBbZ6NbwEywT7aJs7n/sgxMkkabQyyRjlRLvymDrk+8oMsUQbUIeVM3ZMv8sC3mjJHZnj3kUnSaEf4TR0jv9Qdskb7hvwg17RXt956a6xz5Jc0ZIR2C7gmsoLcU0aUB99E9pGGjPG8pCE/PA/tKvfj2pQT5Y6MIFvIPs9Anng/qS9kBNninSENuaPsqWfKovV7yTtPffLH95L+SpIt6pP9nNsqW6QhV9yT9fp8S5Ns8X5wL2QI+eD7Rv0hW6QhI5QNbRoyRBqyRV54bsobmUP2qE/aAZ6PcmY7yR2/kS2+bdQrcoDckR/qGtmgPJEj8kYekTuuT7uD/CS/P8QFp2xIQ7ZoU3gW6pP2jjKlXpL8ICOkIWPUBfWC/NA20cbcfPPNUe5oH0hDfuhTMatIGnVNGuUhkhO0Rb/85S9jG6efjjLJRiGHpx/rGxbdPS48PPOPrzTMK2InrRkURhp3Gl8UUD6ONO4ch8LDR5JGu6009pOOooKwpzR+8+FNaRxLp5Q0roGCQhoNPR/c5jTywceXNJQIPoyk0ang5eLjAnxAOI/jUxrnUTXNaShm7EtpfMS5ZkoDrpnSOI/80YEgD22l0YnhuVYnjXIkjfzygSQvpNGZobOT0prP6yiNjjwDG3RKSOPZ6YRQ/s1pdLZ+97vfhb/5m7+JaewnPZ1HWfM7pXFPrtOahkLEc7BNvVB/lC2yQBrlxnkpjXrmj/xT3imtWX5SGtekXprTktxxHmnIFs/NPUmj7tN5zfKTZDKd11Ea1yBPpFHn3L85jTKg7JO8kkYeWmWLcupMWqtsdZRGffJekdYqW6tK45rUWVvyQxplvKo06pTyJY1r8pu0tuSuNY1rUq48H79JS3KX0pplhHtxz9Y08kOHmWdJAx3NMtIqk62yRZlyTeqzuW1qK42ypM46kq1VyR3bKa1ZtlIa9+M+rbJFvjkvpVGPbKc0jiPvre0W5dSZtLbkjuuT1io/nEeeKceO0lrlp6O0ZjnoKA35oE6b07gmdZbS2G6Vn45kqzWtVX6a5Y40yoR7rCqNsiGNukZ++M92W7LVmsY1qOvvf//7UWFG+Ue2qMOUhrxwX85rTWuWH+qH7ZSW5ID6TWk8K3nvbBqyQr65JmlJfjpKIy/ICOXENSnjVvlpTeO5uGZX0tqSO9L46ygNGWhut0jjejxHSuO8JD+dSWuVrea6bpWfttK4RquMtKY1ywHPRtk0p/EsPFNK41mT/LSX1tzGUM7UYWsabS+DEgx0MIEgkhPI/rnnnhsnuLRCKpOsFHIYO/yDYcUTu4frr7spjoAy0spHFFDIGWmnsZZyYdQbiwJm+kVyguaWNovOpx9VKQ0crDLzzSyrSJ2g7cXKgRl9rF9EcgKF/Otf/3q0pGLSQMojS6dumHGhfDNDihkT5lKMwsq6ASPlWEKI5AaKOOammHKKlAbLRphxFakbWD0gmyzpEMkN5JclHFibSJlkG/YMszGUMtbrsVaUdUmYSUn5YNqc1t+L5AZKOX8ipYE5MOuSReoGM+TIpmHPJEeQX3wtsBRDyiTrOOTAWiEUc5zeMPLJ+iEpG5Yo4FRGJDdon3D0pYWHlAiOwNISMpG6wVp5lgyJ5AgOEx3ML5fsFfIEjjuYIcesQzWNcpYAAGnsSURBVMqG9TM4DhLJDdaB4X0Yz+QipYGjQjyvi9QN+ob47cDDvkhuIL9EE0DXkTIpRiGXdQc8pzJSKJIbyWxS+ZUSYYacWUiRukHbi/WGM+SSI8gvg/nOkJeLCrlkB2vI8bAvkiOYrXclEgQfYkIEIffNf51dS8YHXDNi6QlYn0sYS5E6wmAoMeNFcoSQqa4hLxcVcskOPOrryVdyBEV8t912C/vuu2+1Z9Wg4Lz3ve+N8Uff/e53xz/i6BKTdPHixdVRbUO83+uvvz5ccskljqzLWodlY0Y8kbpCnHWd/0qu0O/VT1a59Pm3V6h+dytPPX9HWLbi3vDyy93bCRzWf3IYuPHYsN56CuW6DB/WrbbaqtoSyQOU4rvvvjvMnTs3jBkzptrbMZgA4131X/7lX8Lpp58eTj755HDssceG2bNnh0ceeSTsueee8TiUc649Z86csGLFirD55ptHE+Krrroqpm277bZxtv3RRx+NoQMZHEDZJzYv69KYPcIkjuvOmzcvvmP8Z737vffeG009Bw0apMIl7YJ8bbHFFmHjjTeu9ojUg+RfiLBRw4cPj79FcoL2lX6v3+AycYZcsgNzXRQEkRxBKV/T2eq+fftGT+0o15ijP/nkk+G3v/1tDAeIQv2b3/wmxjvH1B2FGsUchRsF/pe//GV45pln4nVI+8lPfhKjFrAM5Ec/+lGYPn16HDDA/Pgb3/hGuOWWW+K1OA6Fn06BSFsQ9izJlkidoN0y7JnkCvJr2LOyUSGX7EABYSZPJDcwNxs9enQ0W18TeAdQkrfeeus484MizrXPOOOM8J73vCcceOCBUUFnlvyoo44KEyZMiAr8qszdGCg46aST4kz8JptsEhX/ww8/PJrMk2fWsKmQS3swsKNTN6krKDMMTorkiE7dykaFXLIDs9kDDjig2hLJB8KeYfrd1QElZsA/+tGPhnPOOSf+sY4cpfy4446LCjKz2j//+c/D+9///vCud70rfO1rX4sKe1edubG+EpNOQNHHtJ33DUWe9WsoWyrk0h6ElBoyZEi1JVIfaM8IyTdx4sRqj0g+IL8MtDNQLmWiQi7ZwQghpmciuYEyywzNqpyxtYKS84EPfCB88pOfDCeeeGKcuZ48efKrayHZPuWUU2I6f//1X/8VPvvZz+rASHoUfBIQllKkbtD2IptGAZAcQX4ZzMdRq5SJCrlkB2vIMZ0VyRFGuvnrCsxQo5QPGzYsmpBPmTIl/OIXv4gf6PXXXz8q5gxUMZvNMRy72Wab/X/3SdtplpsZe2e8pbvAf4FryKWuMJCP00uRHMF3kmvIy0WFXLID79CY0orkBrI7bty4sP/++1d7ug7XOOKII6Jyfd5550Uzcq6JI7Ybb7wx/r/sssvC+eefH03WOZ5BLGbmWVOOEj9t2rTw0EMPRYdtXZ2tF2kPvPUjbyJ1BO/UyKhIjmDxtio/MJIvhj2TLCGszpZbblltieQBs9h33XVXDDXW2bBnmKg99dRTYdddd301nBT/d9xxx6hQE2Zq5513jp3NK664Itx8880xZNlb3/rW0K9fvziDjnd0RtZxzMZacEKh3XbbbXHN7w477BC22267OFuOko/TOa5F6DSUfa6NSTwzn+znvl2d4Zd1A+TCsGdSR1KbRZto2DPJEb7lhj0rl/VeXkv2irOXnB/mLr04rHxpRbWnexg7/INhu0GnhPXXUyDXVRYtWhQ9SONRWiQnWMN40003xXWMxx9/fLVXpAx+8IMfhEmTJoXtt9++2iNSD+jqYj3E4OTrX//6aq9IHjBg/u1vfzucfPLJYfDgwdVeKQlN1iU7mLXTzFZyBHMzZqSZ7RYpDSw5DHsmdQUrIULzieQI0VYMe1YuKuSSHZjc7rffftWWSD4wS8PsOOu4RUqDkFL4KRCpIzi73GuvvaotkXxgyQW+Zwx7Vi4q5JIdrKl97rnnqi2RfMDsjBmaJ554otojUg7Lly93BkdqC32H559/vtoSyQcG83HOSh9CykSFXLIDZZzwDyI5wod1LbnuEOlVZs2aZdgzqS1YJj3wwAPVlkhe3HPPPdHZqpSJCrlkB54mNduRHCEkFGa9Bx10ULVHpBzwrm5YHqkrtL9GAJBcod9L/1fKxJqV7Bg0aFCYPHlytSWSD5jzTp8+PXpaFykNwuixTlekbrAGd+jQoWH8+PHVHpF8QH4POOAAJ6MKRoVcsoN1NJjuiOQISrnrbKVEZs6cqcm61BKWCf3+97/XZF2yBPmdMWNGjBQgZaJCLtlBWB3CP4jkBuZm2223Xdhpp52qPSLlsGTJEjuMUltYf0toPpEcwRnsn/70p2pLSkOFXLKDsGeYRorkCF5+jRIgJUJIqcGDB1dbIvWCkHx77rlntSWSD5isT5o0KfTr16/aI6WhQi7ZQdgHZslFcgPZZRbxscceq/aIlAPtMqGlROqIfQfJFUzWsT4yQku5qJBLdrCG3LBnkit8UP2oSokY9kzqjGvIJWfwneSSoHJRIZfsYB3uhhtuWG2J5ANhd/bee+9wyCGHVHtEyoF22bA8UlfsO0jOILuYrkuZ+OWU7CDs2YEHHlhtieQD3tXvvvvucOONN1Z7RMphv/32i6GlROoGisywYcP0PyNZgvwykG/Ys3JRIZfswCGWJuuSKyjlekqVEjHsmdQVlglhsj579uxqj0g+IL/Tp0/XZL1gVMglO2iQHn/88WpLJB8wmdx2223DmDFjqj0i5bB48WI7jFJbCHuGU02RHKHf62B+uaiQS3ZsttlmYeLEidWWSF68+OKLKi1SJISUYkmRSB0h7Nnuu+9ebYnkAybrLLcw7Fm5qJBLdmC6g9mvSG4QdufJJ58MCxcurPaIlAMhz4wgIHWF9te+g+QI7Sqz47av5aJCLtlh2DPJGT6oflSlRFxDLnXGsGeSM4Y9KxsVcskOTHcMrSM5QtizfffdNxx66KHVHpFysF2WOkPfoU+fPtWWSF7YvpaNtSvZMXjw4DB16tRqSyQfMJecNm1auP7666s9IuUwZcqUMHz48GpLpD6gjG+xxRYxNJ9IbiC/hx9+eOjfv3+1R0qjz7+9QvW7W3nq+TvCshX3hpdf7t71OsP6Tw4DNx77inA6yrmu8vTTT4dbb701OhCSNQMHY5jwsa4ZZ3nM4K4KPNU+8sgjYeONN44jtnPmzIlrR7vrQ8GShMceeyxstNFGcfuuu+4Km266aejbt2/c7grLly+PeeV8fs+bNy86Rdlggw2qI7of1ik+8cQT0eM0eX7wwQfj/Sgv0h599NGYlw033DDGJCf94YcfDnPnzo3PjlOsVdUD53M8ddbVGR/Wr995553xvuSFD/2AAQPif94typ5Br7pCGVKnlAEyR77TfrzQkn/2N5chSwSok0WLFsU4rmuz/lt5/vnnowxjzk0987dgwYKYP+SS/D/77LPhhhtuCA899NCrxyA/PAfvQXrGtQVmkMgC7zHvR2fux+AS+eR/evevu+666Dhr4MCBcbuzcI0ZM2bEpUjp+fljzWRXZTzVNe8W9U2YTN4r6p1nfOGFF+LvrpYp1+V61CVtXsoj9cT7Qz2RTltKGawJ5BkZoc1YG7Ka2n3KlXt0hrbKFbntSluBnGF2S3nR/vUk5J/24f777w+77LJLtVckD5DfK664IowePbrT76zkhTPkkh181Ol0y5pBA085/uIXvwjf//73YweQfauCdXh8GFDe6Nj96le/ih3pzpzbGeg0XXvttWHZsmVRQUCBpBO9OtBZ/vWvfx07j1zjqaeeWuthQ1AuiBd61VVXxfv/5Cc/iQokMICx9dZbx9BnN910U7jmmmti5x5FjP9so5it6nnTc6GUdgUGJH73u9/FWLzck87ppZdeGjvJlDVK+pVXXlkdXU+oP8rpjjvu+Ku6RCFHWbrwwgvjc1EPCer9Bz/4QfjRj34U5aon4T3hHUORocz5o7x5h6gP3hsUnAsuuCAqSaRTD7wDPCcK/doGxerqq68Os2bN6vR7zLt/+eWX/5U/DxS21VnjyDk//OEPo/VIKiPqkLblvvvui7LZWXh3br755nDjjTdGBZy6X7p0aWwDKFPKHlnpKuTh9ttvj+9Pcz1xL9512kUUf+63Jm0h56LUp2uuDXg3aEO6IluUKwPhqVwJH9bVd4njv/Od7/Ra6DEGk3lukRyhv7a2+y/SezhDLtmROmejRo2K/2X1oBzp7KLU0UFl1mjkyJFRaWQfiiEdN2Z7cNSEUsFvOuEoCnTIt9pqq9hx5jcKIp01OvfbbbddnH2hE/d///d/USml48rI7pZbbhk77ihUzIr99Kc/jcoppq7cm+vTcebcHXbYIXb4+c/MHUoNihWdVfJIPG+eg2Muuuii2Flm9hfTRGan2XfbbbfF2TBmcugIjhgxIuaDjvN3v/vdcNlll8VOGs/CLBcddq5B/nhm8kpa66g0+SPfKBIoM+SN0WvuiwJOmSGjPONOO+0U70tnG+WAjjDpu+22Wzj55JPDpEmTYig/ZkxRSphxHDp0aLz3eeedF8ubzjAfY9J++ctfxnujAIwdOzZ23H/84x9H5ZpZSspkm222+as1Z5z729/+Nu477bTTounmHnvsET/yDAZQvihAKLUcw7OgGKDEsp8yol6Z2UKBpK6pU56POqXev/zlL8e8othtv/32/1+IFp6fe9Eppw4pYywCkCuuT90zWHDJJZdEhYcyS7Ov3I/6YqaZQRvqmPpPM+HIMOcwgIPsITPUBWWBAkW5cC8sayhnBqC++MUvxnJEUaC8mI0kT1gfMDDBc6N88F4gG9QZMvWb3/wmno88UQfDhg2L7wCy/LOf/SzWIfLM/SgXyviNb3xj9B2w9957xzrjGbg290VZ5Ji///u/j/XCMdwPhY964N3sCOr14osvjs/IrC335hkpM5R+ypU8k1/uR7mgnDB4wX7KjfcJOWewqHn2mLLhmXgXuD5lQJ4oV2QeOaUuuA7vAfVHvSXTdWSY+kQ2qftdd931/5v1pex4T08//fRolsnzT5gwIcof7yn54hmoW2Sf/FO2yBDXRuaGDBkSZ175TT1wTfw1kE9kgzoibxyDbCBv559/fmwzaAdTG9MeXAM54p1+wxveEN9Z8sl1OZ/2hTaB+kb2GWRIbR8DdKST5+aypS2gXH/+859HmUHOkF3Km/aXe/LOUV60U2nQgneC8p0/f358Hyh32l/qhXP4zX1px3g3Wy0WKBvqgveOsiQPXIu2ta288lzUPWXNb56b+1C21D9tAO8N7wt5pS64Znp2ypXjkDFkkuvyjLTb5C1ZFNCeMDDFvbgmaVyLMiVvlCeDIjx7mplHvmkXeAdS/fDutAX5pXwpZ5HcoN+QvmtSHs6Qi6yjpNkClBoUQ5RIOlvAfzp6dIiBY+kw80FAmaDjhzJHpx9QYA477LAwefLkqNCh1NLpo6OJUv/a17427L///lH5QclAgaRDRkfrqKOOikoCs/Scs+OOO4add945Xh/FMClM3INrs59z6ASThvJHR238+PHh6KOPjp0uOu0of+zjA0bsWTrIaQACBejrX/967AhyLTrGdOjYT6f/W9/6VuzIHnTQQfG+PHvzyDS/6TzSOeaZuQZlSQe0oxFsOrEoKChzrfCsdORRZlDOyMfXvva1mPdjjjkmPgfKA8ow+zgWhYO64r4oyscdd1xU/imPNCvfDB1h7p1mxui4HnHEEeH444+PM/coS8jDXnvtFeuITjV1TLmiGFGuPAOKHTO8KCM8P+VG/aGkUNd0pJNlQjN0nr/3ve/FOuQ48sxxyAH34zcycOSRR8Y6ofPONv95dmSMzjSKbHuze5QfdYDiCMgfZU55Yf4MnP8///M/Ma7rIYccEssbhRI5J48oqpQDabwDyBnPwqAH16M+UJIpd8ozzfDyHMcee2yUX5RCZKctOJf3iPu1NQuK7FKv1HkakGgPlCCUIWTw4IMPjvdEUeXavGsoK9Qr9YTijRLNs3zjG9+I8sB51DGKfCuUMYo0eaG+UJIpA965BGWNTwQsAXjfWEdOWaDgISfUKfXM+cgbgyDt1V0znIMSB9wfhZxrorBTxzwjz8o7Sj1xTxQy6g2TZOqW3yie7G8GeUDB43moS5Q+npPBla5A+VF2/FEOyALtJiAz3Id3ByWRQUbKI0H9cAxlQR3w3n7zm9+M10E2aAdplykH8sYzIFu8+2kQgXeEdpRy4jk4FmU21Rf1zkBN63uIvKLw8k7zfnE93gneO2STQQ1kOcGgF20++aJcyRuyRZ44n/aR9oa6px1hEI/noD3iXSCd6wN54TzuxbvMwBeyR1kgR+znj3acZ6MMaYdQQnh+BtRo33gvuSZ5p5xIo91BPnm+9kiDDCIidUKFXLKDD3qzmaR0HTr8KHZ00OloMTvLjF1bSlwzKI0oz8xQMJOWZiKY1UM55I9OFh1Trk1dHXDAAbHjm2Zk6ZzRYeQ6HE8nnk41HVM6qcy2oQxz/TSTxvF0QOlwcj1maN797nfH69I5/Lu/+7uojLA/KYjkldkllMbma8Ett9wS/9Np5RyUUjqF5JuyodNL3lAwOZcBATqeCTqopP3N3/zNq/lhwIHOI+d3BAotf21Bp5MZPAYNmKFixpQOPc/J/VAcUAjp9PJcdPRRMt/ylreE17/+9VGRpiyZzW/tlPL8PCfPwUwkz37mmWdGhZAZSDqzXJfyp9yYTUwDJjwfxzPbhVIE5JO6Q9FlJo7OPx1yZAkFifKn094M1//gBz8YZ4o5Dpmg484zAbNelCed/nHjxsVON3WJgkB9cDznkt7eLBj7KZtUF5zPdcgnnXHux+ALZYpyR7kiM8g/7wSgHKV6RanjWsgGChtKBs/NOcgGIOvcg/JN8ox8M2jTLDcJ8kF5U0aUMflEGTnxxBNjOaNc/eu//uur+ekIyhr5J6+UEcoJ10tlyjZ55TmpZ/JJHaLMosRQDgx0cFwryBEWHG9605tifR144IHx3UQ+E9wLxZBZUJ6VsvuHf/iH2EaguPNOp/o+4YQTYn0gR6sCZZG2ggEJ3nuuTdnyblKHKGPIAc/Mu8cf9Ypc8py8G8hyqwKGoke90G4grzw/+eP9aFXcVwVljGKLbCSLAKBOGbCiTeK5UTCxSuH9TZAPBo3IL+8tx1CPKf/knfeFsmXgL8kdckkbyzuX2gn2877wLlMuOD3lvsg3+ULZ7Qjas/Te8UcdNQ9OMKvMdVK5MiDSXK68c7wnlCXtOPKFHKf2iPcRWaAdR06wMOA+1Bl1y6AJijZtOvvJO/JMvjiHwU4GHbgedXXWWWfFcmJwibwg35QBZUjb2truJGjHu1rHInWAdpa2pqPBJskbFXLJDhom/mT1odPCDCydGTqJdG7oNGF+vjqgSNJB44/OG9enQ02nFEWRDhMds0996lOvdubpACclmXM4t716pTNOJ5e80oHjWDrqdATTdZg1QZFBGaDj1RF02Hh2rsG1UI4ogwTPQ2cwPU9rvtjPMez/6le/Gju+n/zkJ6vU9uGaKJUobm3BdfnjuihrzFYxSIIig8kz5pqtcByKE0rhOeecExUoFJ62yhKF9+Mf/3icVf3Sl74UZzXPPvvsaEJOx7cZFFQ64cmMN8lJUvQoF/5QjlAc/+u//isqbNT1SSedFOsepaMZnp86w8SWZ0IBaVY6uV6q31TudECYtUYJSeWOUtieeTHHMLNMeXB/ngP5SGaxyBJKC4oF9+B4yoWBjZRf7pHSUj6QZ2ZCUYCAMicfgMLAdkrjGSg76qY9uDZwbf4oO2YCmanHPPnTn/50nLlf1SAP9yWPWHygnH/hC1941ToA0rOQl/QsXJPyoD7JR3r/WyGN61NHDA6h8DDT2zygxLOiiDFTyewss6PUDcegIHJ+muXnPiiabQ1SoACi+CM//GG1Qd5RmlM7wb2A5+P6PEN6NuoC+eqorAD5pVw/97nPRYU53Ytyb5XXtmAJSTqPOsPiA2WZ50ok/xrkjzIk/5QBeU1QRgwKYHXCM1L3bQ0yMavOuUl+KQPqimelDNLz89zIIe82bUDK37e//e1X39n2II+UNf+5LqyqHJvh/pzH+bxvyAIDieSBwYH//d//fXXgibaWuuJYnpc2jrS0TTlQHrTj6b3i20F7xfUwaWcf7Q6K/2c+85mopJPGPRm866gem2VXJCe68k5KfqiQS3agGLSn0EjnoKNMxw0l9owzzogzpZgOst1sVrkm0FFMHU1mpPjDzBSlkc5fV6Czxh8drdaPEiaizKwwmICJN6bIaX1he9BBppOarkUnra1rtwfn0vF7z3veE/OF6fInPvGJKrV9OI+ZLc5tC5RiOqd0UqkHOqUf+9jHovLAPVDmW2GA4z/+4z/i+m1mvlkmgIJEvprh3iiVzFgClhEoA5///OfjjBgDNM3QwW7uyKcyaoX7UNf/+I//GNe9prq+6KKL4kxXM3SgqSueH8WRNbzMJHcE10/1lSAfHXWsqX/Kklk5ZvpRfJJSx/XaerZVddR5xubjkJV0DdLYbr7GquQJpZJ0lNS2FHfyjIKCUtLeddjPO/vmN785Pi9m3R/60IdeHRhoD56/OX/tPT9ygVwhX8ymM1DAbHprfpkVxwT+/e9/f5ztPOWUU+KgS1IU033435YMAYMdmJEn+eHvfe97XyyfVtL9W8u7rWdoJckrlhpYJaR7seSC2fZV8bd/+7dxUCKdd+GFF0ZT7ma4PnSUH56B2WAUet5vZvff+ta3xoGkZrhW87OlMmzr2sg4yisykfLHHwOVPQWyxWw7Snm6P8926qmnRnkm383Pwh9lQdvBt4j2ETmmHWfQFJgt55lQxrkW3xCsBhjUoB5pT9K9GBDCWqAV6p3r8U0SyQ3kNy0vkjJRIZfsYCaFNcqy+jDrykwFaxbpwPDHb2b1KFs6SPyh7NF5Ysa5q6ZSzBihsKDo0eniOvxmto3trsCsEAMxKJRp/Wkyu0VxZXYEhZBZJGZT25qBawbzXPLBuSlfPF+aJVoVXB85fN3rXhdnmOmEtnak24OZHf5aIR+YvjJ7SdlhWswsLh1+/jPzhPlqKyh21NW//Mu/RIWd45rNTRPso54ZFEl1mTrEbT0zijLlTRlxDOVKvltnplECUO4x+UeBA+SmeTtB3ih7zLHpHFOHaYCgPejEs9SBgRcUEQaTKOuO1iGTJ0zoGWSiTJkxTyBLrDHG3JV7I6PIAnll5q09MJmlDNPABfmgTABTXq6V0rgWs/Bcj7pphbwzWEA+07r2VrgGz47ctyeT1AfX+chHPhKtDdimjNuSr2aYoUQGmCmmblH607M0k95/rCqYhUQWWq1Pmt9r0lHeMb1nlpj3kWdNMsT9+KPtWRO4LmXHfXnWVA4MZCVluD14V5EH2kAGv4A8Iq9tvTerA/ljUAj55rkpa0ylm6+f2kbKg/brv//7v6PZN3XRDG0ycp+WE5FXZJq2imdJICPIKM/PdakX7sFAZbPFxNqGd4E8Jv8J1A3vQhpYQn6wUOI37Rl5o6zI89vf/vZoRUXdUnaUG8/O+44MsR4d/x6UF7LJ89JepnLlHaSd4P6tcD/eWU3WpY4gnx1BOibrq/peSr6okEt28JGm8yerB8okM0PMajXPPjGrhuk1MxB05FDIMJFmphNnanSMAIWGzh6OtugktQcds6QU4ViIGSiUQRTNjj4+KHwoI+QxdbS4J2tHUW5w2sP1+E/HlM4vnTKuz4xv6rzRYUOhoXNGXumMJZhBYf0vCiozVMywsI88dwY6wihSzL5yX6wN6FA2Dxi0BflHGWKNNmWM53RmBVP5MEuE8o3CSEccWWc/x1AXdF7547nSjCjXYdScGXQcW7HulvJDIWqG/DI7RMeea3JPrstHnrLl2ZEHyhJzc/LIHzPulBH1iAlsmrVKoAAws0jHGwdiXJdyTQpvM3SgqQfuz3VRouiok9/2oHOOSTAKI4MTOLjid5LH9qAcqR+Uv2YFkLrDtJvyo3NPfnGKhqxS5u2BnHFNLD44B1nmmVGMMKdn0IB9pCGbyDgDJNwPmUc2SUvpKCaUW5rNRmmh/tIxPCdlTZ7aU8gpe5QUZqOpI2YRUcgp444GpRjwwZSYPFEXzGa2ygsgZ5Qdjtm4Pu8kMsk9EjwnMoUsIb/UK+8Bs6SUKeug0/l46UbW1jQONIMUrDlm8JD8IxfILTNIq7K+4R1kxpU2jLaNsqbcmXHtrs4uAwOsoWbtNs/NH3XUrJAjvyiPKZ28UNfMtlPu5IXzk7yyHCDJDm0MstM6gIS8UC60C+ma1G13DTR0Bto3Bm9oA8gvckEe0qAM5U/bQBpO22jveXcY1Ev7OReFnudk0AT/ISyr4ZmQIeqONeP4ReAdTPcinW8VMtoWXA85EakbtL98rzp6V9MApJSJYc8kO1BA+CDzAZeuQ0eQRh2z5tbZuTTzhOJBx4rflDWzmnQUUTxYz0iHE+gAsp4R5ZZroTjQwUK541p0xtmHcoBSTceLDjm/mRXhODqfdNJQTLg+SiGdavZxXTqp1DXKHPdICi+dfWZKOI97omBxT0w2yRfnci06rTwHAww8E/ck/1yTa9FJREGgk851yBvHcA0UHs7nPK6dZt/4T/75T1mi4LCMAuUF52Hcl338cR7PxbW5Fwo1dcA+npFr0OnmvjwTShy/uQbPi7JKeVBfdLYpB8qEZ+A6mDbzrGlGleOoK/JPHhPUA+dxPp1c7s11GZjhHO7JNckLeUrX5X3jL+WNdP64DmXKb56N5+G6nMszUzcc0wzPw3OhbFBvOHXiPOSEQQUULbapL/JDfilDjiWNsqMuqCvyx/PxHAmen+ORyVRvyBz1wvXIT7oe56M4cg7yjXk95cE29c+9KTO2KUv+qFveB8qDe/DcXJMZVwYvID0bCi/3ojy4N/lMZUd+KEvO4R7s4948dzqGvKN0cSzHtAXXpA6SAsI5DLpQnuSfsiadvHIN8ssxqZx5L5Eh3neen2Oph3S/VGZcn3shf5Q99cuz0RYgIzw/6ZQVz04eksk95UaZ8Z5wLIoqz9oM9yOvpLemAelclxnkZHXAdflNeZNP3r/0TiHHpPMsHMN+yoP8UrfknX28MxzPtZFFyqkjeB6ugxxzXivknfLlOpQb9Un+yAfXT+0hUMdJfpEn8kzZcB7XId/IDvmlraLu6Kxz7/TecA2O55gkO9yb/5Q312GJAfXaDPfkOpQ3ZYKMUYc8X8oXz9FcF0l+KDueh9+cz/1SuaZyIW8cTx54LpyxIQ/kkXrhNwNS/GbghjLlOklOkAUGIXg/OIbnRwZpP7ke707KO+cm+ec85ID6bAvKmfyld1WkLjDIzCAsFi3IOXLN+98M7z/vQlttpOTPeq9UfNdsRzvJ3fO+HGYvYiQzOQpq4zZNfYz4s7XP8cr2ei3n7TjkrLD1Zse+0tg3HIgkmn8nOkpf1fHQlfPX9HqwqnRo75iuXK+tY6G9/XWDkURG0uloiOQEnU08vKO4siZX8oGZfBx/oTShPDCDx2wwzunoJEmIs7jM2NOZFKkTdHWZHee9ZUBDpE5gLYMDxmT1x6ARg7pY7jFIhvxivYjsMhAl5bHWFPKLLvlsmH7P9a8o5MmssKHsvXqzlrvGzeZ9r/x+OZ5SKYlVWv8Ntw0bvYaP/V+Ux+ZHaOtxWvd19ZhVHd/6G8W29Zz2jk+0l87vpCh3dExbpP1dORZaFfO03Z7C3ry/vWPbOgZaj4O20pv3MavDSCGzPNDe9Zp/J1r3pe2OzusoDdpK7+w1Wo+Dzhzbmd+JjtLTdmeOSXS03dXfiTW5RvPvZtL+jo5tK631mER71+nKb2YjWRvJbH6r2W46pjPXg7aOb6atc9u7BrT3O9GZYzu6Rkfb7aV15phER9tt/V7V+dC8j9k1nHmxJID2kpk6TOmZXabDBG3dp5n20js6L2237ofOHNuZYxKdOba9YwBzYhyVNc9Atndu+t3R9dr7nejMsZ35DczOYraOSXhbS3Ewj8Z5XvPsa0fXg47S20rr6JhEV46Vv8A7i0kwA6I4MRWpE0khZ+kSYMmBJQpWQQzeY1WCI1T8LGAVI+Wx1hTy2UvOD3OXXhxWvtS9DgjGDv9g2G7QKWH99f4SU1i6nyQWreLRvL2qY9o6Ftb0NwoNax/f+973Vnv/ckxnr5FY1e/mfdCVY9o6NtHRMe0dC6s6pq1jE6s6ZlW/m/dBW/t76vfqngdt/W7eB105pq1job3fKHbAB7eZto5v3gdt7e/K7+Z90JVj2joWVvW7eR905Zi2joVV/W7eB23t7+oxq/u7vXRY1TGr+7u9dFjVMav7m/8ospgNY1LZ3jGJ7vjdvA/a2t/dv5v3QVv7u3JMe8fCqo5p69hEW4p7V34374O29nf1mNX93bwP2trfmWOwUGIJAab17Z3b1nnQ1v6uHrOq3837oK39XT1mVb+b90Fb+7t6zKp+N++DtvZ35XfzPujKMW0dC6v63bwP2trflWOw/MSfS7OvmwRLPfCZwOz5P//zP0cLLSkPFXLJDmbHWW/DWmSRnKBDiHM2TNaJmStSEjjpY+0xCo/0Hu0p6m119zpzbOt5abujY6C99NZj03ZHxyTaOhbaO7f5eNpd/EY0R11Y1XnQmd+J1n1pu6Pz2kprPSbRVnrrsW2ltR6TaO86Xf2dWNNrpO3W/Ym2zm1rX6KjNGgrvbPXaD0OOnNsW79RxHHi2OwwE1DG8fGAnxf8JuBzAf8SUh4q5JIdNFh4xT7ttNOqPSJ5gELOR5eO4fHHH1/tFSmDn/70p9E5HE69ROoEXV3MgfHMb9srdQNnbsTZTybrLINicBNnqgcffHBsU4kogeyioEt5GPZMsgOTM0x3RHIDM3W8FDPSLVIaxNSmfRapI4TCbJ2BFKkTKOJYcOA89Oyzzw5nnHFG9FNC34F+b0fhLCVvVMglO3B0QZgikRzBBI0wTSKlgYd11pCL1BFmFnGOJVJHmAV/3eteF5VwHEjSniZfM6w1Z5kmoQmlTFTIJTtooGyUJEfw5Lxo0aIYekekNHDm1ho7V6QuIJvGcJY6gtUcyjiRO5oV8Wbo97a1X8rAmpXswKnbvffeW22J5AVKOX8ipYFTt2eeeabaEqkXy5YtCw888EC1JVIfsPxkzXh7A0b4QMD/wR//+Mdqj5SGCrlkB8oMcZxFcoP1Yfvtt184/PDDqz0i5cD6RgebpK4gm67BlVyh32v7Wi4q5JIdQ4cODcccc0y1JZIPxCC/8847w7XXXlvtESkHBppGjBhRbYnUB9bgbrXVVuGQQw6p9ojkA/KLh3V9dJSLCrlkx3PPPafJumQLoc/4EymNmTNnarIutQSTX2I9a7IuOYL8zpgxQ5P1glEhl+wgrM78+fOrLZF8wCHLsGHD4kyNSGngsPD555+vtkTqBWHPCM0nkiPEKHfJRbmokEt29O/fP+yyyy7VlkhebLzxxmGTTTaptkTKYcyYMZpUSm3ZbLPNwujRo6stkXzAZH3s2LFGGCoYFXLJDhxjoZSL5AYOWRYsWBAeeuihao9IOdAu0z6L1BFks1+/ftWWSF7Qvhr2rFysWckOw55JzqCU6ylVSoQ15KzTFakjriGXXHENefmokEt2rFy50kZJsoQZmn333Tcceuih1R6RcjAsj9QZ+g6GTJVcod9r+1ouKuSSHTjFOu6446otkXwg7Nldd90VbrjhhmqPSDkcccQRYcstt6y2ROpDCns2derUao9IPiC/J554oj46CkaFXLKDsGf33HNPtSWSF4Q801OqlIgm61JXDHsmOYP8Tp8+XevQglEhl+wgrA7hH0RyA4csQ4cODSNGjKj2iJTDwoULDXsmtYWwZ4TmE8mRefPmOZhfMCrkkh2EjNppp52qLZF8wOwMT6mE3xEpjVGjRoVNN9202hKpF5j7br/99tWWSF7svPPOoW/fvtWWlIYKuWTHBhtsEAYOHFhtieQDToWw7pgzZ061R6QcGGiifRapGwyGbrjhhq7BlSxBfun39unTp9ojpaFCLtlB2DPXkEuuGPZMSoU15M8880y1JVIfWIO7bNky15BLliC/9HtdQ14uKuSSHcwyrlixotoSyQfCnu29997h4IMPrvaIlAOdRdpnkTpiyFTJGfxzOJhfLirkkh2EPTv++OOrLZF8IOwZnlJvvvnmao9IORx55JGGPZNagsnv1ltvHQ477LBqj0g+IL8nnXSS/mcKRoVcsoOwZ/fee2+1JZIXhj2TUpk1a5Ym61JLUtiz2bNnV3tE8iGFPdM6tFxUyCU7MNt55JFHqi2RfGCUe/DgwdHKQ6Q05s+fH0NLidQRBvMJzSeSI/R7HcwvFxVyyY5+/fqF0aNHV1si+UAc8kGDBoUhQ4ZUe0TKgZBShPUTqSOE5Bs5cmS1JZIXY8aMMexZwaiQS3YQukSFRnIEp0KMcms2KSWC9YcdRqkjWCchmwyIiuQG8jt06NDoGFbKRIVcssM15JIzhj2TUmENOet0RepGWkNu2DPJEeR3xowZriEvGBVyyQ48VbtOUXKE0e0JEyaEAw88sNojUg749zDsmdQV+g4qNJIr9HsdzC8XFXLJjuHDh4cTTjih2hLJBzqEWHfceuut1R6RcjjqqKMMeya1JIU9O/zww6s9IvmA/J588smGPSsYFXLJjj/84Q+arEu24CVVT6lSIoY9k7pi2DPJmWSy/sc//rHaI6WhQi7ZgVnk3Llzqy2RfGCUWy/rUiqPPvqoy4mktuB/ZsGCBdWWSF48/PDD4YUXXqi2pDSKUchZV8HaIEaRpGwIe0Z4HZHcIOzZ5ptvHrbYYotqj0g5bLvttmGTTTaptkTqBSH5ttlmm2pLJC922GEHo1gUTPYKOQr4E088ES6//PLw4IMP6vBgHYAGSYVGciSFPcO0V6Q0hg0bFjbaaKNqS6Q+YJ208cYbx9BRIrmB/I4YMcKwZwWTtULOWrVf//rX4atf/Wq45JJLwpIlS5whXwdwDbnkDEq5nqilRFxDLnWFvuGyZctcQy5Z4hry8slSIf/zn/4cLrvssvCpT30qKuIzZ86Ma4NUxtcN8FRNfYvkBqPbe+21VzjggAOqPSLlwPpx2meROoJs4oNGJEfo9zqYXy5ZKeQvrVwv3HbjrPD+938gfPe7342mnzSuKuLrFphFHnfccdWWSD7wMWUA8c4776z2iJTDEUccYdgzqSUp7Nmhhx5a7RHJB+T3xBNPDAMGDKj2SGms94oyu1a02dlLzg9zl14cVr60otqzZixZuFG455pBYfH8TcKfXmg7y+ecc05YuHBh9MA9ePDgMGXKlHDttddGE7pjjz02mio99NBDYeDAgeGQQw4JV199dUw7+uijo/dC1qBvuumm4bDDDotphMigg4FXTs7FmRjH/u53v4umTxz3+OOPRzO9DTfcMBx//PHhqquuCkuXLo3Xx4SetD59+oSTTjoppj399NPhoIMOite+77774kv2hje8IVx55ZXhqaeeijNnzDJgkk3n/bTTTgu//e1v47X222+/6GGRtD/96U/hLW95S7jiiiti2r777huPv+eee2JIpdNPPz2mPfnkk2HixInRmdT06dNj2tvf/vZoYUAas3Wsyb777rvjtc8444yYxrr8PffcMzroueuuu6KZzJlnnhnX6j/22GNht912i/EQScOZ3llnnRV+85vfxLRdd901Oq6aNm1aHDDhfjzfokWLwk477RTXf6OQ8Jzk85prrollPGbMmPjBvP3222Maz3fdddfFNJxZbLfddjGN8uU41irOnz8/7h89enS47bbbojn7KaecEo+bN29edOCyyy67xLjPzz77bHj9618f88VgDh3H3XffPaYhB9QR5YcskEfK5pZbbol1Rd1Sl8gIAwKUKWnIAbLF/gceeCA+N/V08803x3wiL9wL+cG7NvVLGnKAbCGvKGiUJXJBGnKAbFEH999/f6wDtm+66aZY18gWx5BGGRx55JExbfHixX8lW8zGHnPMMTGNuk6yxTMiD8Ryv/HGG+N9kmyRRpNAvEvSkO8kW5hLIXeUL2nU9d577x1lOMnWqaeeGm644YZY1+PHjw8bbLBBTOPapHEezzxu3Li4ng+5Q7aQc86jrqkT3kPSkK03v/nNMY26Hjt2bHx/SUO2kBGuSV3vvPPOcX0gMpnkh2en/HfcccdYp6Qxysz9qHfaCmRnq622imnIzxvf+MYoI7QVyN3IkSPjdpIfnoc09o8aNSqmIT+UGe8msoDccU/SqA/KGhngj2eifeL5kR8GlziHNPK4xx57xPcD+Xnta18bnw0ZQe6QSdKQH2I+U5bUNV7bkUnuh4wgW9Qd+UHuJk2aFNOQETqkHENdI3f7779/TENGDj744JhfnpE6QJ64HzJy4IEHxvIhjbZw6tSpMY37IFvUB2m0J8gr10RGJk+eHGWDOkMmyTdp5B3Zwu8HacC7RBpykGSLNOSPd5A6Qg4mTJgQZYs0ZIt3l9+UVatsUS/8Rg4oWxw7sU09kEaekYPUppHGs1DX/KY9oE2jzthGtmiz+Y0c0KZRN2wjW6TxrsyZMye2aaz7I42y45rUCW0FskM7xv2T/NDG8IfTSuSLtCQ/yAhygOM0ziUtyQ/5pz3gesgdacgP7z/lxT1p72gLSUvyQ/0gB8gdz08abQvyg6ywzbPxLeCZ2Efdcj7PhNzxnpOG/FDuXIuypryoQ66PjCBLlA/1Szkjk+SLPPCtpj6QJzqcyAxptCPIJ/JDGnLHscg88kO7hWyQRlvIPSgHnhnZAtKQO+SeNDzB866wjzRkjNjUlC3yw/Mgw6Qhm5QTdUIZI1vkgWegLeT9JA0ZSbKFjCJ3zX0OypZ2i/N4TuoMGUBGkmxxHnLX3B6kNi3JFmlcj3u2yhbvB/ngGVObRhrtFvJDGuWGbCFD1BmyxTV5bsqbbyl/pCFbyA/lzDZtGtfld/q20S5wD+6F3HGNJD/855mQO56DNNod5If7Ur7Dhw+PZUMaskWbwrPccccd8bkpU56H+9A2UT5825E7ZJJyQH5om2gH6ANQltQhacgPbRMz47T31CfnUodJfvjekYbcITPUC/KDfPKd5JtMvXIs9YX87LPPPlF+6AMg88go9YLc0zYhi6TRLyRvlD1/tN98z7kf1+aZkCvORba4D88AfOe5HrLAN5F3hmdH3ilD6oy88k3kmSkzyoCyJ/88P7LF85KG3NFXoG1F1qkT3m1kkjaNNMoLGaEukS3SkDvSeId5l1u/l6RRP8gF30vkhHaDNo006hUZaZUt3ivkgXsgj5zL9ZEtnoH/yAhtGvckX8gU7zH3pSyQLdpf0rgW8oOMUL7kn2fkWdO3jfKhXpA7yoYyIu+0KcgG/QXkjvLm/UO2kB/aCPog9O+QO8qdsqKdon9PGt9Z6pf6ooyRH+r/+uuvj+8+MokMJPlBRkhD7miPkAPqlN/IJ2nIA8eyn3TawX/8x3+M9S3lkY1CDr9fsmF45sH9wyOzXg5LFj8VG5hmUMh5IWiweEkQal5Otulc8jIi0KTRKNIIkYbQ83ElnUaS7a6m8cLyYtF4kcb1+U8arCqNa/LRIM9UCR90/vMic96q0vgoQFfTaBR4LsqyM2nkk2emw0I5ck0aMhojzmsrrfU8PmRcszWNxotOdkrjA0T9tabRoDHY8K53vSumsZ/rcmzrea1plDX5Qg5SGtekPprTyCPl1iw/7KfOOkprS+7aS0N+KGfuSTkjF+SFfUlGOpPGdbhmc1qSLe6f0rg3ZdBeGnXMNVvTWuWH8k3y2lYa51H2HaW1ylZbaZzXKiNtyRbnUcZtyVZ7adyP36S1JXetadyPckVGKD/+2E96Z9KSHJAfPtj8Tm1Vs4yQR56f+5PW3MZ0lEaZUN7cj3pplq3WtGb5STLJNVvTuiKTSbbaS2uVLdLIe0dp5Jl2lW2OoXw7SuMalGOrbLWVxjb5bU5rla01SUty0CpbbaVxHuXa2bT2ZKurac0ykmSL3+wjjWPId0dprbJ10UUXxY4vnfLWNGSCMmg+j3w1ywFp1A/ba5rG9YH7A/nmd6v8pDTOo6w6SmuVLcq3K2ncnzJoTmuVn+Y6W1Vac5uGjJDGsW3JT3tpXJMyaSuNZ08y0pb8JDnoKI08klfy3CoHq5tGmVCm7aW1JVu0vSi+KIcM8qY0IK0t2WovLcnIqtL4T94oe/5I43jSoDmN5yHvzWlcj+t2lJbkgDSek7JvTaNcKJ9VpaW6TnKwumnNctBRWmfkpzNpPE+rHLQlP0kOSKNMuWZ7aZxHWVG31CN9kLZkq7NpXJN6Ji3JAWn8Z5v9zTLSmkZev/KVr4T3vOc9cSBFyiMrhRzGDv9gePn3e4dpd06Po3CMcvLyAQo5nQFeKCkXRmqZOWfGVSQn6CwwIs8HlhlQkZL42c9+Fmd4mPESqRN0dRnMZzYeqwCRnKDv8IMf/CBarTDZIOWRpVM3TK4w/XvHO94RzfwwS2EkTNYNGGnEjEkkNxjZT6ajIqWBCSkzOiJ1g9lKZi0xZRbJDeSXfi9WAVIm2YY9w5SDdXSsY0IxZ92n6yrWDVg/xFojkRxBKedPpDRYk8naUZG6wQw5a9dZ/yuSG8gv/V5M16VMso5DDsyM4ygCJxA4aWCthpQNa35QykVyg+U0OIXBQZBIaST/IyJ1hKVCyKhIjuCg0cH8csleIU+gmGPKjFmHlA1eMFlHI5IbfEzx1IunWZHSwPuzJsFSR+gb4h0c7+UiuYH84vsAB41SJsUo5LLugCdMlBqR3MDsDCeUyVuuSEngH0HrJakjtL3MMBJKTCQ3kF9CseHFXcpEhVyyg3AQhI4SyQ1GuQkzRGg1kdJA2dEkWOoKg0XEdBbJEfq9KuTlokIu2aGXdckVnFFiNrnDDjtUe6SnQWG84YYbwuWXX/5Xf3i+Jw7sqiDsogOCbYO5ul7Wpa7gZX2LLbaotkTyYptttolx16VMVMglO+jw4chPJDdYQ44yZ5SA3mPJkiXhkksuieZ/zJbxh3fwSy+9NMYoXpVTMo656qqrqi1phvjjm2yySbUlUh+wTurfv7+D+ZIlyC8hnw17Vi59/u0Vqt/dylPP3xGWrbg3vPxy93pcHdZ/chi48dhXhFNv6usqTz31VLjxxhvDxIkTqz0iefDSSy+FRx99NIYu2Wmnnaq90pMQ+uixxx6L4TIPOOCA2I6MGzcuLF68ODzxxBNh9OjR0UkofirOO++8cO2114alS5fG2Qnq7nvf+15U5uncM6M+ffr0MGzYsHjO/fffH9smLCAw37711luj8s5vfAfcfffdYdq0aeGnP/1pHAggbndJCuyVV14Zhg8fbghSqR2swV20aFEcUNt9992rvSJ5gPz+6le/Crvssku09JDycIZcsoPQJca6lRwhLCOdwX333bfaI3UAM8BBgwbF2XH+cE6G4k04zaOOOirOqt92223xGJT3HXfcMYbZZD+z62ldH+bsKN20UXPnzg233HJL7EDts88+Uan/8pe/HBVWrsv29ddfX1RcWdbo8uwidQTZ1Omg5Ar9XsOelYsKuWTHkCFDYidZJDeYIUdRmzlzZrVH6gDel1Gsma1m0OQXv/hFOProo2O8eAZPmElfsGBB7NBj8opSzew2ZoQdwXF77bVXXGJDDPo0GLP33nuHMWPGxNn6kpz0EFLKNbpSR3hXeWcPPPDAao9IPiC/r33ta6NTWCkTFXLJDkw/UWpEcgOzM6IEOEvTu2BKfswxx4QpU6aE/fffP5x44onRWST76PjQvnzoQx+KnXf+3vnOd0Zz9K7AdVDuceSXwKwdxZy0tB+ZKAVM+vWyLnWE9wzZZGBNJDeQXyy3OuN4VPJEhVyyA4XGOOSSIyhizMI6yt27TJo0Kfz617+OJuPf/OY3o2LO2nFM11GUcZzzxS9+MXpjT3+f/exnoxdxaR8GMlTIpa4Yh1xy5oEHHjDsWcGokEt2MMtkx1hyBGVv5MiRcQ2y9D4MkKCIH3zwweGaa64JM2bMiLPae+yxR7jzzjvj+m5mJlgrzuxv8+wE56K4s+ac4/j/5JNPVqnrJpjoY2kgUkeI0IIDRpEcYcmFXtbLRYVcsoMZRjrRIrmBQxZGufHMLfWADg5rugnZxaz5woULo48KPDIze37hhReGn//85+Ghhx6KSjcexJkJxps6nXsUeMKocQye2tdlCMuD93mRusEAGpZJDIiK5Abyi98RJqSkTAx7JtnBbNVNN91k2DPJDsOe9T4o0CjVWNnwG5jVJawZyiROyUij487yGMzYR40aFSZMmBAHAwcMGBDXgXMsA4M4maRe2cb5G9fB8RuhabgWs8bch+sww7HVVltFSwlm65rTS4AQbzyPYc+kbmDpQrhDw55JjiC/hD3beeedDXtWKOu9UslrxaPM7CXnh7lLLw4rX1pR7ekexg7/YNhu0Clh/fU021hXYXaKGakPf/jD1R6RPEBxe/rpp6O3bpQzkZIgbvvhhx8eO40idYKuLtEtsGw555xzqr0ieUDf4dxzzw1nn322yy4KRZN1yQ5mpOj0ieRGmiF/8MEHqz0i5XDQQQfFGXKRuoHJL5YvWLGI5Abyy1IqHcKWiwq5ZAfmvvPnz6+2RPKBWRq8UD/zzDPVHpFyYN39888/X22J1AfaXpagYLYukhvI77x586J1nZSJCrlkBwoNjrFEcoNRbtYOuwZMSgTHd8bYl7pC2DOWvInkyOzZs+OElJSJCrlkB14mNYuUHMGZFw7Cxo4dW+0RKQeWE+kFWOoKzhuRUZEcod9r2LNyUSGX7MDTsU6DJEcIezZr1qxw1113VXtEyoGwPHihF6kbWCdtttlmYYcddqj2iOQD8rvrrrs64FkwKuSSHZhE3nPPPdWWSF6glPMnUhoMNukfQeoIa3CXLVvmcjfJEuR3xowZmqwXjAq5ZAdOLfiwiuQG8aZ32WWXMH78+GqPSDn8/ve/Dy+++GK1JVIvkE0HjCRXli5dGv785z9XW1IaKuSSHZtvvnk49NBDqy2RfCDsGZ6oH3nkkWqPSDlMmTLFGLlSSzD53WKLLcLkyZOrPSL5gPwS7tewZ+WiQi7Z8cILL0SlRiQ3MDvD068WHlIiTzzxRFixYkW1JVIfaHuRzSeffLLaI5IPyO/ChQsNe1YwKuSSHYQ9I/yDSI7glAVvvyKl8eCDDxr2TGoL5uoPP/xwtSWSF/jocA15uaiQS3ZsuOGGhi6RLHnNa14Tdtxxx7DnnntWe0TKYfDgwbF9FqkjDIYOGjSo2hLJi6FDh8Y+hJSJCrlkR//+/cNuu+1WbYnkAw5ZZs6cGaZNm1btESkHwlESWkqkbrAGd+DAgXFAVCQ3kN/dd99d67qCUSGX7MBk/d577622RPKCkGd6SpUSMeyZ1BXW4BIFwLBnkiOGPSsfFXLJDkKXPP3009WWSD4Q9mynnXYK48aNq/aIlAPOCg17JnUFh7Ao5SI5Qr/XwfxyUSGX7GCd4sEHH1xtieQDYc/w8rtgwYJqj0g5EFKKdY4idQOT3+HDh4d999232iOSD8jv1KlT45JNKRMVcskOwj4sXry42hLJB8zOMOnVwkNK5KmnnoqzkCJ1g7YXc1/bXskR5JfBfGfIy0WFXLKDsDo4xhLJEbykbrDBBtWWSDnMmTMnxtkXqSMMhj700EPVlkhe3H///a4hLxgVcskOlBlDl0iOoIzvuuuuYeLEidUekXLAi7Vhz6SuIJtGAZBcYbmmYc/KRYVcsmPAgAE6xZIswdyMUe477rij2iNSDoSjRCkXqRuswWUgnwFRkdxAfsePH2/Ys4JRIZfswGTdsGeSKyjlrgOTEmEpkV6spY6ksGezZ8+u9ojkA/I7ffp0TdYLRoVcsoOwOjgPEskNwp6NGTMm7L777tUekXJYunSpYc+ktuBwkNB8IjlCv9fB/HJRIZfswOxsypQp1ZZIPhD2DC+/TzzxRLVHpBwmTZoUhgwZUm2J1AdMfocNGxb23nvvao9IPiC/hPs17Fm5qJBLdjBCyEyMSG5gdsYMzZIlS6o9IuWAbDtDLnWEthfZdEmF5Ajy6wx52aiQS3awhhzHWCI5sv7660fTdZHSeOCBBwx7JrUFZfzBBx+stkTy4r777nMNecGokEt2EPbM0CWSI4Qs2WOPPcJ+++1X7REph0033dQY+1JbkE1kVCRH6Pc6mF8uKuSSHYQ9M46z5AjmZkQIuPXWW6s9IuVAOEp8fIjUDdbgbr755jrUlCxBfvfZZ5/Qr1+/ao+Uhgq5ZMdzzz0X7rnnnmpLJC9Qyl0HJiVC2LNnnnmm2hKpD4Y9k5xBfmfMmBFWrFhR7ZHSUCGX7CB0iU6xJEcwNxs1alQYO3ZstUekHIggQPssUkdYf6tDWMmVxYsXO5hfMCrkkh2YRO6///7Vlkg+EPaMWRrj6EuJEFIKs2CRuoHJ79ChQ8OECROqPSL5gPwS7neTTTap9khpqJBLdjBCqFmk5AhmZ8zQMNItUhosJ3IGR+oIbe+f/vSnGKVFJDeQX/q9K1eurPZIaaiQS3bwQSX8g4iI1IdZs2Y5WCq1BeukOXPmVFsieYHvJMOelYsKuWQHoaP69+9fbYnkA7I7fvz4aHomUhqYUyLjInUE2dRLteQKIfsMe1YuKuSSHcRinDRpUrUlkg+Y8+Ip9eabb672iJQD63NdQy51hDW4Q4YMCXvttVe1RyQfkN/99tvPAaWCUSGX7GCdIrGcRXIEpdx1tlIimKxjFixSN1LYswceeKDaI5IPKeyZJuvlokIu2UFYnSeffLLaEskHzM223377sMsuu1R7RMqBcJSGPZO6gjJjhAvJFfq9OCaUMlEhl+wYOHCgJuuSJYxyY+Gh4yspEU3Wpc5gsj5u3LhqSyQfMFmfPHmyYc8KJjuFfL2Y5fUaG7JOQizn559/vtoSyQdklxmaxx9/vNojUg4rVqxwOYbUFkJGafIrOcJg/vLly2MfQspkrSnk/TbYMqy/3gbVVvex0QZbhPXWc2J/XYawZ64hl1zhw8qfSGnMnDlT6w+pLcuWLXMNuWSLYc/KZq1ptkP77xc2fs3wamvNYWZ8834Tw2Yb7VjNksu6yvrrrx822mijakskHwi7M3HixHDwwQdXe0TKgXbZsDxSV5DNvn37VlsiebHxxhtH03Upk7Wm2aKM7zL878OmfUeFPutvXO1dPfqs1zcM3Hi3MHrz07tVyZc8GTRoUDjggAOqLZF8wJx3+vTp4aabbqr2iJTDvvvuG9fpitQNFJlhw4bFAVGR3EB+DzzwQNeQF8x6L69l28nf/3FmePIP14flLy4IL4eV1d7Ow2w45u/DNz04bLbRzmH99V5Tpci6yqJFi8JVV10V3va2t1V7RPIAD6ko488++2w4/vjjq70iZfCjH/0oKuXbbbddtUekHtDVfeSRR+KA6Mknn1ztFckD1o5fcMEFUXaZlJLyWOsKeYOXw59fWvFKg7gaCvl6fcJr4gy7ZhrSYO7cueGSSy4JH/7wh6s9InmAU6H58+fH0FA777xztVekDM4777xw+OGHK9tSO+jq4uPgxhtvDOecc061VyQPUMjPPffccPbZZ0dLDymPHlqMvd4rSnW/sEGfTbv8x3kq49LMZpttFvbee+9qSyQvcMpilAApEUJKDR48uNoSqReE5Ntjjz2qLZF8wGQd66N+/dCJpET0jibZwUj3iy++WG2J5AOj3IsXL47LLkRKgyUZhuWRuoJsIqMiuUG/F8u6HjFqll5BhVyyw7BnkjN8UP2oSonMmjUr/P73v6+2ROoFsmnYM8kVw56VjQq5ZAemOxts0P0x7kXWNoQ922effcLUqVOrPSLlgHwTllKkjtB3QEZFcoR+LzIsZeKXU7KDNYrGcZYcIezZXXfdFW644YZqj0g5TJ48WYdDUktQZIYPHx7X4YrkBvLLQL5hz8pFhVyy47nnnoumOyI5glLuOkYpEU3Wpa6wTEiTdckV5HfGjBmarBeMCrlkBw3S448/Xm2J5APmvNtss00YPXp0tUekHJ588kk7jFJbVqxYEZ1qiuTIY4895mB+waiQS3YQ9mzChAnVlkheMENulAApEUJKDRo0qNoSqRcsd9ttt92qLZF8wGSdcL+GPSsXFXLJDkx3DK0jOYLcPvHEE2HBggXVHpFyQL6NICB1xr6D5Ajt6sqVK21fC0aFXLKDsGeuIZdc4YPqR1VKhDXkzzzzTLUlUi+WLVvmGnLJFteQl40KuWQHpjuGfpAcIeTOpEmTwmGHHVbtEREREekY+71lo0Iu2bH55pur0EiWsH582rRp4brrrqv2iJTDQQcdFENLidQNlJkRI0aE/fffv9ojkg/I75FHHhk23XTTao+Uhgq5ZAcm6/fee2+1JZIXeEnVU6qUyMyZMzVZl1rCMiHDnkmuIL/Tp0+PkQKkTFTIJTtYQ7No0aJqSyQfCHu21VZbhe23377aI1IOOCy0wyh15fnnn4+h+URyhH6vg/nlokIu2TFgwIAwbty4akskP3TqJiUyduzYMHDgwGpLpF4Qkm+XXXaptkTyAZP18ePHh4033rjaI6WhQi7ZQcPETKNIbhBy5/HHHw+PPvpotUekHGiXdTwkdcW+g+SMbWvZ2DJJdriGXHLGWM1SKoQ9Y52uSB1xDbnkCn0Gwv0a9qxcVMglO2iY8FYtkhuEPZs8eXL0lipSGitXrnSwSWoLg6HIqEiO2O8tGxVyyY4hQ4aEo446qtoSyQc+qHfccUe4+uqrqz0i5TB16tSwxRZbVFsi9QFz3y233DIceOCB1R6RfEB+jznmGMOeFYwKuWTHc889p8m6ZIthz6RUDHsmdQXLDU3WJVeQ3xkzZhjFomBUyCU7aJAWLlxYbYnkAw6FRowYEUaOHFntESkHHBbaYZS6QtgzQvOJ5MiCBQsczC8YFXLJDkx2dt9992pLJC/69OkT/0RKg5BSm222WbUlUi8IybfTTjtVWyL5gMn6nnvuadizglEhl+xglnHDDTestkTyAadCjz32WJg3b161R6QcaJcNKyV1hYHQDTbYoNoSyQvaV0OflYtfTskOw55JzqCU8ydSGq4hlzqzbNky15BLlqQ15IY9KxcVcskOlJkXX3yx2hLJB8OeScmwvtHBJqkryKZrcCVX6PfavpbLei8bNFQygxnyRx99NOy2227VHpE8oDN4++23h2effTYcffTR1V6RMpg1a1YMLeU6cqkjeFlfvHhx2HHHHas9InmAqoZlKLK70UYbVXulJJwhl+wg7Nk999xTbYnkBUq5szRSIpqsS11BoUEhnz17drVHJB80WS8fFXLJDsLqEP5BJDdweLXFFluErbfeutojUg44LCS0lEgdWb58eQzNJ5Ij8+fPd7lmwaiQS3b0798/jB07ttoSyQs8pRq6REqEkFIDBgyotkTqBUspxowZU22J5APe1Vmmqbl6uaiQS3YQukSFRnIEhywLFy4MDz/8cLVHpBxol42xL3UFp5oqNJIr/fr1M6xkwVizkh2sITfsmeQKSrmeUqVEXEMudYY15IY9kxxhDTm+k1xDXi4q5JIdK1euDC+88EK1JZIPzNBMmjQpHHbYYdUekXIwLI/UGfoOrsGVXEEZt30tF8OeSXYwQ07YM9eRS26ksGeE7jvqqKOqvSJlgAfrESNGGPZMagkz5EuWLHEduWQHqtr9998fRo8e7bKLQnGGXLIDZUaTdckVlHJnaaREiEOuybrUERQaw55JriC/06dP12S9YFTIJTsIe8YMuUhu4JBl6NChYcstt6z2iJQDDgsNeyZ1hbBnhOYTyRH6vQ7ml4sKuWQHYc923nnnakskLzbZZJOw6aabVlsi5YA5pbItdYWQfKNGjaq2RPKBsGe77rqr5uoFo0Iu2YFjLGPdSo7gkGX+/PnhwQcfrPaIlAPK+AYbbFBtidSLDTfcMA7oi+QI/V7DnpWLNSvZ4RpyyRnDnkmpuIZc6syyZcsMeyZZwhryGTNmuIa8YFTIJTsIXcI6cpHcwLpjn332CVOnTq32iJQDnUXaZ5E6gmyq0Eiu0O91ML9cDHsm2UHYM8x+WU8jkhOGPZOSmTNnTthiiy1cUiS1BOsNwp7h60AkJ1DVZs6cGWW3b9++1V4pCWfIJTtQyDVZl1wx7JmUCh1GQkuJ1A0UGsOeSa4gv4Q90zq0XFTIJTsIqzNv3rxqSyQf8JQ6ZMiQOIsoUhoLFiww7JnUFgbzFy1aVG2J5AX9Xgfzy0WFXLKDsFFjxoyptkTyAQ+pmPMOGjSo2iNSDjvssINerKW2EAVgu+22q7ZE8mKnnXbSXL1gVMglOwirM3jw4GpLJB9wKsQot55+pUQGDhwYQ0uJ1A2sk1BmkFGR3EB+6ff26dOn2iOloUIu2WHYM8kZw55JqRj2TOpKWkPuYKjkCPJr2LOyUSGX7GCW0XWKkiOEPZs4cWI46KCDqj0i5YDDIcOeSV3585//rFMsyRb6vQ7ml4thzyQ7cMyycOHCsPPOO1d7RPLAsGdSMg8++GAYPny4Yc+klmC98dRTT4VRo0ZVe0TyAFWNCAH46XAdeZk4Qy7ZgUJ+zz33VFsieWHYMykVwp5psi51RJN1yRnk17BnZaNCLtmB2c4jjzxSbYnkQ3LMMnTo0GqPSDnMnz8/LF++vNoSqRcM5hOaTyRH5s6d62B+waiQS3b069dPkzPJEsKeEfJs2LBh1R6Rchg5cmQMSylSRwjJt+2221ZbInkxevRozdULRoVcsoOwOio0kiM4vMK6g7VgIqWB5cdGG21UbYnUB6yTkM3NN9+82iOSD8gv/V4cw0qZqJBLdriGXHIGL6l6opYScQ251BXXkEvOIL/0ew17Vi4q5JIdhC5xnaLkCKPb48ePD1OmTKn2iJQD/j1on0XqCLJpyFTJFSajHMwvF8OeSXYY9kxyBQ/rd9xxRwx7duSRR1Z7RcrAsGdSZwx7JrmCqmbYs7JxhlyyA4X8vvvuq7ZE8gIvqS+88EK1JVIOl19+eXjssceqLZH6gEKDQj5nzpxqj0g+IL8zZszQZL1gVMglOzA5e/jhh6stkXzAMcvAgQN1LCRFss0228QoGCJ1BMskQvOJ5Aj9Xgfzy0WFXLJj4403Dtttt121JZIPhD3DE/WWW25Z7REphxNPPNGwUlJbCMm39dZbV1siebH99tvHKENSJirkkh2ELlGhkRzBIcvcuXOjN2oREekZsE7CesOQqZIjyO9WW20VNthgg2qPlIYKuWQHZmf33ntvtSWSFyjlekoVEek5WINr2DPJFdeQl48KuWQHoUtQykVyg7Bn48aNC/vvv3+1R0REegKiXBgyVXKFfq+D+eWiQi7ZgcnZscceW22J5AMfU0KX3HXXXdUeERFZ2yST36lTp1Z7RPIB+T3hhBMMKVkwKuSSHYxwo9SI5AZmZ5icrVixotojIiJrG9reZ5991ggtkiXIL75n9LJeLirkkh0o5A899FC1JZIPjHIzwk3oMxER6Tkw+X300UerLZG8ePDBB1XIC0aFXLKDsGeG1pEcIezZiBEjwsiRI6s9IiLSExD2zAgtkiv0Gwx7Vi4q5JIdhD3bZpttqi2RfGANOdYd9913X7VHRETWNinsGQOiIrmB/DIRZdizclEhl+x47rnnDHsm2WLYMxGRnsWwZ5Izhj0rHxVyyQ5Cl+CcRSQ3CHu2xx57hEmTJlV7RESkJ6DvwIC+SI7Q73Uwv1xUyCU7hg4dGo4++uhqSyQfksm6Fh4iIj0HJr+sHz/ooIOqPSL5gPwS7tewZ+WiQi7ZwSjhtGnTqi2RfMDs7Pnnn4+RAkREpGeg7WV2XC/rkiPI75w5c/SyXjAq5JIdmJ0tW7as2hLJB0a5+/fv7yi3iEgPw2D+vHnzqi2RvFAhLxsVcskOlJkJEyZUWyL5QNgzIgSMHj262iMiIj0BXtaHDx9ebYnkxdZbb62X9YJRIZfsGDx4sOvAJEtYQ84oN95SRUSkZ0jWSYZMlRxBfkeNGmUc8oJRIRcR6UEMeyYi0rMY9kxyxrBn5aNCLiLSQ/Tp0yfstttuYZ999qn2iIhIT/Diiy+GP/zhD9WWSF4woORgfrmokIuI9BAvvfRSdCo0e/bsao+IiKxtMPkdMWJEmDJlSrVHJB+QX8L9brrpptUeKQ0VchGRHiKF3sHbr4iI9Ay0vcyOz507t9ojkg/IL7KLlYeUiQq5iEgPwSg3nn5xLiQiIj0Hg6GLFi2qtkTyAv8Hhj0rFxVyEZEe4jWveU0YP358OPDAA6s9IiLSE2DuO3LkyGpLJC9YcmHYs3JZ72XsIERERERERKRWoKrdfPPNYa+99opWdlIezpCLiIiIiIjUEBRywp6tWLGi2iOloUIuIiIiIiJSU5YtW2bYs4JRIRcREREREakhOIQ98sgjDXtWMCrksva5447qR425++4Q3v72EAwpIc08+WQI8+ZVGzXlT38K4Qc/COFTnyLQebVTZA1A7pctqzZqzK9/HcI//VMIf/5ztUOKARnku1x3rrsuhHe8I4Q//rHaIdL9YLI+f/78Vz73r3zvpUhUyGXtMm1a42N1xRX1VHbpyN1ySwgf/nAIhx6KG+wqQdZ5li9vKLr/8R8hzJlTT2WXTuDFF4fwrW+FcMwxr7ToNunSDVx5ZQhvfGMIDz5YT7nnW/KrX4Xwne805L5PnypBioDv8k03hXDuuSHcfns9B1xQjK65JoRPfCKE004LYaONqgSRtcOsWbNe+eQ78FMqff7tFarfIt3PlluGsPPOIXz2s8QcCWG77UKoS9gGOnUo4+ef3+jUnXpqCBtuWCXKOg+ysMMOfAVDuP76xu/Bg7Edqw7oZZ59NoTvfjeEH/0ohM99LoRx46oEkTVkjz0acv7Nb4aw/fYhDB9en8EeOqRXXRXC//1fCKefHsKUKSrkpYGsbbNNo43DCmKLLRp/dZFBHGtddlmj3f3oRxuD+SJrEWbI58yZE3bbbbew8cYbV3ulJFTIZe1Dhw7F/Pvfb8y2oNj0tuKbZsYvuCCE/fdvjHBvskmVKFKBTOyySwj33NMwTdxxxxA237xK7EWWLm0oS9deG8J//mcIe+5ZJYh0EyjltJO/+EUIAwc22vDeVogYRGX2Hour444LYerU+gzwSvdCH4H2dvHiRn2jkG+1Ve8PiGI59ctfNt6LD3wghEMOqRJE1h6sId/qFfkfNGjQK82wlnAlokIuPQOj3XTqMDN84YUQRo3qXaX85ptD+OpXQzjggMbM+IABVYJIC/37hzB2bAgzZ4bw0582FJXeVMqffjqEr3+9YU7M7Mzuu1cJIt3MmDEN01wUIt4DFKLe7AwyW8ofyjizkn37VglSJJiB77RTo8275JIQtt22IYO9Bco434Abbmj4nDnooCpBZO3T/5U2WGW8XFTIpWfApHDrrRtm64wsM1M+enTvrNlmTdq//3sIxx/fWCepMi6rAmUExXfBghC+8pUQ9t47hCFDqsQehJnxr30thPnzQ3jPe0LYbbf6mNBLedA+s8yImenf/KaxZKO3Zsr5brA8461vDeHgg1XG1xVQyln2xlKFL36xMUhEX6Knef75EH72s8ZgPhZ1kye7VEJEug0Vcuk56NylmXKcUGEOjElaT3buMFPHydz73hfC61+vmbp0nn79Guu0Wdf4pS+FsM8+PauUc19mxmfPDuHv/q6hjNshlLUNJuEsO0Ipx8khvzEf7smBoJ/8JITzzgvh4x8PYdIkzdTXNbCmQylnQP/Tn270G+hL9BTIPmbqrBtnZhxlXBkUkW5EhVx6FhQIZlwY4SZcDevJmSnvCVDGzzqr4WDuhBN6fx275AezcuPHh/D73zcUhH337RnzdZZ5MIiFMyu8+mJCr+ma9BQoH5gOr1zZaD9Z6jNoUJW4lsFEGMeb3/iGg1DrMgzoo5RjpYFSzu+emCl/+eWGIs4Stw99qOFzxmgsItLNqJBLz8PMysiRjc7VOec0ZlxQzNdWRyuFUPnXfw3hH/+xoYxr5iurC50xZHfJkhB+/OMQdt21oZSvLZlKyjj3Ymae+ym/0tMwAMRAEPL/z//cmKlem3LP2vVLL23MyqOAKfdC/eN/Bmsl2kRmydfmEgpk8Le/bYRfYyCUgShlUETWAirk0nvgoGXChBD+5V8apmh8aLvbDAxTM5Rx1t2+4Q0hnHSSo9uy5jBTjnLy8MMh/O53jQElzNe7u7P2zDONmUFMdlm7zj1FehMGo1CIWM+bQqJ192AqYaUuv7wxM/k3f9P4TmgRIoCs0d6iLBP6bujQEEaM6H75YM0418cihEgWhNcTEVlLqJBL74JSjpOW73yn8YFFKe8uZz1cD2X84osb4XFe97oQjN8o3QWylLyvX3NNQ3bpHHYXTz3VGEgitBnm8cwQitQBlHIGT7Ha2Gyzhufr7lLKcd7FrOTVVzfabE2EpRVkj6VuDFgSAQBLje4MifaHPzQGQXHiRhcZGRQRWYuokEvvwzqwYcMaTlMIK8KHdk2VctZ9EZrkwgtDOPDAhgM3PGWLdCc4BUQ5eeCBhvyiNHeHozdi77JmkRn4T36ysV5SpE4wkArMYuMJG/PhNVXKib5BaEysTk48sTErqfMsaYsUpxx/Hnjgpw/RHY7ecJ7JQBOD+e9+d8OBm4jIWkaFXHofTM0Y3cb7OkoN5oo4EFqTjtiNNzZMKo89NoSTT1YZl7UH5ruERFu0qDGjTZxyzHhXF9amc50nnmhEA0AZd92i1A2Ubxx04ugNpZz3YE2VcmYlUcgJbcaspMq4dERSyrGGIwIF/Qj806wuzz0Xwg9/GMIddzS8qeMnwaUSItIDqJBLPaATx0w5pmeYr/MRZLZxdT6GmPj+wz804jQfd5yhzWTtg/n6nns2BpO+/OXVV8qXLWvMjBPv/L3vbSjjdgilrqAwo5RjkUSMcMKh0Y6vzgASS4v4I/oGa8Y1U5fOgFKOtcaAASF87nONZXDIZFeh7WZmnP4D0ViIoOGAkIj0ECrkUh9QytPHFEdvKDS77FIldhI+ph/8YAj/9V8hHHFE961HF1kVdAxRxHEkiFJOzHLMKDsLToRQxu++O4SPfaxhJbKmJsAiaxuUFpYZIav//d8Nue/qYNT3v99Qxglvhtw7CCVdgcEbZBCP63z7mSXvykw5SyVYL/697zUisaCMOyAkIj2ICrnUCzpimD0S6/kd72go6JikraqDhtnk9dc31tt+/OMNZdxOnfQ0dOIYRMLZEApGWlO+qhlDTC5RxnFm9fnPN2Z8NFOXXKCtxZoDa6Sk0ODgcFUyTEhK4ozzh9zjtV25l9UBGWQwn/j4LPnBUqMz1hrIIN7UUeQZUEJ27TuISA+jQi71hLVgOPT58Icb678Z/WYGsi2YkUQZJy4p676OOsqZRek9mDFEKX/ssUboJjqJHSknKO/MDKKMM7OenGWJ5AZyj6x/6lMNuWfGsr22GBPhX/86hKuuCuH972+cqzIua0JSypE5ZrxZAkdItPZkEKskzNQJbUYbvM8+VYKISM+iQi71hc7cXns1nLUwit1WSLSkjPNRRRHHiZtm6tLb4HUaBQMv6YRvwnyyLTNeHLgxM45H3y99qTHwJJIzzJQTCu2ii0LYdNOGxVOr+S+hzRisIhLGm99snHHpPpA1+goM+OBsEGexzJS3yhfe1FkqgSNBZsb33rtKEBHpeVTIpd4wus3HlLAmfEBRWFB2gHVfrBlHGSfO+PHHNzz9itQBHL1hsv7IIyFcemmjk9i8phwv6phW4sCNGcUddqgSRDIHWceiCblHQWLpUVLKWV6EiTCRMAhHqSdr6W6SXwNmwJFBlPLmNeWESmPA6JZbGkssVMZFpJdRIZd6gwkjM+Wsw8W8EfNenP7Q2WPm8dvfbsyK86cyLnUDpXzs2BCefDKEb3yjMXvIIBPKOJYfyPPf/q0z41IWKNgoQPz/zW8aChLbKOWElbrmmhBOP931urL2SEo5A0Df/W7DfB0fBbS5KOMzZoTwN3/TUMaVQRHpZVTIpf6w/gulnNlFZsNfeKER85l1X3xQMVVH8RGpI1h0oJSz7OIrX2l0DJm1IcTZOefowE3KJM2M037TbjNLiUUTCjqzkoQJVBGStQlKOdYayN4Xv9gYtL/55hBuu63R9k6c+BfLDRGRXmS9l1+h+i1SbxjpvuuuRlgzHGZdcEEI++3nB1XyAH8HzA4S0u/ggxvRAJixUSmRkiGCwBVXhPCf/9mQ9RSv3EEo6SnoO+CngwF8LDVYIoR/mvacvYmI9DD2BCUf6MCx9ou145idMUuuMiO5gKw+/nhDMccfwvLlKiVSPig9tNssM6LN5k+kJ6GdxVcHS4Voh597zr6DiNQKWyTJA5QYwuN85zshfOxjjRBRn/tcYy0YjltE6gwKOPKKE6ErrwzhkEMaIc7uuacxeyNSIni6xos1s5NEEzjvvIbPBPx/0KaLrG3oH9Bv+MxnGm3vu98dwve+14jOgvWGiEgNcA251B/WjLP28Oc/D+HEE0M4/PCG53W88+IYixA6rBNL3tdF6sTixY0Yt3ffHcIXvtBYM45zN2YKGWQiLBQmvCIlgSLEevFbbw3hzDMbfhSQ/a22akQXICQaa8xZ5yuyNsAy48ILGz4MkLnx4xtxylmpiZPYAQPaDokmItLDqJBLvWH2kNmUX/4yhCOOaDhwS4o3Tt5Yg0sInaVL/zokmkgdQOn+5jcbXtZZt4jyDcgpccoxo6RjiGKiUi6lwMwj7fLtt4fwpjc1FKEEg6co4wywYkrMml6Vculu6BPgXR0Hbv/+7w0ngoDPGWQQGcW5JrKIki4i0ouokEu9wTQdJ0DHHffXyjjQmRs+vKGYY4r29NONGZi+fasDRHqRpIxjtouZLkp3M8gyccqXLGmYVBKHnGgCIrnz/e83FCFCmzUr45CUcNppBqOAgVWdc0p3QQQLlPFZs0J4z3saDtya/XUkpZx9F18cQv/+jW0RkV5ChVzqy69+1Vh3eNZZIRx6aNuz35iaMbOIUs6MDM7eMI20cye9CTPiLKdgnew73tGYgWnuECZQSlDKgeM5DhNKkVwh3v5114XwgQ+EsNtu1c4WaJ8ZoMLRG2vMadsZkNLrtawp+OtAGb/vvoZX9fa8qSODyNzgwQ1/HpivM6AvItILqJBLPUG5/p//aZiaTZ7c6Li1Bx/bESMaHTxmJFlz3jorI9JTMCjEmnFmaXAghJLd0RpFZJs15ZjtMgDFbCHrbEVyA/nF38d//3djFrwjUIh4NzAZxtkb1iHOUsqawAAo1kYMCBEeddy4jgfn6TvQb0AR/9KXGrKoUi4ivYAKudQPHAGhjOMAa8KEzjlc4RiUckbD//EfQ9h448bHWKQn+fOfG8rIAw+E8MlPNma725oZb4WO4Y47No5lppzfyLNILjAYir8PZsiZdewMyD2+P5B1Bq8mTvyLnwWRroIyfsEFDeV6990733dIg0Ff/GIIm2/uwJCI9Dgq5FIfGN2+4orGmq5/+IeGMt4ZZaaZIUNCmDo1hH/6p8a5aeZRZG3zhz80QpvNnBnC5z/fdSdtSTnBwgOHVygmLMXoTKdSpLcgygV+PpLzLGS2q2A6zNKNd72roQwxa8n7INIZ8Oj/7W+H8K1vNRRyHGZ2BfoKtNf4pPnBDxoz5QymKoMi0kOokEs9QAlhdgWvp6eeGsIBB6z+OnBGuA86qDFT89xzjQ5eW+vPRboL1oyzDvHBBxsz5KvrMZ3Bo512ajh6Y3CKmRuu1dWBKZGeAEWI5UV33hnCOeesmbkvSjmKFINZKER6X5fOQGgzZsZ/8YtGaLOuKuMJBj4ZBMWvB/2QTTZpbDsgKiI9gAq59D6Y+RKP+fLLQzjmmMYMd0drxjsDSjmdQz6sTz3V6Oxhxi7S3Sxc2Bj8Yc34f/xHY5ZlTUhryp94orF8A6Vc83WpG1g0oQTddVcIb3lLCHvsUSWsAawpZ4b9hz9sxIrGn8KafgukXPi2E2ccGSSs5Ooq4wmUb2QQcCpLn4G+g4jIWkaFXHofQt+gOJ9wQsObend1wIYObSgzzLwzg2mcculuFixomEq+9FIIf/d33ac48w7QuUTJ/973Gk7e9L4udQK5RBF661u7z18HliDMShKGim8Cg7VYODlTLq0kZfzhh0N473sb0VW6w5IIM3WUcGSOgSHaYh29ichaRoVcehfWyrJm64wzGmbm3Tkbwmg3sy3MWBLPHKWcdYrOuEh38NhjjTWLyNnb3955B26dBTllppxrovSj7LfGMhfpDf73f0OYNu0vilB3gkKEUt6vXyMkGu8XCpHreSWBmTqhzebObYRF7awDt87CtbDOwNKOyAEM5LOUSERkLaFCLr0HnS0Umo9/PIR99ln9NeMdwYcVhRxFhtFuPuSr4yxOpJmnnw7hK19pzOCdfXZDgVgbMsUsDR7XWc+IWTwWHyrl0pvgwfqOOxpRBFBa1gZ8C1hDPmhQI4Qg/1WIBFasaAxQzpgRwt/+bSPW/doYrKHvQLvOID4DUGmAVERkLaBCLr3Dz37WUMbp3PHB687R7Va4NjPlhEQ799yGV2DC64isDjgg/MxnGkr5Rz7SmLlemwM8yYQSpRynRaxxNE659AYoJjhwQ0lm9nBtgtyj8KOYMxPPd8L1vEIbeNllIXz60w0FeW32HWjX6Tsge8TKx2qDAVIRkW5GhVx6lj/9qbFmnNnxj32s8aHridlq7sEsy8EHh/Av/9JwSISZ29qYlZdyWb680RHEXJ3BHcLs9QRJOUGOf/zjhkKu93XpKRiEuuiiEO6+O4RPfGLtK+MJ5BuFnMHU005rKEMo5Zqvr3swkI75OH2Hr3+94ROmp/oO+KPBMgm/CSjlyOTaHAgQkXUOFXLpOfigXnllw5s6a8aZpe7pj9rAgSEccUTD/Hfp0sbaRB29SWfABwEhmfB+zgz54MFVQg+BEkInlFB+eF9nKYZKuaxtCG2Grw9MhN/znrVnpt4RKEOTJzfinOPwLTndknUDnFtiUUffgRnynraUoI1ludBmmzUiC+B9HXN2B4ZEpJtQIZeegRlpHKv97nchnHxyI854b33M+Kiy7oyZepQrPu6Meou0x/z5jVkZBpVYO4u1RW+ARQdraemgIr8o5Zqvy9oCeU/K+OmnNyyaegsUIJZr4Fl75cqG93UddJbPkiUNB2733x/Cf/5n7y1bSNYayBwRAPiPDIqIdAMq5NIz8AEj1vhJJ4UwZUrvm4ozu8msy3XXhbBoUePDapxyaYt580L4zncaM3KENuspc932IB+snfzDH0L40Y/+Yk4p0t1gpn7PPQ1lnCU+vQ2RDGi7maVksACLEZXyclm8uCGDfKPxI9BTZurtwb0ZEOjbt2E6z7ZrykWkG1Ahl7UPa15RyDFTx+ywDuu2+ZCy/heHXNdeG8LChY24z3xoRRLMjF9wQcOh2tve1nDw05sdwkSaKec/HoeRZWYPRbqLL34xhJkzQzjnnO4Pbba6YFWFUo6VEzP3+CRJ74GUBU4zsYbAiu3MMxv1XId127T/tLV8C7CaYrs3LUdEpAhUyGXtwppxFBocuOGYp05rrvi4o8hghvbLXzYcdfXGunapJ4TII0b+Sy814ozXbb02SgiWHczYf/Objf8q5dId/M//hHDffSH88z/3nolweyD3mK8nuWcQtaecg0rPgBNBBvHvvTeEd76zoYzXqe+ArLFUaI89Go7m+EbUZdBKRLJkvZdfofot0v2w1hUFd8CA+naYeAUYjceDKjGlmQ0VYZ3qs882TMSRibrKL/mcNSuE2bNDOOEEnV3JmsPMOIp4nR1eogQ9/HDDLwnttg62yoFvMs4rWZbAoHmdB1swq7/66hCOPbbhcFBEZDVQIRcRERERERHpBbTNFREREREREekFVMhFREREREREegEVchEREREREZFeQIVcREREREREpBdQIRcRERERERHpBVTIRURERERERHoBFXIRERERERGRXkCFXERERERERKQXUCEXERERERER6QVUyEVERERERER6ARVyERERERERkV5AhVxERERERESkF1AhFxEREREREekFVMhFREREREREegEVchEREREREZFeQIVcREREREREpBdQIRcRERERERHpBVTIRURERERERHoBFXIRERERERGRXkCFXERERERERKQXUCEXERERERER6QVUyEVERERERER6ARVyERERERERkV5AhVxERERERESkxwnh/wFV949SZOgBiAAAAABJRU5ErkJggg==;" vertex="1" parent="1">
          <mxGeometry x="80" y="-110" width="996" height="705" as="geometry" />
        </mxCell>
      </root>
    </mxGraphModel>
  </diagram>
</mxfile>
